<?xml version="1.0" standalone="no"?>
<!DOCTYPE svg PUBLIC "-//W3C//DTD SVG 20010904//EN"
 "http://www.w3.org/TR/2001/REC-SVG-20010904/DTD/svg10.dtd">
<svg version="1.0" xmlns="http://www.w3.org/2000/svg"
 width="700.000000pt" height="700.000000pt" viewBox="0 0 700.000000 700.000000"
 preserveAspectRatio="xMidYMid meet">
<metadata>
Created by potrace 1.11, written by Peter Selinger 2001-2013
</metadata>
<g transform="translate(0.000000,700.000000) scale(0.100000,-0.100000)"
fill="#000000" stroke="none">
<path d="M6363 4192 c-50 -21 -96 -62 -134 -121 -26 -40 -29 -54 -29 -123 0
-92 24 -150 87 -209 51 -48 109 -69 191 -69 77 0 129 20 186 70 58 51 81 110
81 205 0 69 -4 86 -27 126 -32 54 -77 95 -133 120 -52 24 -164 24 -222 1z
m188 -24 c51 -15 114 -69 141 -122 30 -56 31 -155 1 -211 -61 -115 -199 -166
-313 -114 -51 23 -105 71 -127 113 -19 36 -25 129 -12 179 17 63 91 134 169
160 28 10 102 7 141 -5z"/>
<path d="M6439 4088 c-1 -2 -3 -23 -4 -48 -2 -25 -4 -48 -4 -52 -1 -4 -25 -8
-53 -10 l-53 -3 0 -35 0 -35 53 -3 c31 -2 52 -8 53 -15 1 -7 2 -30 3 -52 1
-39 2 -40 38 -43 l37 -3 3 53 3 53 55 5 55 5 0 35 0 35 -55 5 -55 5 -3 53 -3
52 -35 0 c-18 0 -35 -1 -35 -2z"/>
<path d="M2943 3832 l-103 -3 0 -374 0 -375 110 0 c83 0 110 3 109 13 -1 6 -1
82 0 168 1 142 3 158 21 179 25 29 82 32 108 7 15 -16 17 -40 17 -192 0 -133
3 -175 13 -175 6 -1 54 -1 105 -1 l92 -1 0 219 c0 248 -5 267 -81 311 -33 20
-50 22 -114 19 -62 -3 -83 -8 -115 -30 -21 -14 -42 -24 -46 -21 -5 3 -6 44 -4
92 3 48 2 105 -2 127 l-8 40 -102 -3z"/>
<path d="M4942 3460 l3 -382 93 1 c50 0 97 0 102 1 6 0 10 132 10 375 l0 375
-89 0 c-49 0 -97 3 -105 6 -15 6 -16 -30 -14 -376z"/>
<path d="M230 3455 l0 -375 45 0 45 0 0 155 c0 195 10 246 56 281 40 31 107
41 144 22 52 -27 60 -65 60 -270 l0 -188 48 0 47 0 -5 222 c-3 137 -10 233
-17 249 -40 90 -199 118 -284 50 -21 -17 -40 -31 -43 -31 -3 0 -6 59 -6 130
l0 130 -45 0 -45 0 0 -375z"/>
<path d="M5425 3777 l-100 -52 -3 -52 -3 -53 -35 0 -34 0 0 -74 c0 -78 10 -94
51 -81 18 6 19 -1 19 -109 0 -142 13 -208 50 -250 l28 -31 125 0 c69 0 128 3
132 6 3 4 2 35 -2 70 l-8 64 -53 3 -53 3 3 122 3 122 49 1 c55 2 69 15 61 58
-3 16 -5 44 -5 62 l0 34 -55 0 -55 0 0 105 c0 58 -3 105 -7 105 -5 -1 -53 -24
-108 -53z"/>
<path d="M5740 3455 l0 -375 108 0 107 0 2 166 c1 145 3 168 19 186 45 49 93
46 118 -7 12 -26 16 -68 16 -189 l0 -156 105 0 105 0 0 198 c0 231 -8 271 -64
317 -36 28 -43 30 -124 30 -78 0 -91 -3 -126 -27 -22 -15 -42 -25 -45 -23 -3
3 -6 58 -7 123 -1 64 -2 120 -3 125 -1 4 -48 7 -106 7 l-105 0 0 -375z"/>
<path d="M961 3631 c-56 -15 -114 -62 -141 -116 -22 -45 -25 -62 -25 -165 0
-100 3 -121 22 -156 96 -179 391 -158 459 33 18 53 18 199 -2 255 -18 54 -66
107 -120 133 -43 20 -143 28 -193 16z m168 -110 c44 -32 64 -75 68 -156 6 -93
-21 -149 -87 -183 -127 -66 -240 32 -228 198 6 79 36 131 92 156 43 20 116 12
155 -15z"/>
<path d="M1572 3625 c-19 -8 -47 -29 -64 -47 l-31 -33 4 43 5 42 -43 0 -43 0
0 -275 0 -275 45 0 45 0 0 158 c1 86 5 177 9 201 18 93 123 143 187 88 l29
-25 3 -211 3 -211 49 0 48 0 2 185 c0 102 4 195 9 208 15 39 57 69 103 74 37
4 49 1 76 -22 l32 -27 0 -209 0 -209 50 0 50 0 0 208 c-1 255 -10 293 -79 329
-80 42 -171 25 -229 -41 l-31 -35 -19 33 c-35 60 -134 84 -210 51z"/>
<path d="M2420 3631 c-126 -39 -187 -142 -178 -305 7 -128 62 -208 166 -242
134 -43 278 14 321 128 10 26 9 27 -35 34 -44 6 -47 5 -75 -29 -51 -63 -144
-74 -214 -26 -36 25 -65 75 -65 114 l0 25 200 0 200 0 0 43 c0 113 -67 221
-157 251 -49 17 -121 20 -163 7z m148 -101 c40 -18 72 -63 72 -100 0 -6 -54
-10 -150 -10 -166 0 -168 1 -127 61 44 66 124 86 205 49z"/>
<path d="M3720 3621 c-39 -12 -111 -51 -131 -69 -9 -10 -29 -41 -44 -70 -24
-49 -27 -62 -23 -147 3 -89 5 -95 42 -149 23 -34 56 -66 85 -83 44 -26 53 -27
181 -27 121 -1 140 1 180 22 25 12 54 30 66 40 27 23 58 71 51 79 -4 3 -49 10
-100 16 -90 9 -95 9 -125 -13 -46 -34 -103 -32 -137 4 -14 15 -25 36 -23 45 3
14 27 16 207 19 l204 2 -6 68 c-10 123 -64 207 -162 251 -35 16 -228 25 -265
12z m154 -141 c21 -8 56 -54 56 -75 0 -3 -41 -5 -90 -5 -100 0 -119 12 -84 52
33 36 73 46 118 28z"/>
<path d="M4360 3615 c-25 -8 -61 -30 -81 -49 -38 -37 -66 -105 -48 -117 6 -3
52 -9 102 -13 90 -7 91 -7 112 20 17 22 29 26 72 27 89 1 113 -42 36 -66 -42
-13 -77 -21 -193 -44 -58 -11 -121 -47 -136 -76 -33 -63 -12 -158 43 -194 81
-53 264 -40 328 23 14 14 16 13 26 -14 10 -31 11 -31 99 -34 116 -4 123 -2
108 25 -9 15 -15 90 -18 219 -6 223 -8 232 -91 278 -40 22 -57 25 -179 27 -97
2 -148 -1 -180 -12z m240 -332 c-1 -47 -33 -75 -100 -87 -39 -7 -80 14 -80 39
0 20 40 44 97 60 74 20 83 19 83 -12z"/>
</g>
</svg>
