<?xml version="1.0" standalone="no"?>
<!DOCTYPE svg PUBLIC "-//W3C//DTD SVG 20010904//EN"
 "http://www.w3.org/TR/2001/REC-SVG-20010904/DTD/svg10.dtd">
<svg version="1.0" xmlns="http://www.w3.org/2000/svg"
 width="1000.000000pt" height="1000.000000pt" viewBox="0 0 1000.000000 1000.000000"
 preserveAspectRatio="xMidYMid meet">
<metadata>
Created by potrace 1.11, written by Peter Selinger 2001-2013
</metadata>
<g transform="translate(0.000000,1000.000000) scale(0.100000,-0.100000)"
fill="#000000" stroke="none">
<path d="M7863 5692 c-54 -22 -117 -83 -143 -139 -28 -59 -28 -167 0 -226 26
-56 93 -120 148 -141 53 -20 161 -21 209 -1 57 24 116 78 143 131 21 39 25 62
25 128 0 70 -4 87 -27 127 -32 54 -77 95 -133 120 -52 24 -164 24 -222 1z
m188 -24 c51 -15 114 -70 141 -122 28 -53 30 -155 4 -206 -61 -118 -197 -170
-314 -120 -103 44 -160 139 -149 246 6 63 24 98 72 146 61 61 158 83 246 56z"/>
<path d="M7938 5573 c0 -10 -2 -29 -3 -43 -1 -14 -3 -31 -3 -37 -1 -9 -20 -13
-57 -13 l-55 0 0 -40 0 -40 55 0 c50 0 55 -2 61 -25 3 -14 4 -32 0 -40 -10
-28 5 -45 40 -45 33 0 33 0 36 53 l3 52 55 5 55 5 0 35 0 35 -57 3 -58 3 0 54
0 55 -35 0 c-26 0 -35 -4 -37 -17z"/>
<path d="M1730 4955 l0 -375 44 0 44 0 4 183 c4 196 10 223 59 260 34 24 106
32 139 15 52 -27 60 -65 60 -270 l0 -188 45 0 45 0 0 215 c0 242 -5 265 -63
309 -67 51 -200 43 -252 -14 -10 -11 -22 -20 -27 -20 -4 0 -8 59 -8 130 l0
130 -45 0 -45 0 0 -375z"/>
<path d="M4340 4955 l0 -375 108 0 108 0 1 128 c2 207 2 207 23 232 25 29 82
32 108 7 15 -15 17 -43 20 -192 l4 -175 105 0 104 0 -3 218 c-3 208 -4 219
-27 255 -50 81 -171 102 -275 48 -30 -17 -58 -26 -60 -22 -3 4 -5 55 -5 112 1
57 1 112 0 122 -1 15 -13 17 -106 17 l-105 0 0 -375z"/>
<path d="M6440 4955 l0 -375 105 0 105 0 0 375 0 375 -105 0 -105 0 0 -375z"/>
<path d="M6925 5277 l-100 -52 -3 -52 c-3 -53 -3 -53 -36 -53 -19 0 -36 -6
-38 -12 -6 -17 -2 -128 5 -134 2 -3 18 -6 33 -7 l29 -2 6 -140 c9 -229 27
-250 210 -250 65 0 120 3 124 6 3 4 2 35 -2 70 l-8 64 -35 1 c-76 3 -70 -9
-70 129 l0 125 54 0 c62 0 63 1 58 91 l-4 59 -54 0 -54 0 0 105 c0 58 -3 105
-7 105 -5 -1 -53 -24 -108 -53z"/>
<path d="M7240 4955 l0 -375 105 0 c115 0 110 -3 106 65 -1 17 1 84 4 150 8
139 22 169 79 169 65 0 71 -16 74 -211 l4 -173 104 0 104 0 0 196 c0 258 -10
293 -94 336 -57 29 -167 22 -221 -15 -21 -14 -42 -24 -47 -21 -4 3 -7 55 -7
117 1 62 0 118 0 125 -1 9 -29 12 -106 12 l-105 0 0 -375z"/>
<path d="M2447 5125 c-109 -42 -159 -127 -158 -270 1 -133 34 -203 118 -252
43 -25 58 -28 134 -28 78 0 90 3 135 30 30 19 60 49 78 79 27 43 31 59 34 146
6 145 -22 214 -110 271 -39 25 -60 31 -120 35 -49 3 -85 -1 -111 -11z m183
-105 c69 -49 92 -181 48 -270 -60 -119 -224 -117 -279 4 -34 74 -22 192 25
245 49 55 144 65 206 21z"/>
<path d="M3062 5119 c-24 -12 -49 -30 -55 -40 -18 -29 -27 -23 -27 16 0 34 -1
35 -40 35 l-40 0 0 -275 0 -275 45 0 45 0 0 155 c0 184 10 242 50 280 42 40
107 46 146 12 l29 -25 3 -211 3 -211 49 0 49 0 3 199 3 200 29 30 c48 50 124
54 166 9 19 -20 20 -35 20 -230 l0 -208 51 0 50 0 -3 223 c-4 258 -10 281 -82
317 -79 38 -167 21 -224 -44 l-31 -35 -19 33 c-38 65 -139 85 -220 45z"/>
<path d="M3920 5131 c-126 -39 -187 -142 -178 -305 10 -174 117 -269 287 -253
96 8 170 60 200 139 10 26 9 27 -35 34 -44 6 -47 5 -75 -29 -36 -43 -86 -62
-147 -53 -68 9 -132 77 -132 141 l0 25 200 0 200 0 0 43 c0 113 -67 221 -157
251 -49 17 -121 20 -163 7z m148 -101 c40 -18 72 -63 72 -100 0 -6 -54 -10
-150 -10 -166 0 -168 1 -127 61 44 66 124 86 205 49z"/>
<path d="M5225 5121 c-52 -14 -111 -49 -143 -86 -53 -59 -64 -98 -60 -202 4
-87 6 -95 41 -146 25 -36 54 -63 90 -83 50 -28 57 -29 182 -29 116 0 135 3
177 24 45 22 118 90 118 110 0 12 -29 18 -123 26 -72 7 -80 6 -102 -15 -17
-16 -36 -22 -71 -22 -40 -1 -51 3 -71 27 -13 15 -23 35 -21 44 3 14 28 16 207
19 l204 2 -7 71 c-7 82 -39 164 -76 196 -54 48 -109 66 -215 69 -55 2 -113 0
-130 -5z m183 -166 c41 -48 32 -55 -73 -55 -84 0 -95 2 -95 18 0 25 11 39 45
57 40 22 94 13 123 -20z"/>
<path d="M5867 5116 c-70 -19 -119 -66 -135 -129 -12 -44 -14 -42 114 -52 78
-6 82 -5 97 19 30 46 146 42 155 -6 3 -18 -46 -37 -153 -57 -117 -23 -169 -43
-202 -76 -29 -29 -33 -39 -33 -86 0 -70 26 -114 83 -139 80 -37 238 -19 294
33 l23 20 11 -31 11 -32 105 0 c97 0 104 1 92 17 -10 12 -15 67 -19 212 -6
226 -12 244 -86 287 -43 26 -56 28 -178 31 -89 2 -146 -1 -179 -11z m233 -335
c0 -59 -83 -103 -150 -79 -21 7 -30 17 -30 32 0 26 24 41 95 61 77 21 85 19
85 -14z"/>
</g>
</svg>
