<svg xmlns="http://www.w3.org/2000/svg" xmlns:xlink="http://www.w3.org/1999/xlink" viewBox="0 0 143.98 84.47"><defs><style>.cls-1{fill:none;}.cls-2{clip-path:url(#clip-path);}.cls-3,.cls-7{fill:#fff;}.cls-4{fill:#77f;}.cls-5{fill:#6363eb;}.cls-6{fill:#e1e1ff;}.cls-7{opacity:0.36;}.cls-8{fill:#372b7b;}</style><clipPath id="clip-path" transform="translate(0 -28.63)"><circle class="cls-1" cx="71.99" cy="64.5" r="64.5"/></clipPath></defs><title>Asset 3</title><g id="Layer_2" data-name="Layer 2"><g id="OBJECTS"><g class="cls-2"><path class="cls-3" d="M62.78,64.21c-.75-1.6-2.27-2.81-1.6-4.88.38-1.14,1.74-1.56,1.28-3-.55-1.82-3.39-2-4.08-3.78-.22-.53-.22-1.2-.66-1.57L57,50.44c-1.44.68-3.05,1.57-3.36,3.13a4.44,4.44,0,0,0,.12,1.88A20.22,20.22,0,0,0,54.89,59a4,4,0,0,0-1,5.33,7.6,7.6,0,0,0,3,2.18l2.16,1.12a5.76,5.76,0,0,0,1.85.69,2,2,0,0,0,1.8-.61A2.93,2.93,0,0,0,63.17,66,3.7,3.7,0,0,0,62.78,64.21Z" transform="translate(0 -28.63)"/><path class="cls-3" d="M74.22,42.69c-2.29,1.08-6.43,2.77-7.49,5.21-.93,2.14.19,5.57,2.64,6,2,.38,3.79-1.17,5.65-2a17.27,17.27,0,0,1,5.29-1.15L87.88,50a2.11,2.11,0,0,1,1,0c.74.29.9,1.23,1.23,1.95,1,2.21,3.87,2.59,6.21,3.26,6,1.71,10.27,6.92,15.38,10.53a4.25,4.25,0,0,0,1.69.83,4.65,4.65,0,0,0,1.53-.07,162.33,162.33,0,0,0,16.79-3.33C136.1,62,140.35,59.52,142,55a14.74,14.74,0,0,0-.29-10.3,11,11,0,0,0-3.3-4.8,10.78,10.78,0,0,0-8.63-1.69c-3.06.56-5.68,2.25-8.62,3s-5.93,1.44-8.94,2c-3.63.61-6.42,1.72-9.89.3-5.58-2.28-10.76-5.81-16.73-6.67a1.35,1.35,0,0,0-1.3.35c-3.67,2.83-7.38,6.09-11.8,7.67" transform="translate(0 -28.63)"/><path class="cls-3" d="M74.44,52.56a8.15,8.15,0,0,1-2,3.3c-1.09,1.08-2.47,1.84-3.49,3a6.72,6.72,0,0,0-1.61,5.32,1.82,1.82,0,0,0,.21.71,2.28,2.28,0,0,0,1,.79,82.93,82.93,0,0,0,8.88,4.1l-.51-.11a2.59,2.59,0,0,0,2-2.92,6.64,6.64,0,0,0-2.09-3l-2.13-2.08a5.27,5.27,0,0,0,2.68-1.61,1,1,0,0,0,.29-.51,1.16,1.16,0,0,0-.15-.62q-1.17-2.52-2.33-5Z" transform="translate(0 -28.63)"/><path class="cls-3" d="M73.23,68.91a4.44,4.44,0,0,0,.82,5,13,13,0,0,0,4.49,2.93,2.26,2.26,0,0,0,2.09.23c.66-.41.69-1.36.54-2.13a15.13,15.13,0,0,0-1.3-3.55c-.45-1-1.1-2-2.16-2.13s-2,.66-2.73.08Z" transform="translate(0 -28.63)"/><path class="cls-3" d="M76.44,64.21c-.73-1.06,0-2.6,1-3.3a9.83,9.83,0,0,1,3.68-1,18.1,18.1,0,0,0,6-2.28c1-.59,4.05-4,4.67-3.88a4.49,4.49,0,0,1,1.34.93c1.61,1.21,3.88.71,5.83,1.23a8.81,8.81,0,0,1,2.56,1.42c7.34,5.14,13.42,11.81,19.42,18.41l4.87,5.36c2.26,2.48,4.49,5.19,3.46,8.64-1.43,4.79-5,8.63-8.76,11.91-6.44,5.58-13.56,9.81-22.08,10.48-2.14.17-4.58.17-6.09-1.36a7.75,7.75,0,0,1-1.3-2.11,113.76,113.76,0,0,1-5.89-13.85c-1-3.13-1.76-6.34-2.75-9.48a61.9,61.9,0,0,0-5.75-12.81Z" transform="translate(0 -28.63)"/><path class="cls-4" d="M74,51.92c.91,2.37,1.92,4.71,3,7,.4.83.91,1.74,1.81,2a3.75,3.75,0,0,0,2.42-.66c1.72-.86,3.62-1.29,5.41-2A7.87,7.87,0,0,0,91,54.63a1.65,1.65,0,0,0,.21-1,2,2,0,0,0-.35-.76l-1.29-2.05a1.62,1.62,0,0,0-.34-.43,1.52,1.52,0,0,0-.69-.22,16.87,16.87,0,0,0-7.91.8Z" transform="translate(0 -28.63)"/><path class="cls-4" d="M53.23,37.65,48.36,39.4a1.51,1.51,0,0,0-.91.61,1.58,1.58,0,0,0,0,1.17l1.08,3.58a19.66,19.66,0,0,0,5.83.33,2.11,2.11,0,0,0,2.46,1.75,28.25,28.25,0,0,0,1.37,5,2.93,2.93,0,0,0,.78,1.3,4.68,4.68,0,0,0,1.24.58,3.6,3.6,0,0,1,2.28,3,2.59,2.59,0,0,1-2.3,2.7,27.6,27.6,0,0,1,3.22,8.29l1.08,4c.26,1,.88,2.25,1.91,2.07s1.18-1.28,1.25-2.19a41.32,41.32,0,0,0-1.19-13.06c-.34-1.31-.73-2.72-.2-4,.16-.37.4-.71.54-1.09.46-1.24-.19-2.61-.11-3.92A4.94,4.94,0,0,1,69.09,46a21.43,21.43,0,0,1,4.07-1.87A30,30,0,0,0,84.93,35.5c1.65-2,3.1-4.3,3.24-6.87-2.68.82-5.55.6-8.36.59a56.7,56.7,0,0,0-26.95,6.69Z" transform="translate(0 -28.63)"/><path class="cls-5" d="M74.35,52.28c.28.66.55,1.33.82,2a2.27,2.27,0,0,0,1,1.28,2.07,2.07,0,0,0,1,.1,16.17,16.17,0,0,1,4.61.09,4.33,4.33,0,0,1,3.34,2.87.59.59,0,0,0,.18.36c.15.1.35,0,.51-.07a37.1,37.1,0,0,0,4.46-2.75A3.41,3.41,0,0,0,92,53.69a3.49,3.49,0,0,0-.6-1.71l-.81-1.45a1.73,1.73,0,0,0-.8-.88,1.77,1.77,0,0,0-.61-.08c-4.09,0-8.3,0-12.12,1.43Z" transform="translate(0 -28.63)"/><path class="cls-5" d="M66.14,74a28.81,28.81,0,0,0-2.31-13.37A33.84,33.84,0,0,1,62,56.11c-.42-1.54-.48-3.15-.9-4.67a5.26,5.26,0,0,0-2.78-3.65c-.77-.31-1.75-.43-2.1-1.18a49.1,49.1,0,0,0,12.16-.82A8.2,8.2,0,0,0,66.14,48a2.82,2.82,0,0,0-.1,3c.58.83,1.54,1.22,2.1,2.08-3.21.92-2.57,6.19-2.15,8.62.7,4,1.76,7.91.94,12Z" transform="translate(0 -28.63)"/><path class="cls-5" d="M48.38,42.35l3.82-.93a4.66,4.66,0,0,0,2.08-.88,1.61,1.61,0,0,0,.39-2L57.12,38a9.52,9.52,0,0,1,2.39,5.28c-.27-2.41,3.69-6.5,5.58-7.45A58.94,58.94,0,0,1,75.81,32a23.66,23.66,0,0,1,11-.55c-.11,1.94-2.56,3.62-3.72,5.07a25.84,25.84,0,0,1-5.6,5.4c-5.88,4-13.43,4.55-20.57,4.55a3,3,0,0,1-1.49-.26c-.35-.19-.61-.53-1-.75A3.71,3.71,0,0,0,53,45l-4.53-.84Z" transform="translate(0 -28.63)"/><path class="cls-6" d="M83.36,36.9c.78,1.42,2.77,2.05,3.08,3.63a2.63,2.63,0,0,1-.92,2.34,6.21,6.21,0,0,1-2.33,1.19c-4,1.27-8.17,1.38-12.32,1.42C73,44.6,75,43.66,77,42.68c2.22-1.08,4.62-2.48,5.29-4.85Z" transform="translate(0 -28.63)"/><path class="cls-6" d="M67.68,53.66a3.17,3.17,0,0,0,3.53-2.56c.17-1.13-.07-2.69,1-3.06a2.4,2.4,0,0,1,1.16,0c6.91,1.24,13.78-4,20.67-2.69,5.11,1,9,5.35,14.14,6.38a20.38,20.38,0,0,0,7.42-.22,131.5,131.5,0,0,0,19.9-5,5.24,5.24,0,0,1,2.77-.4c1.59.37,2.43,2.08,3,3.61A64,64,0,0,1,144,59.43a172.58,172.58,0,0,1-31.67,7.14c-.82.17-5.77-5.17-6.64-5.9-2-1.67-4-2.91-5.59-5a1.64,1.64,0,0,0-.46-.45,1.69,1.69,0,0,0-.84-.12,24.14,24.14,0,0,1-4.15-.29A7,7,0,0,1,91,53.46a4.18,4.18,0,0,1-1.32-3.84c-4.2.6-8.39,1.17-12.61,1.65a8.42,8.42,0,0,0-4.21,1.28c-1.2.91-2.48,2.59-3.81,1.85Z" transform="translate(0 -28.63)"/><path class="cls-6" d="M74.14,54.32c-.35,2-2.06,3.34-3.16,5a2.72,2.72,0,0,0-.47,1,2.21,2.21,0,0,0,.69,1.88A5.6,5.6,0,0,0,73,63.33a4.9,4.9,0,0,1,1.37.79,1.44,1.44,0,0,1,.47,1.44c-.28.82-1.36,1-2.23,1H71.09A8.5,8.5,0,0,0,74.88,69a3,3,0,0,0,2.92-.29,2.29,2.29,0,0,0,.65-1.14,4.06,4.06,0,0,0-1-3.72,6.11,6.11,0,0,0-3.53-1.78,6.1,6.1,0,0,1,2.54-1.77c.5-.19,1.12-.4,1.21-.93a1.28,1.28,0,0,0-.14-.69,37.46,37.46,0,0,0-3.23-6.38Z" transform="translate(0 -28.63)"/><path class="cls-6" d="M73.45,72a5.11,5.11,0,0,0,2.76,3.22.57.57,0,0,0,.52,0,.44.44,0,0,0,.19-.3,3.27,3.27,0,0,0-.83-2.75,5.06,5.06,0,0,1-1.3-2.65h1.82a.93.93,0,0,1,.55.09,1,1,0,0,1,.3.28,20.27,20.27,0,0,1,2.18,3.3,5.12,5.12,0,0,1,.73,2.22,2.07,2.07,0,0,1-1.08,2,1.32,1.32,0,0,1-1.82-.9Z" transform="translate(0 -28.63)"/><path class="cls-6" d="M54.27,55.26a1.61,1.61,0,0,0,.85,1.51,3.15,3.15,0,0,0,1.77.33A2.8,2.8,0,0,0,59,56.17a1.36,1.36,0,0,0-.44-2c0-.37.55-.33.87-.14a7.88,7.88,0,0,1,2,1.59,2.32,2.32,0,0,1-1.2,3.93,7.86,7.86,0,0,1-2.42.21c-.68,0-1.58-.23-1.6-.91Z" transform="translate(0 -28.63)"/><path class="cls-6" d="M54.49,59.53c-.84.78-.33,2.27.59,2.95a22.66,22.66,0,0,0,3.12,1.44c1,.55,1.89,1.72,1.47,2.78-.18.44-.57.86-.45,1.32a2.12,2.12,0,0,0,2.24-.18A6,6,0,0,0,63,66.08a1.75,1.75,0,0,0,.42-1,1.62,1.62,0,0,0-.38-.88,16.57,16.57,0,0,0-5.41-4.16L57,59.7l-2.4-1.37Z" transform="translate(0 -28.63)"/><path class="cls-6" d="M85.1,58.81l2.3,2.56C90.35,64.66,93.3,68,96,71.46a82.39,82.39,0,0,1,11.56,20.89c1.69,4.51,2.93,9.79.54,14-.88,1.54-2.21,2.82-2.93,4.44,6.94-1.8,12.38-7.05,17.47-12.09a23.38,23.38,0,0,0,5.1-6.39A2.71,2.71,0,0,0,128,91a2.93,2.93,0,0,0-1-1.67c-8.2-9-16.45-18-23.71-27.77a9.39,9.39,0,0,1-1.55-2.71,9.32,9.32,0,0,0-.46-1.56c-.78-1.62-2.93-1.89-4.73-2s-4-.38-4.69-2a11.93,11.93,0,0,1-5.5,4.82Z" transform="translate(0 -28.63)"/><path class="cls-6" d="M83,60.08a4,4,0,0,0-1.44,3.78,12.19,12.19,0,0,0,1.46,4,303.93,303.93,0,0,1,15.15,35.49c1.17,3.31,2.7,7.08,6.05,8.17l-8.3-.12a2.47,2.47,0,0,1-1.29-.25,2.13,2.13,0,0,1-.76-1c-1-2.19-1.26-4.64-1.76-7a67.46,67.46,0,0,0-3-9.39q-3.72-9.92-7.43-19.82a5.21,5.21,0,0,0-1-1.89c-.49-.49-1.19-.8-1.52-1.41a3.47,3.47,0,0,1-.28-1.51,9.28,9.28,0,0,0-1.46-4.35A7.06,7.06,0,0,1,76,62.28c-.17-.92.44-2.05,1.37-2a6.29,6.29,0,0,0,.87.13c.29,0,.59-.32.46-.58s-.63.11-.37.24Z" transform="translate(0 -28.63)"/><path class="cls-7" d="M45,40.68c-13.9,2.69-28.54-.27-42.26,3.2C-.71,52.65-1.44,63.17,3.74,71c1.38,2.09,3.14,4,4.19,6.22L44.71,50.49A15.12,15.12,0,0,0,48.49,47a5.11,5.11,0,0,0,.69-4.9,3.15,3.15,0,0,0-4.31-1.49Z" transform="translate(0 -28.63)"/><path class="cls-8" d="M135.46,60.93a97.64,97.64,0,0,1-11.7,3.38c-2,.41-4,.73-6,1-1.11.16-2.22.29-3.33.4a8.88,8.88,0,0,0-1.56.22,56.92,56.92,0,0,0-12.19-9.56,1.8,1.8,0,0,0,.94-.5.39.39,0,0,0-.18-.65,3.65,3.65,0,0,0-1.61,0,10.89,10.89,0,0,1-1.51,0,10.43,10.43,0,0,1-3.08-.63,9.16,9.16,0,0,1-4.3-3.48A.52.52,0,0,0,91,51c-.37-1.67-2.11-2-3.57-1.79-2.26.27-4.51.68-6.76,1s-4.55.4-6.53,1.26c-1.6.69-3.22,2.55-5.09,2.2s-2.65-2.84-2-4.51c.76-1.95,2.66-3.16,4.49-3.95s4-1.38,5.8-2.39A25.66,25.66,0,0,0,82,39.44a.27.27,0,0,0,.08-.24l.19-.16c.41-.39.78-.81,1.15-1.23l1.19-1.39c3.12,1.4,6.46,2.37,9.63,3.66a79,79,0,0,1,10.17,5,.48.48,0,0,0,.56,0,6.49,6.49,0,0,0,3.16-.08c1.63-.25,3.25-.57,4.88-.88s3.12-.6,4.66-1a18.25,18.25,0,0,0,4.48-1.41c.36-.21.23-.9-.23-.84a35,35,0,0,0-4.23,1.09q-2.15.51-4.32.9c-1.51.28-3,.53-4.54.85-.73.16-1.46.36-2.2.46-.53.08-1.12,0-1.65,0l0,0A80.91,80.91,0,0,0,95,39.31,52,52,0,0,0,85,36c.27-.32.54-.65.8-1a12.67,12.67,0,0,0,1.74-2.83A6.52,6.52,0,0,0,88,30.57a3.3,3.3,0,0,0,0-1.29A.33.33,0,0,0,87.8,29a.52.52,0,0,0-.72-.14,53.76,53.76,0,0,0-9.15.1,90.39,90.39,0,0,0-9.28,1.13,78.33,78.33,0,0,0-9,2.09,17.3,17.3,0,0,0-6.88,3.6.19.19,0,0,0-.24.2,12.81,12.81,0,0,0,.08,1.39,6.59,6.59,0,0,0-1.31.47c-.53.22-1.06.46-1.58.7s-1.1.52-1.63.8a1.31,1.31,0,0,0-.81,1.14,8.67,8.67,0,0,0,.35,1.65c.15.61.29,1.22.44,1.83a1.33,1.33,0,0,0,1,1.13h0c-7.71,6.88-15.69,13.42-23.64,20-.1.08,0,.24.13.17,8.35-6.12,16.29-12.82,24.07-19.64a.32.32,0,0,0,.09-.41l1,.14a15.25,15.25,0,0,0,2,.05,7.31,7.31,0,0,0,1.66-.17c.08.32.16.64.26,1A1.43,1.43,0,0,0,56,47.3a16.91,16.91,0,0,1,1,2.69c-1.31.89-2.84,1.71-3.45,3.26A5.18,5.18,0,0,0,54.24,58a5.07,5.07,0,0,0-1.37,4.55,5,5,0,0,0,1.06,2.34,7.1,7.1,0,0,0,2.47,1.72c.49.23,1,.45,1.44.72s.87.61,1.32.9a2.63,2.63,0,0,0,2.67.31,3,3,0,0,0,1-.73,26.4,26.4,0,0,0,.93,3.2,8.2,8.2,0,0,0,1.06,2.83,1.59,1.59,0,0,0,2.13.39,2.85,2.85,0,0,0,1-2.59c0-2.07-.07-4.16-.22-6.24a1.51,1.51,0,0,0,.1.17,5,5,0,0,0,1.32,1c.63.4,1.27.79,1.91,1.17s1,.57,1.51.84a2.11,2.11,0,0,1,0,.26c0,.43-.06.86-.09,1.28a5.26,5.26,0,0,0,.39,2.39,8.68,8.68,0,0,0,3.29,3.78,6.89,6.89,0,0,0,3.53,1.49c2,6.68,4.18,13.29,6.32,19.92,1,3,1.82,6.15,3.09,9.06,1,2.4,2.66,4.73,5.18,5.71s5.64.59,8.27,0a35.72,35.72,0,0,0,8.53-3.47A50.75,50.75,0,0,0,125,97.9c3.4-3.87,7-9.55,3.44-14.27a.64.64,0,0,0-.09-.21c-.93-1.32-2.13-2.49-3.18-3.72L122,76c-2.17-2.55-4.37-5.08-6.66-7.51-.56-.6-1.13-1.2-1.71-1.78.35,0,.71,0,1.07,0,1.08-.06,2.17-.14,3.25-.25,1.92-.19,3.83-.5,5.73-.87A64.4,64.4,0,0,0,135.74,62C136.35,61.7,136.12,60.71,135.46,60.93ZM93.9,55.46a4.22,4.22,0,0,0-1.11.92c-.57.54-1.18,1-1.81,1.54a24.79,24.79,0,0,1-4.37,2.69,18.88,18.88,0,0,1-4.75,1.55,15,15,0,0,1-2.41.23,5,5,0,0,1-1.34-.08,1.56,1.56,0,0,1-1-.74.31.31,0,0,0,0-.31l.14-.06.44-.21a.55.55,0,0,0,.17-.13.54.54,0,0,0,.48-.21,6.62,6.62,0,0,0,1,.18,9.48,9.48,0,0,0,2.32,0,13.54,13.54,0,0,0,4.49-1.51A19.71,19.71,0,0,0,90,56.85c.72-.62,1.91-1.78,1.91-2.87A9.15,9.15,0,0,0,93.9,55.46Zm-17.74,7c-.25-.13-.5-.25-.76-.36l.24-.11.58-.28a1.38,1.38,0,0,0-.09.53A1.66,1.66,0,0,0,76.16,62.45Zm6.93-11.37,3.34-.5a4.73,4.73,0,0,1,2.84.06c0,.13,0,.26.06.39a4.31,4.31,0,0,0,.22.49l.41.86c.13.28.27.57.4.86s.2.42.31.62c-.14.25-.25.51-.41.75A6.71,6.71,0,0,1,89,56a18.68,18.68,0,0,1-3.42,2.21,15.93,15.93,0,0,1-3.89,1.48,8.27,8.27,0,0,1-2.11.22c-.36,0-.83-.11-1.24-.1-.59-1.28-1.15-2.57-1.72-3.86-.29-.67-.57-1.35-.9-2-.24-.46-.47-1-.75-1.43a7.07,7.07,0,0,1,1.52-.44C78.68,51.7,80.89,51.41,83.09,51.08Zm3.71-21.5c0,.31,0,.62,0,.92A5.47,5.47,0,0,1,86.36,32a13,13,0,0,1-1.63,2.64c-.65.86-1.29,1.73-1.93,2.59s-1.12,1.39-1.67,2.09a38,38,0,0,1-8.9,4.38,18.08,18.08,0,0,0-2.26,1c-3.32.3-6.59.9-9.91,1.21a20.87,20.87,0,0,0-.57-2.46c1.19-4,4.63-7.33,8.19-9.38a31.56,31.56,0,0,1,6.68-2.79c2-.61,4.18-1,6.24-1.62C82.66,29.6,84.73,29.64,86.8,29.58ZM57.28,46.08c-.06-.21-.13-.42-.19-.62-.13-.49-.27-1-.41-1.48-.29-1-.57-2-.9-3s-.65-2-1-2.92c-.16-.44-.3-.89-.49-1.33a3,3,0,0,0-.46-.86,15.19,15.19,0,0,1,1.89-1.16c.59,2,1.27,4,1.95,6A40.9,40.9,0,0,1,59.22,46L58.06,46Zm3.43-13.31a79.94,79.94,0,0,1,8.64-2q3.59-.63,7.22-.94c-.95.25-1.89.52-2.81.8a31.44,31.44,0,0,0-7.07,3.06,20.24,20.24,0,0,0-5,4.27,12.11,12.11,0,0,0-2.5,4.34c-.2-.65-.42-1.29-.63-1.93-.69-2-1.38-4.06-2.16-6A27.94,27.94,0,0,1,60.71,32.77ZM53.59,44.13q-.47.06-.93.09a14.25,14.25,0,0,1-2,0c-.31,0-.62-.06-.92-.11l-.29,0a6.45,6.45,0,0,0-.15-1.75,5.34,5.34,0,0,0-1-2,2.43,2.43,0,0,1,.61-.37l.83-.44q.82-.44,1.68-.84c.4-.19.87-.35,1.28-.59a43.7,43.7,0,0,0,1.07,4.63c.12.45.23.91.34,1.36Zm1.15-2.08a43,43,0,0,1-1.66-5.68.2.2,0,0,0,.09,0l.28-.21c0,.18.07.36.1.54a14.77,14.77,0,0,0,.38,1.49c.3,1,.57,2,.86,3.06s.59,2,.88,2.94l.42,1.48c0,.12.07.24.1.36-.34-.15-.39-.48-.54-1C55.35,44,55,43,54.74,42.05Zm-.18,11.67c.43-1.22,1.71-1.91,2.76-2.59a9.63,9.63,0,0,0,.53,1.24,7.45,7.45,0,0,0,.43.71,11.74,11.74,0,0,0-1.67.13c-.45.07-.34.81.11.8,1.64,0,3.63.16,4.73,1.52a2.06,2.06,0,0,1-.94,3.41,14.26,14.26,0,0,1-2.69.18,3.08,3.08,0,0,1-1.21,0c-.33-.14-.64-.7-.86-1C54.79,56.87,54,55.32,54.56,53.72Zm6,6.4c.1.35.22.69.34,1,.06.16.12.32.17.48a16.51,16.51,0,0,0-2.45-1.33A10.45,10.45,0,0,0,60.58,60.12Zm1.27,7.12a1.58,1.58,0,0,1-2.09.08A23,23,0,0,0,57.61,66c-1.42-.71-2.93-1.35-3.47-3a4.14,4.14,0,0,1,.75-4,5.13,5.13,0,0,0,1,1.13,2.18,2.18,0,0,0,1.37.27c1.32,1,2.92,1.54,4.09,2.71S63.2,66,61.85,67.24Zm3.74,6.1c-.4-.25-.54-1.07-.67-1.49L64.37,70a14.15,14.15,0,0,0-1.06-3,3.76,3.76,0,0,0-.21-3.28A5.56,5.56,0,0,0,62,62.35s0-.06,0-.1c-.1-.44-.21-.88-.32-1.32s-.17-.71-.28-1.07a3.18,3.18,0,0,0,1.42-4.29,4.45,4.45,0,0,0-2.38-2.12,4.74,4.74,0,0,0-1.26-.31c-.08-.14-.18-.26-.26-.39a8,8,0,0,1-.43-.82A13.59,13.59,0,0,1,58,50.18a20.75,20.75,0,0,0-.87-2.84,52,52,0,0,0,6.12-.48c1.5-.19,3-.39,4.48-.65a6.66,6.66,0,0,0-1.82,2.62,5,5,0,0,0,.7,4.61c-1.27,1.06-1.26,2.84-1,4.41a72,72,0,0,1,1.1,7.87c.09,1.24.15,2.49.19,3.75C66.92,70.13,67.32,74.46,65.59,73.34Zm3.75-8.14c-.75-.51-.75-1.16-.78-2a6,6,0,0,1,.72-3.62c1.23-1.88,3.65-2.67,4.69-4.68.17-.33-.2-.82-.56-.56-.88.65-1.73,1.35-2.6,2a12.16,12.16,0,0,0-2.4,2.24,5.77,5.77,0,0,0-1.12,3c-.15-1.09-.33-2.18-.56-3.25-.3-1.38-.75-3.25.51-4.24a3.66,3.66,0,0,0,1.08.6,4.43,4.43,0,0,0,3.54-.55c.91-.5,1.71-1,2.57-1.42.08.18.16.36.22.54.14.37.27.74.41,1.1.27.68.56,1.35.83,2,.48,1.18,1,2.36,1.45,3.53a4,4,0,0,0-.57.32l-.79.47-.79.47a1.28,1.28,0,0,0-.45.35l-.14.2-1.11-.38c-.22-.06-.37.28-.16.37A10.69,10.69,0,0,1,76.86,64a3.53,3.53,0,0,1,.75,3.85,3.57,3.57,0,0,1-.45,1.06l0,.08c-.15,0-.31-.07-.46-.12a13.65,13.65,0,0,1-1.74-.58,26,26,0,0,1-3.8-2C70.51,66,69.92,65.59,69.34,65.2ZM76.62,75a7.19,7.19,0,0,1-2.81-3,6,6,0,0,1-.37-2.37c0-.17,0-.37,0-.58.38.18.75.36,1.14.52.75.29,2.23,1,3.11.63a1.34,1.34,0,0,0,.11.14c.24.29.47.6.68.91a17.88,17.88,0,0,1,1.17,1.92c.33.65,1.52,2.69.46,3.21a2,2,0,0,1-1.6-.24A15.31,15.31,0,0,1,76.62,75ZM121,76.59l3.19,3.78c1,1.14,1.93,2.41,3,3.46,3.77,4.46-.19,10-3.34,13.54a49.9,49.9,0,0,1-12.33,10,39.91,39.91,0,0,1-7.85,3.56c-2.59.8-5.74,1.46-8.42.7-2.84-.8-4.5-3.38-5.57-6s-1.88-5.46-2.78-8.19c-2.18-6.59-4.29-13.21-6.65-19.75l.26-.06c1.77-.7,1.37-2.77.78-4.14a16.62,16.62,0,0,0-1.39-2.6c-.27-.42-.56-.82-.87-1.22a3.52,3.52,0,0,0-.57-.63l.23-.6a5.06,5.06,0,0,0,.38-1.92,4.17,4.17,0,0,0-1.81-3.37.36.36,0,0,0,0-.27,3.38,3.38,0,0,0,1.12.34,13.78,13.78,0,0,0,6.1-.75,23.49,23.49,0,0,0,5.88-3,26.73,26.73,0,0,0,2.39-1.85c.55-.47,1.59-1.17,1.69-1.95l.21.1a9.74,9.74,0,0,0,3.49.78,11.4,11.4,0,0,0,1.65-.08,84.71,84.71,0,0,1,14.84,12.81C116.85,71.71,118.94,74.14,121,76.59Z" transform="translate(0 -28.63)"/><path class="cls-8" d="M37.31,41.25a59.75,59.75,0,0,0,7-.35c.22,0,.14-.34-.05-.37a61,61,0,0,0-7.4.11c-2.47.06-4.93.11-7.39.21a121.83,121.83,0,0,0-14.31,1V42c4.89.26,9.9-.17,14.79-.37C32.38,41.51,34.85,41.36,37.31,41.25Z" transform="translate(0 -28.63)"/></g></g></g></svg>