<svg xmlns="http://www.w3.org/2000/svg" xmlns:xlink="http://www.w3.org/1999/xlink" viewBox="0 0 94.06 123.53"><defs><style>.cls-1{fill:none;}.cls-2{clip-path:url(#clip-path);}.cls-3{fill:#fff;}.cls-4{fill:#e1e1ff;}.cls-5{fill:#b7b7ff;}.cls-6{fill:#77f;}.cls-7{fill:#6363eb;}.cls-8{fill:#372b7b;}</style><clipPath id="clip-path" transform="translate(-18.91 -13.96)"><circle class="cls-1" cx="64.5" cy="64.5" r="64.5"/></clipPath></defs><title>Asset 6</title><g id="Layer_2" data-name="Layer 2"><g id="OBJECTS"><g class="cls-2"><path class="cls-3" d="M54.39,48.26c-.51-2-3.29-2.7-5-1.62a6.27,6.27,0,0,0-1.44,8c1.14,1.76,3.42,2.43,5.52,2.41q.84,12.41.76,24.84a12.88,12.88,0,0,0,13,2.32,6.74,6.74,0,0,0,3.15-2.27c1.81-2.6-.23-8.11,2.79-9.54,1.28-.6,3.36-.12,4.77-.47a8.53,8.53,0,0,0,5-3.16c4.43-6.21,3.6-15.1,3.44-22.22a74.25,74.25,0,0,1,.46-10.22c.34-2.94.79-6.15-.79-8.64-2-3.16-6.29-3.74-10-3.94-6.17-.34-12.94-.34-17.76,3.53a13.37,13.37,0,0,0-4.89,10.86c0,1,.16,2.13-.55,2.82Z" transform="translate(-18.91 -13.96)"/><path class="cls-4" d="M63.76,32.14c5.11,3.49,11.1,7,17.11,5.55Q80,46.47,79.18,55.23C73.74,55,68.06,54.75,63.1,57a2.36,2.36,0,0,0-1.23,1,2.55,2.55,0,0,0-.14,1.37q.5,5.68,1.34,11.34a28.46,28.46,0,0,1-5.53-.36,9.32,9.32,0,0,0,5.26,4.31,2.17,2.17,0,0,1,1.29.75,1.87,1.87,0,0,1,.13,1.15l-.9,8.86c2.8,1.16,6.1-1,7.32-3.72s.93-6,.62-9c3-.19,6.14-.55,8.74-2.11,3.19-1.91,3.45-3.51,4.34-7.12s2.51-9.28,2.42-13Q86.49,39,86.21,27.56l-1.65.21Z" transform="translate(-18.91 -13.96)"/><path class="cls-5" d="M64.61,72c-.75-.19-.68-4.7-.35-5.36,1.26-2.55,4.69-1.06,7-1.4a7.1,7.1,0,0,0,3.69-1.47,7.71,7.71,0,0,0,1.94-2.94,19.85,19.85,0,0,0,1.4-5.3,7.11,7.11,0,0,0,4,.91,3.66,3.66,0,0,1,2,.14c1,.49,1.07,1.78,1,2.86a20,20,0,0,1-.79,5.92,11.1,11.1,0,0,1-8.25,7.2c-2.92.56-5.92-.09-8.88.12Z" transform="translate(-18.91 -13.96)"/><path class="cls-6" d="M18.91,118.25c2.22-8.61,4.76-17.78,11.47-23.61,7-6,17.29-7.43,23.61-14.15a10.55,10.55,0,0,0,9.79,5.15c4-.33,7.15-3,8.83-6.58,2.57,3.51,7,4.13,11,5a21.47,21.47,0,0,1,11,7c6.53,7.39,7.24,17.14,13.34,24.78a44.41,44.41,0,0,1,4.66,6.13,1.91,1.91,0,0,1,.3,1.36,2,2,0,0,1-.71.88c-3.64,2.94-8.21,4.42-12.68,5.82-15.48,4.83-32,9.33-47.69,5.23-6.93-1.81-13.32-5.22-19.64-8.6Z" transform="translate(-18.91 -13.96)"/><path class="cls-7" d="M27.38,128.4q2.63-6.95,5.26-13.9a20.89,20.89,0,0,1,3.18-6.17,1.53,1.53,0,0,1,1.06-.67c.62,0,1,.65,1.25,1.22a56.61,56.61,0,0,1,4.09,17.74c.18,2.31.16,4.91-1.47,6.55-1.37,1.38-3.5,1.65-5.44,1.5a40.33,40.33,0,0,0-5.79-.53Z" transform="translate(-18.91 -13.96)"/><path class="cls-7" d="M64.7,85.42c.34,3.1,4.32,4.27,6,6.87A9.85,9.85,0,0,1,72,96.62c1.47,11.24.59,22.65,1.14,34a13.84,13.84,0,0,0,1.4,6.34c4.14,1.13,8.57.42,12.67-.85s8-3.09,12.16-4.23c.8-.22,1.74-.54,2-1.34a2.5,2.5,0,0,0-.29-1.59C99,123.75,98.85,118,98.26,112.49S96.47,101.13,92.74,97c-3-3.33-7.25-5.18-11.24-7.21s-8.06-4.56-10-8.58a6.85,6.85,0,0,1-5.52,4.17Z" transform="translate(-18.91 -13.96)"/><path class="cls-8" d="M47.18,37.73a24.32,24.32,0,0,0,1.26,4.66c.29.74.61,1.46,1,2.17.25.49,1,1.3.84,1.89-1.81-.1-3.11,2.79-3.32,4.21a6.33,6.33,0,0,0,2.31,5.91,4.37,4.37,0,0,0,2.27.83,21.85,21.85,0,0,1,2.09,9.44c0,1.42-.06,2.84-.05,4.27,0,1.68.05,3.36.13,5a16.56,16.56,0,0,1,.22,2.91c-.15,1.16-1.09,1.66-1.95,2.32a2.91,2.91,0,0,0-.33.26,3.92,3.92,0,0,0-.25.32.36.36,0,0,0,0,.46.36.36,0,0,0,.46.09l.32-.18a1.39,1.39,0,0,0,.32-.27l.54-.52.75-.74a10.55,10.55,0,0,0,9.79,5.76,10.92,10.92,0,0,0,9.32-6.69c.26-.61-.81-1.06-1.07-.45-.07.17-.17.33-.25.5a20.65,20.65,0,0,0-.06-3.77c0-1-.13-1.93-.24-2.88,3.4,0,6.85-.38,9.7-2.4s4.33-5.38,4.92-8.8a55.66,55.66,0,0,0,.63-7.19c.06-1.8.1-3.6.19-5.41.07-1.41.13-2.82.17-4.23a10,10,0,0,1,0-1.9c.12-.51.6-.86.84-1.31a7.55,7.55,0,0,0,.52-1.93c.18-.82.31-1.66.41-2.49a17,17,0,0,0,.17-2.46,3.92,3.92,0,0,0-.48-2.52A3.84,3.84,0,0,0,89.75,31a10.68,10.68,0,0,0,.59-4.63A7.86,7.86,0,0,0,90,24.28a13.08,13.08,0,0,0-5.76-7.81l-.44-.25-.1-.06q-.45-.25-.9-.48l-.07,0,0,0c-5.15-2.46-11.4-1.85-16.75-.33-4.86,1.38-9.81,4.36-11.56,9.09-.06.11-.13.22-.18.33l-.66.05a8.4,8.4,0,0,0-7.16,5.43c-.78,2.19-.26,4.58.51,6.69C47,37.16,47.07,37.45,47.18,37.73Zm38.52,8.4c-.15,3.52-.3,7-.51,10.55-1.76-.38-3.37-1.26-5.09-1.77a18.55,18.55,0,0,0-6.42-.66,29.66,29.66,0,0,0-6.26,1.17c-1.08.3-2.15.65-3.21,1a6.46,6.46,0,0,0-2.37,1q-2-2.51-3.92-5.08c-.68-.93-1.35-1.87-2-2.81l-.66-1a.38.38,0,0,0,0-.19,62.41,62.41,0,0,0-.52-11.83A6.92,6.92,0,0,0,58.43,35a6.74,6.74,0,0,0,1.43-1.67,4,4,0,0,0,.43-1,25.58,25.58,0,0,0,5.38,1.7,47.83,47.83,0,0,0,9.32,1c3.06.07,6.52.41,9.49-.45a6.9,6.9,0,0,0,1.15-.46A99.61,99.61,0,0,1,85.7,46.13Zm.65-12.35h0ZM48,50.8a4,4,0,0,1,2.63-3.37,3.33,3.33,0,0,1,3.13.67c.1.19.24.37.37.58l1,1.49c.68,1,1.38,2,2.08,3C58.56,55.12,60,57,61.55,58.83a.44.44,0,0,0,.22.15,32.42,32.42,0,0,0,0,6.75,25.84,25.84,0,0,0,.69,3.59,58.9,58.9,0,0,1-4.57-4.51c-1.12-1.29-2.13-2.68-3.12-4a.92.92,0,0,1-.13-.59c0-1.42.08-2.82.07-4.24a.49.49,0,0,0-.83-.35,2.9,2.9,0,0,1-1.79.82.53.53,0,0,0-.33,0,3.48,3.48,0,0,1-2.41-1.06A5.39,5.39,0,0,1,48,50.8Zm22.3,29.64a.58.58,0,0,0,.71.41,9.65,9.65,0,0,1-7.6,4.48,10.08,10.08,0,0,1-8.71-4.7.2.2,0,0,0,.07-.06,3.37,3.37,0,0,0,.18-2.09l-.09-2.33-.09-3.31c0-1.93,0-3.86,0-5.76,0-1.58,0-3.15,0-4.72a36.91,36.91,0,0,0,7,8c-.34-.16-.68-.33-1-.52a.6.6,0,0,0-.61,1c3,1.84,6.78,2.27,10.24,2.38h.11c-.11.95-.2,1.9-.24,2.89A14.68,14.68,0,0,0,70.28,80.44Zm11.58-12a6.08,6.08,0,0,1-2.36,1.89c-4.06,1.67-8.61,1.54-13,1.16a3.56,3.56,0,0,1-2.24-.68,4.87,4.87,0,0,1-.74-2c-.31-1.17-.6-2.35-.8-3.55a27.81,27.81,0,0,1-.35-3.76,17.17,17.17,0,0,1,.19-3.37,13,13,0,0,0,1.94-.56q1.5-.45,3-.84a34,34,0,0,1,6.58-1,16.75,16.75,0,0,1,6.4.89,35.4,35.4,0,0,0,4.59,1.55,1.27,1.27,0,0,0,0,.2C84.86,61.81,84.29,65.67,81.86,68.42Z" transform="translate(-18.91 -13.96)"/><path class="cls-8" d="M69.27,48.36l-.19.11h0l-.11,0a1.27,1.27,0,0,0-.34.2c.19-.13,0,0,0,0l-.18.09h0l-.1,0-.23.05h-.46l-.25-.06-.1,0h0l-.2-.1-.18-.11,0,0-.07-.07-.07-.08,0,0-.12-.22a.48.48,0,0,0-.87.37,2.24,2.24,0,0,0,1.88,1.66A2.66,2.66,0,0,0,69,50.06a1.52,1.52,0,0,0,.81-.52,1.85,1.85,0,0,0,.23-.62.5.5,0,0,0-.18-.52A.48.48,0,0,0,69.27,48.36Z" transform="translate(-18.91 -13.96)"/><path class="cls-8" d="M67.66,48.88Z" transform="translate(-18.91 -13.96)"/><path class="cls-8" d="M79.69,49.28l0,0v0Z" transform="translate(-18.91 -13.96)"/><path class="cls-8" d="M80.42,49.59h0Z" transform="translate(-18.91 -13.96)"/><path class="cls-8" d="M81.85,48.34a5.33,5.33,0,0,1-.4.42c-.13.12-.24.27-.36.39l-.21.2h0l-.12.08-.12.07,0,0-.06,0-.1,0a0,0,0,0,1,0,0h0c-.08,0,0,0,0,0h-.17L80,49.54l-.07,0-.07,0-.15-.14,0,0,0,0,0,0a0,0,0,0,0,0,0h0l0,0h0l0-.07a.5.5,0,0,0-1,0,1.28,1.28,0,0,0,0,.7,1.31,1.31,0,0,0,.52.68,2,2,0,0,0,1.26.37,2.44,2.44,0,0,0,1.46-.65,2.53,2.53,0,0,0,.54-.59,5.7,5.7,0,0,0,.32-.6.59.59,0,0,0-.15-.75A.59.59,0,0,0,81.85,48.34Z" transform="translate(-18.91 -13.96)"/><path class="cls-8" d="M67.68,42.91l.52-.14a1.15,1.15,0,0,0,.67-.28c.22-.26.26-.76-.11-.92a.74.74,0,0,0-.56-.07l-.26.07-.55.19a10.67,10.67,0,0,0-1.16.5,11.43,11.43,0,0,0-2,1.3c-.42.34.14,1.06.58.75a10.31,10.31,0,0,1,1.89-1.05A9.42,9.42,0,0,1,67.68,42.91Z" transform="translate(-18.91 -13.96)"/><path class="cls-8" d="M83.5,44.22a5.23,5.23,0,0,0-3-.71.39.39,0,0,0-.38.38.38.38,0,0,0,.38.37,3.94,3.94,0,0,1,.61.13l.35.11.13,0h0l.08,0a5.76,5.76,0,0,1,.6.33l.26.19c-.13-.12,0,0,0,0l.14.12a.66.66,0,0,0,1-.07A.67.67,0,0,0,83.5,44.22Z" transform="translate(-18.91 -13.96)"/><path class="cls-8" d="M89.3,60a26.42,26.42,0,0,1,3.76-1.09,4.35,4.35,0,0,0,0,1.72c.21.93,1,1.1,1.83.91,2.15-.49,4.3-1,6.45-1.51.74-.17.43-1.28-.31-1.12L96.22,60l-1.14.24-.56.13c-.06,0-.22,0-.26,0a2.64,2.64,0,0,1,0-1,7.74,7.74,0,0,1,.25-1.16.65.65,0,0,0-.78-.79A26.36,26.36,0,0,0,89,59C88.35,59.22,88.62,60.29,89.3,60Z" transform="translate(-18.91 -13.96)"/><path class="cls-8" d="M92.93,69.67A1.37,1.37,0,0,0,94.07,71,3.46,3.46,0,0,0,95.18,71l1.35-.17,2.52-.32A.73.73,0,1,0,98.86,69c-1.42.2-2.84.42-4.26.58-.14,0-.3,0-.25.07a1.63,1.63,0,0,1,0-.62,2.75,2.75,0,0,0-.19-1.5.71.71,0,0,0-.78-.32l-1.79.39-.82.17-.1,0a.55.55,0,0,0-.39-.14.69.69,0,0,0-.48,1.11c.4.58,1.25.29,1.81.18L93,68.7c0,.09,0,.18,0,.24A6.11,6.11,0,0,0,92.93,69.67Z" transform="translate(-18.91 -13.96)"/><path class="cls-8" d="M109.86,121.06c-3.8-6.79-5.78-14.44-9.14-21.45-3-6.23-7.7-13.23-14.9-14.94-1.92-.45-3.9-.58-5.83-1a12.68,12.68,0,0,1-2.83-.86,4.52,4.52,0,0,1-2.09-2.16.3.3,0,0,0-.55,0l-.14-.08-.1-.07h0l0,0L74,80.33l-.09-.11h0l0,0-.14-.22-.07-.12v0l0-.06a.37.37,0,0,0-.44-.25.36.36,0,0,0-.25.44,2.81,2.81,0,0,0,1.23,1.52.44.44,0,0,0-.19.19C69.47,91.92,57,91.94,51.4,82.81a.22.22,0,0,0,0-.08l-.21-.35c-.13-.21-.51-.07-.41.17a3.45,3.45,0,0,0,.14.34,107.93,107.93,0,0,1-10.73,5.57c-3.61,1.71-7.48,3.35-10.68,5.8a21.32,21.32,0,0,0-6.21,8.19A41.37,41.37,0,0,0,19.88,114c-.1.7,1,.78,1.18.16,1.23-3.82,1.79-7.75,3.51-11.43a19.29,19.29,0,0,1,6.73-8.22C37.68,90.4,44.85,87.73,51,83.23c4.6,10.69,19.93,9.56,23.93-1.19a.44.44,0,0,0,0-.3,4.5,4.5,0,0,0,2.51,2.15,25.76,25.76,0,0,0,5.28,1.21,17.85,17.85,0,0,1,4.73,1.19,19,19,0,0,1,4.89,3.2c6,5.33,8.8,13.3,11.61,20.56a89.27,89.27,0,0,0,5.08,11.5C109.33,122.09,110.16,121.6,109.86,121.06Z" transform="translate(-18.91 -13.96)"/><path class="cls-8" d="M51.91,53.54a.7.7,0,0,0,.93-.45,1.84,1.84,0,0,0,.1-.51c0-.14,0-.26,0-.39a3.2,3.2,0,0,0-.07-.87,2,2,0,0,0-.8-1.29,1.58,1.58,0,0,0-1.33-.27,1.27,1.27,0,0,0-.81.83,1,1,0,0,0,.25,1.13.21.21,0,0,0,.3-.29.57.57,0,0,1-.08-.61.92.92,0,0,1,.19-.28.56.56,0,0,1,.27-.15.85.85,0,0,1,.73.24l.09.08,0,0,.14.22,0,.06h0l0,.12,0,.15v.39h0c0,.12-.05.23-.08.34l0,.07h0l0,0h0a1.76,1.76,0,0,0-.24.42A.7.7,0,0,0,51.91,53.54Z" transform="translate(-18.91 -13.96)"/><path class="cls-8" d="M90.86,115c-.74-5.26-1.22-10.58-2.14-15.82,0-.14-.24-.1-.24,0a139.24,139.24,0,0,0,1.4,15.91q.47,3.72,1,7.43c.37,2.57.46,5.58,1.43,8a.44.44,0,0,0,.86-.12c.09-2.41-.69-5-1.08-7.4Q91.44,119.06,90.86,115Z" transform="translate(-18.91 -13.96)"/><path class="cls-8" d="M37.77,110a22.35,22.35,0,0,0-.3,4.41c-.08,1.51-.18,3-.28,4.53q-.33,4.71-1,9.39c-.11.76,1.06,1.08,1.17.32.42-3.11.74-6.22.94-9.35.09-1.57.15-3.13.15-4.7a17.26,17.26,0,0,0-.2-4.6A.26.26,0,0,0,37.77,110Z" transform="translate(-18.91 -13.96)"/><path class="cls-8" d="M76.56,60.52c-.68,0-1.37,0-2.06,0-1.41,0-2.81.06-4.22.16-.71.06-.73,1.15,0,1.13,1.38,0,2.76,0,4.14,0l2,.12a6.16,6.16,0,0,0,2.14,0,.62.62,0,0,0,.14-1.11A5.19,5.19,0,0,0,76.56,60.52Z" transform="translate(-18.91 -13.96)"/><path class="cls-8" d="M77.38,66.15a17.59,17.59,0,0,1-8.59.1.44.44,0,0,0-.24.85,16,16,0,0,0,9.18.33A.66.66,0,0,0,77.38,66.15Z" transform="translate(-18.91 -13.96)"/><path class="cls-3" d="M61,23.27a23.17,23.17,0,0,1,6.69-3.56c2.56-.82,4.95-.52,7.53-.78a1.16,1.16,0,0,0,.31-2.26C70.21,14.84,63.41,18.05,60,22,59.44,22.65,60.18,23.85,61,23.27Z" transform="translate(-18.91 -13.96)"/><path class="cls-3" d="M80.76,20.31a1.75,1.75,0,0,0,0-3.5A1.75,1.75,0,0,0,80.76,20.31Z" transform="translate(-18.91 -13.96)"/></g></g></g></svg>