<svg xmlns="http://www.w3.org/2000/svg" viewBox="0 0 118.74 125.06"><defs><style>.cls-1{fill:#fff;}.cls-2{fill:#e1e1ff;}.cls-3{fill:#77f;}.cls-4{fill:#6363eb;}.cls-5,.cls-8{fill:#372b7b;}.cls-6{fill:#473f97;}.cls-7{fill:#b7b7ff;}.cls-8{font-size:13.81px;font-family:OpenSansCondensed-Bold, Open Sans Condensed;font-weight:700;}</style></defs><title>Asset 4</title><g id="Layer_2" data-name="Layer 2"><g id="OBJECTS"><path class="cls-1" d="M26.49,65.52a2.4,2.4,0,0,0,1,2.5,1.06,1.06,0,0,1,.23.19.64.64,0,0,1,.08.3c.05.43,0,1-.36,1.14-.12,0-.27,0-.4.09-.48.16-.6.78-.58,1.29a1.24,1.24,0,0,0,.44,1,1.38,1.38,0,0,0,1.28-.14,4.71,4.71,0,0,0,2.63-2.23,4.54,4.54,0,0,0,.14-2.11c-.11-1-.25-2-.44-3.06Z"/><path class="cls-1" d="M2.34,65.43a3.45,3.45,0,0,0-.92,3.76c.06.16.12.31.19.47a4,4,0,0,0,1.52,1.72,3.53,3.53,0,0,0,2,.47.2.2,0,0,0,.18-.07.22.22,0,0,0,0-.21,6.89,6.89,0,0,0-1-2.15.5.5,0,0,0,.57-.19,1.27,1.27,0,0,0,.21-.61,6.72,6.72,0,0,0-.23-2.92l-.38.14Z"/><path class="cls-1" d="M19.82,111c0,.13,0,.26,0,.38-.45,5-.76,6.49,1.35,7.68s1.5,3.1,4.12,3.56,5.16-.28,5.25-1.59-1.65-2-3.18-4.59a19.86,19.86,0,0,1-2.07-5.63Z"/><path class="cls-2" d="M22.81,113.82a4.68,4.68,0,0,0,1.82,3.43,27.1,27.1,0,0,1,3,2.63,2,2,0,0,1,.56,1.29c0,.84-.87,1.38-1.61,1.77l2.18-.46a2.2,2.2,0,0,0,1.58-.86,1.62,1.62,0,0,0-.28-1.7,17.44,17.44,0,0,0-1.29-1.29,8.58,8.58,0,0,1-1.53-2.8c-.32-.81-.63-1.62-1-2.42-.2-.5-.5-1.07-1-1.1Z"/><path class="cls-1" d="M4.91,112.25c.19,3-.88,6.58-2.34,8.25S0,124.25,3.69,124.9s5.63-1.87,5.72-3.65,2.34-2.53,2.25-4.31,0-3.57,0-3.57Z"/><path class="cls-2" d="M6.51,114.71c.43.67,1.59.35,2.11,1a1.24,1.24,0,0,1,.24,1,5.11,5.11,0,0,1-.48,1.51,15.46,15.46,0,0,1-2.15,3.8,5.22,5.22,0,0,1-3.76,2c1.84,1,4.44.81,5.69-.87a12.06,12.06,0,0,0,.8-1.4c.66-1.19,1.58-2.22,2.19-3.43a4,4,0,0,0,.1-3.88.56.56,0,0,1-.43.21Z"/><path class="cls-3" d="M.79,66.07l4.46.34L6.78,62c3.19,2.44,13.69,1,15,1a10,10,0,0,0,3.29-.94l.28,3s4,.94,6.65-1.4c-.75-5.91-3.61-28-4.5-30.66s-2.62-5.72-8.15-6.84c-1,3.46-5.44,3.16-8.86,1A10.43,10.43,0,0,0,2.38,35C1.53,38.09,1,53.47,1,53.47Z"/><path class="cls-4" d="M6.44,37.13q-.65,3.75-1.16,7.51A161.42,161.42,0,0,0,3.72,65.12a1.7,1.7,0,0,0,.38,1.31,1.13,1.13,0,0,0,1.51-.24,3.09,3.09,0,0,0,.58-1.57,27.37,27.37,0,0,0,.47-6.38Z"/><path class="cls-4" d="M28.75,65.19s0-.07,0-.08a77.12,77.12,0,0,0-.86-9.59c-.23-2.3-.65-4.47-.8-6.77q-.24-3.87-.5-7.73a34.86,34.86,0,0,0-.35-3.53,33,33,0,0,0-.92-3.78,11.69,11.69,0,0,0-1.47-3.62,9.9,9.9,0,0,0-1.8-1.86c-.2-.18-2.55-1.93-2.42-2.15,0,0-1.45,2.61-3.89,2.79.73-.05,1.24,2.43,1.47,2.91a20.92,20.92,0,0,1,1.54,3,36.51,36.51,0,0,1,1,4.49,92.47,92.47,0,0,1,1,9.24c.18,2.55.37,5.1.55,7.65.23,3.14-.94,4.46-2.45,7,1.91.18,4.21-.54,6.12-.82l.38,3A9.2,9.2,0,0,0,28.75,65.19Z"/><path class="cls-1" d="M23,15.6A1.55,1.55,0,0,1,21,17a.42.42,0,0,0-.52.4c0,2.85-2.08,4.68-4.65,5.47a.37.37,0,0,0-.24.33.31.31,0,0,0,0,.2.27.27,0,0,0,.28.15,5.11,5.11,0,0,0,1.32-.33l.09,0a1.55,1.55,0,0,0,0,.31,2.37,2.37,0,0,0,0,.88A2.55,2.55,0,0,0,18,25.51a2.18,2.18,0,0,0,1,.56,3.1,3.1,0,0,1-1.2,1.55,5.19,5.19,0,0,1-2.5.64H15.1a6.07,6.07,0,0,1-3.81-1.41,1.83,1.83,0,0,0,.88-.9.33.33,0,0,0,.36-.31,6.08,6.08,0,0,0-.16-1.85,8.75,8.75,0,0,0-.23-.88s0,0,0-.05a4.68,4.68,0,0,0,1.41.32.31.31,0,0,0,.32-.4.3.3,0,0,0-.11-.22.23.23,0,0,0-.12-.06,5.25,5.25,0,0,1-4.2-5.11A.42.42,0,0,0,8.9,17a1.55,1.55,0,0,1-2-1.39,1.14,1.14,0,0,1,1.88-.9c.26.2.63-.08.63-.37V14a.23.23,0,0,0,.14-.23,6.29,6.29,0,0,0-.15-1.06c0-1.46,0-2.93,0-4.39a.36.36,0,0,0,.11-.22c.06-.34.13-.68.18-1a2.21,2.21,0,0,0,.05-.25s0-.1,0-.14a18.84,18.84,0,0,0,8.58,1.14,10.29,10.29,0,0,0,1.53-.27,1.63,1.63,0,0,0,.65.19,7.44,7.44,0,0,0,0,1.7c0,1.62,0,3.23,0,4.84,0,.29.37.57.63.37A1.14,1.14,0,0,1,23,15.6Z"/><path class="cls-2" d="M19.64,26.08a5,5,0,0,1-5.09,2.51,1.2,1.2,0,0,0,.55-.33,1.66,1.66,0,0,0,.39-.65,4.31,4.31,0,0,0,.17-1.39c0-.94,0-1.89,0-2.83a.27.27,0,0,0,.28.15,5.11,5.11,0,0,0,1.32-.33,2.74,2.74,0,0,0,0,.28A3.8,3.8,0,0,0,19.64,26.08Z"/><path class="cls-2" d="M23,15.6A1.55,1.55,0,0,1,21,17a.42.42,0,0,0-.52.4c0,2.85-2.08,4.68-4.65,5.47a.37.37,0,0,0-.24.33,3.81,3.81,0,0,1-1.78-.41,2,2,0,0,1-.38-.2l.27,0a6.32,6.32,0,0,0,5.78-5.47c.34-2.51-.83-5-.59-7.55a5.05,5.05,0,0,1-3.48.52,12.7,12.7,0,0,1-3.36-1.24,7.35,7.35,0,0,1-2.42-1.7,2.21,2.21,0,0,0,.05-.25s0-.1,0-.14a18.84,18.84,0,0,0,8.58,1.14,10.29,10.29,0,0,0,1.53-.27,1.63,1.63,0,0,0,.65.19,7.44,7.44,0,0,0,0,1.7c0,1.62,0,3.23,0,4.84,0,.29.37.57.63.37A1.14,1.14,0,0,1,23,15.6Z"/><path class="cls-5" d="M12.7,12.89v-.17a.41.41,0,0,0-.19-.25.43.43,0,0,0-.33-.05.45.45,0,0,0-.25.2,1.56,1.56,0,0,0-.13,1.14A.47.47,0,0,0,12,14a.48.48,0,0,0,.35.05.51.51,0,0,0,.27-.21.48.48,0,0,0,.05-.35l-.05-.16v-.18a1.41,1.41,0,0,1,.06-.22l0,.1v0Z"/><path class="cls-5" d="M18,12.58a.46.46,0,0,0-.62,0,.51.51,0,0,0-.13.31c0,.25,0,.5-.05.75a.53.53,0,0,0,.15.35.52.52,0,0,0,.34.14A.54.54,0,0,0,18,14a.47.47,0,0,0,.14-.35c0-.25,0-.5,0-.75A.53.53,0,0,0,18,12.58Z"/><path class="cls-5" d="M12.59,10.54a3.56,3.56,0,0,0-1.08.13,2.75,2.75,0,0,0-1,.55.25.25,0,0,0,.3.39,4,4,0,0,1,.85-.35,3.45,3.45,0,0,1,.46-.12,2.85,2.85,0,0,1,.44,0,.29.29,0,0,0,0-.57Z"/><path class="cls-5" d="M17.1,11c.19,0,.38.08.57.14a2.39,2.39,0,0,1,1,.56c.23.23.59-.13.35-.35a2.64,2.64,0,0,0-1.17-.64,1.6,1.6,0,0,0-.65,0,3,3,0,0,0-.65.17l0,.12A2.75,2.75,0,0,1,17.1,11Z"/><path class="cls-5" d="M16.52,18.89a2.88,2.88,0,0,1-1.53.65,2.61,2.61,0,0,1-1.68-.36.27.27,0,0,0-.36.1.27.27,0,0,0,.1.36,3.09,3.09,0,0,0,2,.61,2.87,2.87,0,0,0,2-.87C17.32,19.06,16.85,18.61,16.52,18.89Z"/><path class="cls-5" d="M14.4,18.23a4,4,0,0,0,.49,0,1.81,1.81,0,0,0,.52-.06l.49-.2a.26.26,0,0,0,.11-.33.27.27,0,0,0-.31-.16,3.27,3.27,0,0,1-.42.06c-.17,0-.34.08-.52.11l-.12,0h-.05l-.25,0a.42.42,0,0,0-.29.09L14,18l.14.19A.66.66,0,0,0,14.4,18.23Z"/><path class="cls-6" d="M25.65,113a13.78,13.78,0,0,1-6,.22c-.82-6.3-1.32-12.64-1.85-19-.28-3.38-.55-6.77-.86-10.15a58.63,58.63,0,0,0-1-8.33,3.82,3.82,0,0,0,.08-1c0-.51.05-1,.07-1.52,0-.94.06-1.88.08-2.82s0-1.88,0-2.82a8.44,8.44,0,0,0-.31-2.84h-.15a9.64,9.64,0,0,0-.23,2.84c0,.94-.07,1.88-.08,2.82s-.05,1.88-.08,2.82c0,.51-.05,1-.07,1.52a4.76,4.76,0,0,0,0,.84,60.12,60.12,0,0,0-1.05,8.43c-.33,3.57-.63,7.15-.94,10.72-.56,6.51-1.09,13-1.94,19.5a13.78,13.78,0,0,1-6-.22C6,100.5,6.21,86.89,6.65,73.3c.11-3.48.27-7,.27-10.43a3.17,3.17,0,0,0,1,.35,37.09,37.09,0,0,0,5.66.7,38.83,38.83,0,0,0,10.64-1c0,8.31.43,16.63.61,24.94S25.24,104.63,25.65,113Z"/><path class="cls-5" d="M15.69,63.56s-4.12,33.38-4.25,37-3,14.63-2.62,14.63a18.36,18.36,0,0,0,2.48-.89l4.35-38Z"/><path class="cls-5" d="M15.64,64.14q0,6.06,0,12.13a5,5,0,0,0,.1,1.22,6,6,0,0,0,.62,1.42c2,3.78,2.69,8.09,3.35,12.31l1.13,7.18c.81,5.18,1.62,10.37,2.32,15.56l3.31-.44q-.7-10.92-.69-21.87c0-1.75,0-3.5,0-5.25-.19-8-1.64-16-1.46-24a32.59,32.59,0,0,1-9.13.82Z"/><path class="cls-5" d="M32.42,63.32C31,55.65,29.82,48,29,40.21c-.35-3.22-.64-7-2.35-9.88a8.1,8.1,0,0,0-2.86-2.72,9.59,9.59,0,0,0-4-1.54,3.12,3.12,0,0,0,0-.52.31.31,0,0,0-.48-.18A2,2,0,0,1,18,24.17a2.13,2.13,0,0,1-.07-1c0-.11.06-.22.09-.33a6.47,6.47,0,0,0,3.27-5,2.3,2.3,0,0,0,2.52-2.44,2,2,0,0,0-2.5-1.72v-.09c.39-.72.78-1.44,1.16-2.16a8.13,8.13,0,0,0,.94-2.28,2.91,2.91,0,0,0-.78-2.71A2.91,2.91,0,0,0,22.78,6a2.59,2.59,0,0,0,.54-2.46A4.35,4.35,0,0,0,20.07.74a14.25,14.25,0,0,0-5-.56A9.57,9.57,0,0,0,10.73,1.5,7.84,7.84,0,0,0,9.15,2.78,14.86,14.86,0,0,0,7.94,4.54c-.22.32-.54.34-.85.57a2.16,2.16,0,0,0-.63.83,3.24,3.24,0,0,0,.1,2.37c.34.94.73,1.87,1.1,2.8a19.13,19.13,0,0,0,.94,2.2v.36A2,2,0,0,0,6.1,15.4a2.29,2.29,0,0,0,2.52,2.43,6.12,6.12,0,0,0,2.86,4.72v0l.12.43a8.55,8.55,0,0,1,.17.88,13.34,13.34,0,0,1,.09,1.41,1.59,1.59,0,0,1-1.31,1,.36.36,0,0,0-.35.3C7,27.93,4,29.46,2.65,32.79s-1.6,7.32-1.72,11C.79,48.34.46,52.86.21,57.39.08,59.76,0,62.14,0,64.52c0,.47,0,1,.35,1.31a3,3,0,0,0,1.11.47,2.41,2.41,0,0,0-.33.71A3.92,3.92,0,0,0,1,68.14a4.35,4.35,0,0,0,.67,2.25,4.21,4.21,0,0,0,1.67,1.49c.51.25,1.53.72,2,.29v-.06a.29.29,0,0,0,.13-.29A4,4,0,0,0,5,70.54,3.84,3.84,0,0,0,4.62,70l-.07-.06a1.25,1.25,0,0,0,.58-.39,2.09,2.09,0,0,0,.29-1.67c0-.32-.12-.63-.16-.94a2.18,2.18,0,0,1,0-.51,1.48,1.48,0,0,0,.06-.47l-.17-.11L5,65.73A4.22,4.22,0,0,0,4,65.6l-.82,0-.95-.21-.65-.15C1,65.19.85,65,1,64.52a10.8,10.8,0,0,1,0-2.84c0-2,.12-4,.23-6,.22-3.91.45-7.8.55-11.71.08-3.42.18-6.94,1.3-10.2,1.23-3.6,4.11-5.22,7.42-6.64a6.83,6.83,0,0,0,5.15,2.07,5.09,5.09,0,0,0,3.05-1,3.43,3.43,0,0,0,.9-1.17,1.93,1.93,0,0,0,.19-.68c1.13.79,2.66,1.08,3.84,1.85a7.6,7.6,0,0,1,3.16,4.25,48.65,48.65,0,0,1,1.74,10.46c.66,6.93,1.9,13.82,3.19,20.67a11,11,0,0,1-5,1.48l-.16-.15a.28.28,0,0,0-.33.16h-.48c-.08-.84-.17-1.69-.25-2.53a.47.47,0,0,0-.07-.66l0-.34q-.36-6.41-.71-12.82c-.13-2.24-.25-4.47-.37-6.71a37.93,37.93,0,0,0-.62-6.48c0-.11-.17-.07-.19,0a41.5,41.5,0,0,0,.1,7q.15,3.22.32,6.46.32,6.46.65,12.93a37.75,37.75,0,0,1-10,1.19,37.07,37.07,0,0,1-5.46-.5,5.19,5.19,0,0,1-1.37-.26c-.56-.31-.59-.66-.66-1.29a24.34,24.34,0,0,1,0-2.7q0-5.4,0-10.8a83,83,0,0,0-.2-11c0-.09-.17-.14-.18,0-.6,4-.32,8.25-.36,12.3s-.13,8.34-.12,12.52a1.94,1.94,0,0,0,.32,1.24c-.67,6.55-.71,13.18-.93,19.76-.23,7.07-.42,14.14-.68,21.21Q4.77,109,4.5,114.41l0,.16a18.55,18.55,0,0,1-2.12,5.22,13.11,13.11,0,0,0-1.3,2.38c-.24.7-.4,1.62.35,2A7.6,7.6,0,0,0,4.3,125a5.45,5.45,0,0,0,2.62-.32,4.23,4.23,0,0,0,1.88-1.43c.58-.79.71-1.81,1.29-2.6a10.56,10.56,0,0,0,1.7-2.49,5.49,5.49,0,0,0,.22-3l0-.08c.92-6.62,1.47-13.29,2-20,.31-3.58.61-7.16.94-10.73.16-1.73.4-3.51.56-5.28.16,1.72.39,3.44.54,5.11.32,3.45.6,6.91.88,10.37.54,6.47,1.06,13,1.95,19.4a.36.36,0,0,0,.39.29,11.62,11.62,0,0,0-.09,2.57,2.29,2.29,0,0,0,1.15,1.95,5.58,5.58,0,0,1,1.09.69,6.53,6.53,0,0,1,.83,1.07A5.86,5.86,0,0,0,24,122.5c1.47.93,3.38.64,5,.27.75-.17,1.63-.34,1.82-1.21a2.39,2.39,0,0,0-.85-2.07,17.41,17.41,0,0,1-2.07-2.83,22,22,0,0,1-1.42-3.08.33.33,0,0,0,.08-.25c-.43-8.48-.62-17-.86-25.46-.22-8.32-.17-16.74-1-25l.23-.05c.07.93.15,1.87.22,2.8,0,.44.71.45.71,0l.36.05A3.48,3.48,0,0,0,26.33,67a3.77,3.77,0,0,0,.41.83,2.32,2.32,0,0,0,.7.66l.08,0c0,.22,0,.45,0,.67a.27.27,0,0,0,.27.26,1.75,1.75,0,0,0,1.65-2,.23.23,0,0,0-.29-.16.24.24,0,0,0-.17.28,1.24,1.24,0,0,1-.93,1.32c0-.52,0-1,0-1.57L28,65.74a6.14,6.14,0,0,0,1.13-.15,9.73,9.73,0,0,0,1.2-.35c0,1.07.06,2.14.14,3.21a2.59,2.59,0,0,1-.8,2.55,6.52,6.52,0,0,1-2.25.92c-.48.11-.77,0-.83-.48a3.46,3.46,0,0,1,.06-1.11.16.16,0,0,0-.29-.12c-.38.66-.69,1.77.13,2.25a2.13,2.13,0,0,0,1.64-.09,7.18,7.18,0,0,0,1.39-.55,2.8,2.8,0,0,0,1.61-2.45A15.84,15.84,0,0,0,31,67.31c-.07-.75-.15-1.49-.22-2.23a9.5,9.5,0,0,0,1.32-.65.42.42,0,0,0,.42-.24l0,0A.47.47,0,0,0,32.42,63.32ZM21.72,3.37l0,0h0ZM4,66.31a6,6,0,0,0,.74.11l0,.06a2.91,2.91,0,0,0,0,.78,4.3,4.3,0,0,1,.1,1.47.72.72,0,0,1-.64.62.35.35,0,0,1-.29-.1c-.13-.17-.08-.5-.09-.71,0-.65,0-1.3,0-2A.6.6,0,0,0,4,66.31Zm-2.19.07c.57.1,1.15.16,1.58.26-.06.65-.13,1.29-.19,1.94a1.52,1.52,0,0,0,.1.94.91.91,0,0,0,.55.43l.22,0,.2.26a4.25,4.25,0,0,1,.32.54,3.63,3.63,0,0,1,.29.88l-.34-.08a3.91,3.91,0,0,1-.82-.33A4.19,4.19,0,0,1,2.35,70,4.41,4.41,0,0,1,1.84,66.38ZM17.75,27.62a5.19,5.19,0,0,1-2.5.64,6,6,0,0,1-4-1.41,1.83,1.83,0,0,0,.88-.9.33.33,0,0,0,.36-.31,6.08,6.08,0,0,0-.16-1.85,8.75,8.75,0,0,0-.23-.88l0-.05a4.68,4.68,0,0,0,1.41.32c.39,0,.46-.58.09-.68a5.25,5.25,0,0,1-4.2-5.11A.42.42,0,0,0,8.9,17a1.55,1.55,0,0,1-2-1.39,1.14,1.14,0,0,1,1.88-.9c.26.2.63-.08.63-.37V14a.23.23,0,0,0,.14-.23,6.29,6.29,0,0,0-.15-1.06c0-1.46,0-2.93,0-4.39l.11-.22c.08-.42.16-.85.23-1.27l0-.14a18.84,18.84,0,0,0,8.58,1.14,10.29,10.29,0,0,0,1.53-.27,1.63,1.63,0,0,0,.65.19,7.44,7.44,0,0,0,0,1.7c0,1.62,0,3.23,0,4.84,0,.29.37.57.63.37a1.14,1.14,0,0,1,1.88.9A1.55,1.55,0,0,1,21,17a.42.42,0,0,0-.52.4c0,2.85-2.08,4.68-4.65,5.47-.35.11-.31.72.09.68a5.41,5.41,0,0,0,1.41-.36,2.81,2.81,0,0,0,0,1.19A2.55,2.55,0,0,0,18,25.51a2.18,2.18,0,0,0,1,.56A3.1,3.1,0,0,1,17.75,27.62ZM11,117.8a6.23,6.23,0,0,1-1.31,2c-1,1.22-1.09,3-2.54,3.87a5.69,5.69,0,0,1-4.95,0c-.21-.08-.39-.11-.49-.32a1,1,0,0,1,0-.68,4.53,4.53,0,0,1,.49-1.18c.4-.73.88-1.42,1.26-2.16A15.3,15.3,0,0,0,5,114.85a14.84,14.84,0,0,0,6.22.31.41.41,0,0,0,0,.25A4.74,4.74,0,0,1,11,117.8Zm16.86.3A19.76,19.76,0,0,0,29.4,120a2.36,2.36,0,0,1,.65,1c.1.58-.35.79-.83.92-1.44.36-3.22.76-4.63.06s-1.72-2.31-2.87-3.21a9.62,9.62,0,0,0-1-.59,1.56,1.56,0,0,1-.79-1.21,20.77,20.77,0,0,1-.16-2.85l0-.09a14.9,14.9,0,0,0,6-.26A15.06,15.06,0,0,0,27.88,118.1Zm-3-30.23c.19,8.38.38,16.76.79,25.13a13.78,13.78,0,0,1-6,.22c-.82-6.3-1.32-12.64-1.85-19-.28-3.38-.55-6.77-.86-10.15a58.63,58.63,0,0,0-1-8.33,3.82,3.82,0,0,0,.08-1c0-.51.05-1,.07-1.52,0-.94.06-1.88.08-2.82s0-1.88,0-2.82a8.44,8.44,0,0,0-.31-2.84h-.15a9.64,9.64,0,0,0-.23,2.84c0,.94-.07,1.88-.08,2.82s-.05,1.88-.08,2.82c0,.51-.05,1-.07,1.52a4.76,4.76,0,0,0,0,.84,60.12,60.12,0,0,0-1.05,8.43c-.33,3.57-.63,7.15-.94,10.72-.56,6.51-1.09,13-1.94,19.5a13.78,13.78,0,0,1-6-.22C6,100.5,6.21,86.89,6.65,73.3c.11-3.48.27-7,.27-10.43a3.17,3.17,0,0,0,1,.35,37.09,37.09,0,0,0,5.66.7,38.83,38.83,0,0,0,10.64-1C24.24,71.24,24.68,79.56,24.86,87.87Zm2.65-20.6c0,.14,0,.28,0,.43a3.22,3.22,0,0,1-.78-2q.4,0,.81,0Z"/><path class="cls-1" d="M11.31,3.08l0,0,.24.07c.47-.13.92-.31,1.39-.43a9.55,9.55,0,0,1,1.4-.25,8.17,8.17,0,0,1,1.4,0c.49,0,1,.11,1.45.13s.5-.62.1-.75a7.13,7.13,0,0,0-3.05-.07,6.89,6.89,0,0,0-2.88.93.28.28,0,0,0-.12.29Z"/><path class="cls-1" d="M19.63,3c0-.27-.07-.54-.11-.8l-.14.07-.1.12-.05.15v.16l0,.1.1.11.14.07h.16l.15,0,.09-.06L20,2.72l0-.16V2.45l-.1-.18-.09-.06-.2-.06-.16,0-.13.08-.08.13,0,.16,0,.11.1.18.08.06Z"/><path class="cls-1" d="M105.22,102.87l.79,9.62s-1.07-.62-1.35,1.91-.38,3.75,1.12,4.5,2.77,3,3.29,3.19a4.68,4.68,0,0,0,4.31.94c2.72-.66,2.44-1.41,1.87-2.53s-3.25-3.22-3.65-5.44a3.58,3.58,0,0,0-2.06-2.81l.44-10.09Z"/><path class="cls-2" d="M107.57,103.06l.56,9.47a4.1,4.1,0,0,1,1.37,1c1,.89,2.19,4.55,2.57,5.39s2.15,1.41,1,2.44-4,.75-4,.75.93,1.41,4.31.94,2.81-1.31,1.87-2.53a34.82,34.82,0,0,1-3.65-5.44c-.75-1.69-.84-2.24-2.06-2.81.37-6,.28-9.75.28-9.75Z"/><path class="cls-1" d="M92.57,102.69c-.39.49-.66,8.71-.66,8.71s-1.5-.18-2.25,2.44-1.31,5.44-2.81,7.31-.38,3.57,1.87,3.57,4.31.09,5.25-2.91,2.24-1.89,2.53-4.5c.47-4.22-.75-3.56-.75-3.56L97.07,103Z"/><path class="cls-2" d="M86.15,123a6,6,0,0,0,2.69.41,1.7,1.7,0,0,0,1-.31,2.2,2.2,0,0,0,.49-.77,39.88,39.88,0,0,1,4.14-7.23,1,1,0,0,0,.24-.63c-.08-.58-.88-.46-1.13-.85s0-1.58,0-2.12c.15-1.68.36-3.35.65-5,.19-1.06.4-2.11.65-3.15.67,0,1.47-.28,2.14-.26-1.27,3-.51,6.41-1.08,9.59a10.92,10.92,0,0,1-.27,1.13c.29-.19.65.43.67.78.06,1,.09,2.08.09,3.13a3.11,3.11,0,0,1-.12,1,3.54,3.54,0,0,1-.82,1.18,11.32,11.32,0,0,0-1.38,2,8.25,8.25,0,0,1-.78,1.28,4.07,4.07,0,0,1-3,1.34,9.88,9.88,0,0,1-3.27-.54Z"/><path class="cls-1" d="M112.3,65.46a2.18,2.18,0,0,0,1.39,2.29,3.24,3.24,0,0,1,.12,1,1.09,1.09,0,0,1-.48.87c-.14.09-.3.13-.44.22a1.81,1.81,0,0,0-.63,1.59.47.47,0,0,0,.6.61,9.06,9.06,0,0,0,2.67-.81c2.15-1,1.73-4.86.53-6.4C115.66,65,112.32,65.28,112.3,65.46Z"/><path class="cls-1" d="M87.69,65.67c-.48.18-.58.81-.58,1.33a6.14,6.14,0,0,0,.78,3.19,4.37,4.37,0,0,0,3.34,1.93,3.43,3.43,0,0,0-.87-2.28,1,1,0,0,0,.76-.6,2.55,2.55,0,0,0,.17-1A8.12,8.12,0,0,0,91,66.17a5.4,5.4,0,0,0-1.93-.54Z"/><path class="cls-3" d="M92.66,61.9c-.22-.19-.75,40.88-.75,40.88s4.31,1,6.56.19c1.78-19,3.5-27.29,3.5-27.29l1.75,26.91s2.1,1.67,6.26-.43c.21-8,.49-39.6.49-39.6S97,65.75,92.66,61.9Z"/><path class="cls-4" d="M101.47,63.78l1.31,6.09s3.19,6.47,3.47,9.75,1.69,7,.85,7.41-2.91.84-1.78,1.31l1.59.66.19,14.15,3.13-.17.34-40.51S104.66,65,101.47,63.78Z"/><path class="cls-4" d="M95.28,103.06S96.69,91,96.69,89.75s-1.41-1.6-2.06-2.44,1.69.38,2.25-.56S99.5,76.53,100,73.44a33.76,33.76,0,0,1,1.78-6.38l.38,10L98.47,103Z"/><path class="cls-6" d="M86.38,65.47a15.37,15.37,0,0,0,5.9.37l.38-3.94s2.72,1.88,8.53,1.79A30.8,30.8,0,0,0,111,62l.75,3.64a12.21,12.21,0,0,0,6.29-1.77c-.85-6.09-2.91-19.22-3.19-21.65s-.75-7.32-1.88-10.6-7.17-5.55-7.17-5.55-1.83,9.49-2.58,12-1.45,5.71-1.45,5.71S98.66,34.53,98,32.37A13.27,13.27,0,0,1,97.53,28l-1.3-1.42s-5.35,2-7.23,6.62S86.85,52,86.85,52Z"/><path class="cls-1" d="M109.06,15.61a1.55,1.55,0,0,1-2,1.39.42.42,0,0,0-.53.39,6.23,6.23,0,0,1-1.76,3.39,19.26,19.26,0,0,0-2.2,2.82c-.18.32.28.72.54.41l.21-.24a2.45,2.45,0,0,0,.06.6,2.53,2.53,0,0,0,.61,1.14,2.09,2.09,0,0,0,1,.56,3,3,0,0,1-1.2,1.55,5.19,5.19,0,0,1-2.5.64,6.06,6.06,0,0,1-4-1.41,1.83,1.83,0,0,0,.88-.9.33.33,0,0,0,.36-.31,5.81,5.81,0,0,0-.15-1.86c0-.24-.12-.48-.19-.71l.29.33c.25.31.71-.09.54-.42-1-1.88-3.51-3.3-3.58-5.6A.42.42,0,0,0,95,17a1.55,1.55,0,0,1-2-1.39,1.14,1.14,0,0,1,1.88-.9c.26.2.63-.08.63-.36v-.15a.43.43,0,0,0,.28-.45,28,28,0,0,1-.07-6.4A10.2,10.2,0,0,0,97,8a7.65,7.65,0,0,0,1.53.79,1.63,1.63,0,0,0,2-.42,1.79,1.79,0,0,0,.28-.86c1.66,1.24,3.85,2.42,5.82,1.8,0,1.67,0,3.35,0,5,0,.29.37.56.63.36A1.14,1.14,0,0,1,109.06,15.61Z"/><path class="cls-2" d="M97.1,6.78c-.29-.17-.36.42-.18.71a5.46,5.46,0,0,0,1.86,2A1.86,1.86,0,0,0,101.24,9a8.57,8.57,0,0,0,3.37,2.21,19.07,19.07,0,0,1-.36,7.15c-.72,2.29-2.55,4.4-4.93,4.7a2.11,2.11,0,0,0,2.1.77,6.49,6.49,0,0,1,.18,4.61,4.41,4.41,0,0,0,4.28-2.87,2.62,2.62,0,0,1-2.27-2.37,11.54,11.54,0,0,0,3.5-5.86,1.78,1.78,0,0,0,2.31-1.61,1.77,1.77,0,0,0-2.37-1.5l.16-5.12A3,3,0,0,0,107,7.66a2.7,2.7,0,0,0-.91-.93A8.84,8.84,0,0,0,101.82,5a5,5,0,0,0-4.2,1.61Z"/><path class="cls-5" d="M98.75,12.88v-.17a.47.47,0,0,0-.19-.25.42.42,0,0,0-.33,0,.4.4,0,0,0-.25.19,1.56,1.56,0,0,0-.13,1.14.44.44,0,0,0,.21.27.43.43,0,0,0,.35.05.47.47,0,0,0,.27-.21.43.43,0,0,0,0-.35l0-.16v-.18a1.8,1.8,0,0,1,.06-.22l0,.1h0Z"/><path class="cls-5" d="M104,12.59a.43.43,0,0,0-.62,0,.46.46,0,0,0-.13.3l-.05.75a.53.53,0,0,0,.15.35.48.48,0,0,0,.34.14A.54.54,0,0,0,104,14a.49.49,0,0,0,.14-.34c0-.25,0-.5,0-.75A.49.49,0,0,0,104,12.59Z"/><path class="cls-5" d="M101.09,20.25a2.86,2.86,0,0,0,2-.87c.32-.32-.15-.77-.48-.49a3,3,0,0,1-1.53.64,2.53,2.53,0,0,1-1.68-.35.27.27,0,0,0-.37.09.28.28,0,0,0,.1.37A3.16,3.16,0,0,0,101.09,20.25Z"/><path class="cls-5" d="M100.45,18.23h.48a2.33,2.33,0,0,0,.53-.06L102,18a.27.27,0,0,0,.11-.33.29.29,0,0,0-.32-.16,3.27,3.27,0,0,1-.42.06c-.17,0-.34.08-.51.11l-.12,0h0l-.26,0a.32.32,0,0,0-.28.09L100,18l.14.2A.71.71,0,0,0,100.45,18.23Z"/><path class="cls-5" d="M118.41,63.34C117,55.66,115.83,48,115,40.23c-.35-3.23-.63-7-2.34-9.89a8,8,0,0,0-2.86-2.72,9.61,9.61,0,0,0-4-1.55,1.67,1.67,0,0,0,0-.31,1.37,1.37,0,0,0,0-.19v0a.32.32,0,0,0-.48-.18A1.9,1.9,0,0,1,104,23.21a1.57,1.57,0,0,1,.08-.31c.6-.69,1.19-1.39,1.75-2.11a6.76,6.76,0,0,0,1.51-2.95,2.31,2.31,0,0,0,2.55-2.45,2,2,0,0,0-2.5-1.71v-.55a11.89,11.89,0,0,0,.66-4.91v0a3.13,3.13,0,0,0,.45-1.38,4.89,4.89,0,0,0-1.43-3.45A10,10,0,0,0,100.8.08c-2.21-.28-5,.12-6.49,2a3.18,3.18,0,0,0-.24,3.64c.05.09.11.17.16.25h0a4.94,4.94,0,0,0-.79,3.82,15.36,15.36,0,0,0,1.22,3.9,2,2,0,0,0-2.48,1.71,2.31,2.31,0,0,0,2.56,2.45c.26,1.7,1.61,3.17,2.83,4.49a.38.38,0,0,0,0,.26l.12.42c.07.29.13.59.17.88.06.47.07.95.09,1.42a1.61,1.61,0,0,1-1.32,1,.39.39,0,0,0-.35.3c-3.17,1.32-6.15,2.84-7.56,6.17s-1.6,7.33-1.72,11c-.15,4.54-.49,9.06-.74,13.59-.14,2.37-.26,4.76-.2,7.13,0,.48-.05,1,.35,1.31a2.76,2.76,0,0,0,1.11.47,2.89,2.89,0,0,0-.34.71A4.29,4.29,0,0,0,87,68.12a4.5,4.5,0,0,0,.66,2.26,4.11,4.11,0,0,0,1.67,1.48c.51.26,1.53.73,2,.29V72.1a.29.29,0,0,0,.13-.3A4,4,0,0,0,91,70.52a4.29,4.29,0,0,0-.4-.55.46.46,0,0,0-.07-.07,1.34,1.34,0,0,0,.58-.38,2.15,2.15,0,0,0,.29-1.68c0-.31-.12-.62-.16-.93a2.19,2.19,0,0,1,0-.51,1.56,1.56,0,0,0,.06-.47c0-.09-.09-.11-.17-.11s-.07-.09-.13-.11a4.23,4.23,0,0,0-1.07-.12c-.27,0-.54,0-.81-.06l-1-.21-.65-.15c-.5,0-.68-.22-.54-.67a10.8,10.8,0,0,1,0-2.84c0-2,.13-4,.24-6,.23-3.9.46-7.8.56-11.71.09-3.41.19-6.93,1.31-10.19,1-2.84,3-4.43,5.38-5.68a27.75,27.75,0,0,0,1,5.19c.48,2,1,4,1.63,5.89s1.23,3.75,1.93,5.59a15.47,15.47,0,0,0,2.21,4.34c-.07,4.66,0,9.33.06,14-.24,0-.48,0-.73,0a37.21,37.21,0,0,1-5.46-.51,5.27,5.27,0,0,1-1.37-.26c-.56-.31-.58-.66-.65-1.29-.09-.87,0-1.82,0-2.7,0-3.6,0-7.2.06-10.8s.29-7.43-.19-11c0-.1-.16-.14-.18,0-.6,4-.33,8.25-.38,12.3s-.13,8.34-.13,12.51a2,2,0,0,0,.32,1.25c-.76,6.6-.6,13.35-.66,20s-.15,13.43-.5,20.14a.42.42,0,0,0,.3.4c.16.05.32.07.48.11a8.91,8.91,0,0,0-.23,2.19l-.21,2.46c-.07.85-.15,1.7-.23,2.55,0,.38-.07.77-.11,1.15a.21.21,0,0,0-.26-.15,2.32,2.32,0,0,0-1.53,1.41,23.4,23.4,0,0,0-.41,2.53,14.13,14.13,0,0,1-1.39,3.61,29.84,29.84,0,0,0-1.71,3c-.34.87-.52,1.89.47,2.35a8.24,8.24,0,0,0,3.35.76,5,5,0,0,0,2.86-.86,4.78,4.78,0,0,0,1.64-2.35A5.93,5.93,0,0,1,95.58,120a5.77,5.77,0,0,0,1-1.4,5.51,5.51,0,0,0,.4-3.44h0c0-.11,0-.22,0-.33a6.54,6.54,0,0,0-.24-1.38.43.43,0,0,0-.51-.29l-.13,0c.06-.5.12-1,.19-1.51.13-.94.28-1.88.42-2.82.27-1.78.48-3.55.59-5.34.44-.05.88-.09,1.32-.18l0,0,.09,0,.07-.06,0,0a.69.69,0,0,0,0-.13h0v0c.65-4.61,1.17-9.24,1.62-13.87.21-2.16.41-4.31.64-6.47.12-1.18.26-2.36.36-3.55,0-.21,0-.44.07-.66,0,.15,0,.29,0,.43.07,1.19.17,2.37.25,3.55.15,2.2.25,4.4.35,6.6.2,4.61.53,9.2,1.16,13.77a.07.07,0,0,0,0,.05h0a.29.29,0,0,0,0,.13l0,0s0,0,.07.06l.08,0s0,0,.06,0a13.48,13.48,0,0,0,1.52.2c0,2.93.67,5.8.75,8.73,0,.42.67.42.65,0-.11-2.92-.68-5.8-1.08-8.7a14.56,14.56,0,0,0,3.84-.25c.18,3,.29,6.07.21,9.1a.17.17,0,0,0,.08.16.23.23,0,0,0,.06.12,1.39,1.39,0,0,0-1-.25,2.18,2.18,0,0,0-1.47.85.15.15,0,0,0-.21.11,3.15,3.15,0,0,0-.06.61l-.08-.06-.09-.1,0,0,0,0,0-.07h0l0,0-.15-.24-.1-.24c0-.1-.07-.2-.1-.29l-.1-.2-.15-.07-.11,0-.12.14v.21c0,.13,0,.25,0,.38a2.4,2.4,0,0,0,.17.65,1.63,1.63,0,0,0,.39.54,1.79,1.79,0,0,0,.28.2.61.61,0,0,0,.45.12c.11.28.23.55.35.81.36.8.72,1.6,1.1,2.39a2.57,2.57,0,0,0,1.38,1.46c.44.13,1.63,0,1.46-.69a.3.3,0,0,0-.27-.21c-.24,0-.37.21-.59.25a1,1,0,0,1-.65-.16,3.72,3.72,0,0,1-1-1.46c-.31-.63-.61-1.26-.91-1.9-.15-.32-.31-.64-.43-1s-.16-.45-.22-.68.51-.61.8-.69a1.34,1.34,0,0,1,.84,0,.94.94,0,0,1,.49.64c.13.36.25.72.38,1.07a21.8,21.8,0,0,0,.88,2c.16.33.32.66.5,1l.29.53c.1.17.23.32,0,.47a.24.24,0,0,0,.06.43c.42.16.68-.37.61-.72a2.73,2.73,0,0,0-.32-.72l-.35-.69a27.06,27.06,0,0,1-1.25-3.07,3.09,3.09,0,0,0-.57-1.23.19.19,0,0,0,.09,0c.43.09.54.58.66.94s.29.85.46,1.26a18.83,18.83,0,0,0,1.4,2.67,21.58,21.58,0,0,0,1.7,2.32c.44.52,1.86,1.83.7,2.35a8.21,8.21,0,0,1-2.69.54,4.44,4.44,0,0,1-2.49-.42,5.56,5.56,0,0,1-1.69-1.94,4.55,4.55,0,0,0-1.66-1.57c-.52-.28-.94-.52-1.12-1.11A7.25,7.25,0,0,1,105,116a14.06,14.06,0,0,1,0-1.59c0-.25.22-2.11.7-2,.15,0,.26-.18.11-.26-1.66-.77-1.5,4.74-1.38,5.47a2.08,2.08,0,0,0,.67,1.29c.42.36,1,.51,1.39.85.84.67,1.21,1.77,2,2.53,1.56,1.61,4,1.23,6,.76a2.11,2.11,0,0,0,1.28-.65,1.49,1.49,0,0,0,.18-1.33,3.17,3.17,0,0,0-.75-1.17c-.43-.49-.85-1-1.24-1.51a19.18,19.18,0,0,1-2.19-3.74c-.38-.85-.55-2.52-1.7-2.64a50.81,50.81,0,0,0-.07-9c.21,0,.42-.08.63-.14a.41.41,0,0,0,.3-.39c-.33-6.69-.21-13.36,0-20,.18-6.5.53-13.13-.16-19.61l.22-.05c.07.93.15,1.87.22,2.8,0,.44.71.45.71,0l.36,0a3.36,3.36,0,0,0,.18,1.29,3.15,3.15,0,0,0,.41.82,2.36,2.36,0,0,0,.7.67h.07c0,.23,0,.45,0,.67a.27.27,0,0,0,.26.27,1.75,1.75,0,0,0,1.65-2,.23.23,0,0,0-.28-.17.24.24,0,0,0-.17.29,1.26,1.26,0,0,1-.93,1.32c0-.53,0-1.06,0-1.58L114,65.76a8.52,8.52,0,0,0,1.13-.15,9.73,9.73,0,0,0,1.2-.35c0,1.07.06,2.14.13,3.21a2.57,2.57,0,0,1-.8,2.54,6.09,6.09,0,0,1-2.25.92c-.48.11-.77,0-.83-.47a3.75,3.75,0,0,1,.06-1.11.15.15,0,0,0-.28-.12c-.39.65-.69,1.76.12,2.24a2.13,2.13,0,0,0,1.64-.09,7.55,7.55,0,0,0,1.39-.54,2.81,2.81,0,0,0,1.62-2.45,15.88,15.88,0,0,0-.14-2.07c-.08-.74-.15-1.48-.22-2.22a12.43,12.43,0,0,0,1.32-.65.41.41,0,0,0,.42-.25l0,0A.47.47,0,0,0,118.41,63.34ZM90,66.3a6.55,6.55,0,0,0,.74.1.17.17,0,0,1,0,.07,2.91,2.91,0,0,0,0,.78,4.06,4.06,0,0,1,.1,1.47.7.7,0,0,1-.64.61.32.32,0,0,1-.28-.09,1.32,1.32,0,0,1-.09-.71c0-.65,0-1.31,0-2A.51.51,0,0,0,90,66.3Zm-2.18.06c.57.11,1.15.17,1.58.27-.06.64-.13,1.29-.2,1.93a1.51,1.51,0,0,0,.11.94.88.88,0,0,0,.55.43.78.78,0,0,0,.22,0l.19.27a4.86,4.86,0,0,1,.33.54,3.76,3.76,0,0,1,.28.88l-.34-.08a3.65,3.65,0,0,1-.82-.34A4.26,4.26,0,0,1,88.33,70,4.44,4.44,0,0,1,87.83,66.36Zm18-40a7.41,7.41,0,0,0,1.37.72,96.41,96.41,0,0,1-1.83,11.07A59.63,59.63,0,0,1,102,48c0-1.4-.08-2.8-.15-4.19a.55.55,0,0,0,.22-.27,81.55,81.55,0,0,0,2.1-8.42c.53-2.53.94-5.05,1.24-7.61a3.78,3.78,0,0,0,.26-.43A2.36,2.36,0,0,0,105.82,26.39Zm-4.15,2.84a5,5,0,0,0,3-1l0,0c-.48,2.28-1,4.57-1.5,6.84-.58,2.44-1.27,4.83-1.91,7.25-1.24-4.77-3-9.4-3.82-14.26A6.91,6.91,0,0,0,101.67,29.23ZM98.2,26a.33.33,0,0,0,.36-.31,5.81,5.81,0,0,0-.15-1.86c0-.24-.12-.48-.19-.71l.29.33c.25.31.71-.09.54-.42-1-1.88-3.51-3.3-3.58-5.6A.42.42,0,0,0,95,17a1.55,1.55,0,0,1-2-1.39,1.14,1.14,0,0,1,1.88-.9c.26.2.63-.08.63-.36v-.15a.43.43,0,0,0,.28-.45,28,28,0,0,1-.07-6.4A10.2,10.2,0,0,0,97,8a4.86,4.86,0,0,0,.54.33,7.4,7.4,0,0,0,1,.46,1.63,1.63,0,0,0,2-.42,1.79,1.79,0,0,0,.28-.86c1.66,1.24,3.85,2.42,5.82,1.8,0,1.67,0,3.35,0,5,0,.29.37.56.63.36a1.14,1.14,0,0,1,1.87.91,1.55,1.55,0,0,1-2,1.39.42.42,0,0,0-.53.39,6.23,6.23,0,0,1-1.76,3.39,19.26,19.26,0,0,0-2.2,2.82c-.18.32.28.72.54.41l.21-.24a2.45,2.45,0,0,0,.06.6,2.53,2.53,0,0,0,.61,1.14,2.09,2.09,0,0,0,1,.56,3,3,0,0,1-1.2,1.55,5.16,5.16,0,0,1-2.11.62l-.39,0a6.06,6.06,0,0,1-4-1.41A1.83,1.83,0,0,0,98.2,26Zm3,22.09a43.07,43.07,0,0,1-3.75-9.37q-.85-2.62-1.54-5.3c-.45-1.75-.74-3.6-1.35-5.31.62-.32,1.27-.62,1.94-.9.15.15.3.3.47.44.33,5.72,2.76,11.07,4,16.62a.34.34,0,0,0,.35.29C101.28,45.69,101.24,46.86,101.22,48Zm-9.7,65.63v0l.39,0a8.74,8.74,0,0,1,.87.14,3,3,0,0,1,1.41.86.35.35,0,0,0,.15.07,2.92,2.92,0,0,0-.24.37l-.38.66q-.39.66-.81,1.32c-.26.43-.54.84-.81,1.27s-.49.86-.74,1.29a3,3,0,0,0-1.53-.46h-.09a17.88,17.88,0,0,0,1-2.35A17.35,17.35,0,0,0,91.52,113.67Zm4.55,1.19a4.42,4.42,0,0,1,0,.63c0,.1,0,.21,0,.32a.59.59,0,0,0,.13.32,4.58,4.58,0,0,1-.36,2,17.11,17.11,0,0,1-1.62,2.25c-.47.73-.61,1.63-1.1,2.36a3.61,3.61,0,0,1-2.23,1.41,6,6,0,0,1-3-.23c-.26-.08-.52-.16-.77-.26a.71.71,0,0,1-.44-.9,4.88,4.88,0,0,1,.6-1.41,22.53,22.53,0,0,0,2.45-5.06,10.46,10.46,0,0,0,.35-2.49,2,2,0,0,1,1.26-2s0,0,.07-.08,0,.08,0,.12a5.16,5.16,0,0,0-.06,1.36h0l-.06,0a.42.42,0,0,0-.52.3c-.16,1.06-.4,2.1-.65,3.15s-.54,1.79-.81,2.69l-.15,0a.24.24,0,0,0,.06.47h0a.15.15,0,0,0,.17,0l.42,0,.27,0a2,2,0,0,1,.31.07,2.36,2.36,0,0,1,1,.6.39.39,0,0,0,.53,0,.38.38,0,0,0,0-.53l-.22-.16c.33-.36.67-.71,1-1.1s.6-.83.89-1.26.57-.83.84-1.25l.44-.67,0,0a1.26,1.26,0,0,0,.93-.74c.1-.16.19-.32.29-.47v.24ZM96,109c-.12.87-.24,1.73-.35,2.6-.06.49-.11,1-.16,1.47a4.15,4.15,0,0,0-.07.7,4.11,4.11,0,0,0-.25.52l-.07.16,0,.08s0,0,0,.06a.27.27,0,0,0-.12-.09.46.46,0,0,0-.1-.41,3.83,3.83,0,0,0-1.82-1,2.82,2.82,0,0,0-1-.08,8.21,8.21,0,0,0,.11-1c0-.48.09-1,.13-1.45.08-.85.15-1.71.22-2.56s.11-1.64.14-2.46l0-1.3a4.45,4.45,0,0,0,0-1,14.5,14.5,0,0,0,4.2.33C96.53,105.4,96.22,107.2,96,109ZM110,82.45c-.22,6.58-.34,13.14,0,19.71a13.7,13.7,0,0,1-5.84.23c-.58-4.55-.89-9.12-1.1-13.71-.09-2.14-.19-4.29-.33-6.43a35.84,35.84,0,0,0-.74-6.57,5,5,0,0,0,.07-.87c0-.51,0-1,.07-1.52,0-.94.07-1.88.08-2.82s0-1.88,0-2.82a8.44,8.44,0,0,0-.31-2.84h-.15a10,10,0,0,0-.24,2.84c0,.94-.06,1.88-.08,2.82s0,1.88-.08,2.82c0,.51,0,1-.07,1.52a6,6,0,0,0,0,.73,38.25,38.25,0,0,0-.9,6.54c-.23,2.23-.44,4.46-.66,6.7-.45,4.61-1,9.21-1.56,13.81a13.86,13.86,0,0,1-5.84-.25c.32-6.6.4-13.2.42-19.81s.34-13.12.26-19.67a3.19,3.19,0,0,0,1,.35,37.09,37.09,0,0,0,5.66.7,38.73,38.73,0,0,0,10.63-1C110.13,69.45,110.24,76,110,82.45Zm3.47-15.17c0,.14,0,.29,0,.43a3.2,3.2,0,0,1-.78-2,7.3,7.3,0,0,0,.81,0Zm-.79-2.18a.24.24,0,0,0-.16-.15.28.28,0,0,0-.33.17l-.48,0c-.08-.84-.17-1.69-.25-2.53a.47.47,0,0,0-.07-.66l0-.34-.69-12.82c-.13-2.24-.25-4.47-.37-6.71a36.94,36.94,0,0,0-.61-6.48c0-.11-.17-.08-.18,0a41.5,41.5,0,0,0,.08,7c.11,2.15.21,4.3.32,6.46l.63,12.93a37.76,37.76,0,0,1-8.65,1.16c0-4.56.12-9.15.06-13.72l0,0a62.08,62.08,0,0,0,3.87-11,45.39,45.39,0,0,0,1.55-11.11,12,12,0,0,1,2.21,1,7.59,7.59,0,0,1,3.16,4.26A47.92,47.92,0,0,1,114.53,43c.66,6.94,1.89,13.83,3.17,20.67A10.78,10.78,0,0,1,112.71,65.1Z"/><path class="cls-2" d="M97.53,28a70.76,70.76,0,0,0,2.21,8.71,40.92,40.92,0,0,0,1.73-7.51A6.86,6.86,0,0,1,97.53,28Z"/><path class="cls-7" d="M104.72,28.23a5,5,0,0,1-3,1h-.2a40.92,40.92,0,0,1-1.73,7.51c.56,1.85,1.12,3.69,1.61,5.55.64-2.42,1.33-4.81,1.91-7.25.53-2.27,1-4.56,1.5-6.84Z"/><path class="cls-5" d="M99.16,10.67a.34.34,0,0,0-.34-.34,3.63,3.63,0,0,0-1.37.37.3.3,0,0,0-.12.37.29.29,0,0,0,.35.17,3.06,3.06,0,0,1,.59-.17l.15,0h.08l.32,0A.34.34,0,0,0,99.16,10.67Z"/><path class="cls-5" d="M103.47,11.27l.42,0,.43,0a.42.42,0,0,0,.28-.12.33.33,0,0,0,.11-.27.4.4,0,0,0-.39-.39l-.43,0-.42,0-.24.09-.09.24.09.23A.4.4,0,0,0,103.47,11.27Z"/><path class="cls-5" d="M101.61,23.62l-.22,0h0l-.2,0-.18,0h-.16a2.7,2.7,0,0,1-.81-.06.25.25,0,0,0-.3.14.26.26,0,0,0,.11.32,3.64,3.64,0,0,0,1,.26,3.53,3.53,0,0,0,.46,0,1.93,1.93,0,0,0,.53-.11.37.37,0,0,0,.26-.44A.37.37,0,0,0,101.61,23.62Z"/><path class="cls-5" d="M97.18,55.58a17.2,17.2,0,0,0,2,0,.35.35,0,0,0,.34-.26v-.19a.36.36,0,0,0-.34-.27c-.68,0-1.35,0-2,0s-1.35,0-2,0c-.37,0-.35.52,0,.56C95.83,55.47,96.51,55.53,97.18,55.58Z"/><path class="cls-5" d="M108.12,54.33a2.7,2.7,0,0,0-.6.17c-.37.1-.73.21-1.1.3a9.36,9.36,0,0,1-1.08.18c-.2,0-.4,0-.6.05s-.38.07-.57.09a.22.22,0,0,0,0,.43,4.11,4.11,0,0,0,1.15.22,7.88,7.88,0,0,0,1.09-.05,4.88,4.88,0,0,0,1.2-.22l.59-.23c.23-.1.43-.22.43-.5A.45.45,0,0,0,108.12,54.33Z"/><path class="cls-1" d="M97.51,2.64a8.68,8.68,0,0,1,2.69-.07,8,8,0,0,1,1.29.29c.44.14.84.34,1.28.49s.76-.56.34-.81a6.57,6.57,0,0,0-2.85-.75,8.07,8.07,0,0,0-2.89.33A.27.27,0,0,0,97.51,2.64Z"/><path class="cls-1" d="M105.58,4.33l.11-.07.16-.16.06-.23-.06-.22-.16-.16-.11-.07a.48.48,0,0,0-.26-.07.5.5,0,0,0-.27.07.52.52,0,0,0-.26.45.54.54,0,0,0,.26.46.5.5,0,0,0,.27.07A.48.48,0,0,0,105.58,4.33Z"/><rect class="cls-5" x="37.58" y="113.02" width="14.2" height="1"/><polygon class="cls-5" points="38.84 116.02 38.84 111.52 33.59 113.77 38.84 116.02"/><rect class="cls-5" x="69.28" y="113.02" width="13.2" height="1"/><polygon class="cls-5" points="81.23 116.02 81.23 111.52 86.48 113.77 81.23 116.02"/><text class="cls-8" transform="translate(53.03 117.51)">6ft</text></g></g></svg>