<svg xmlns="http://www.w3.org/2000/svg" xmlns:xlink="http://www.w3.org/1999/xlink" viewBox="0 0 96.88 120.65"><defs><style>.cls-1{fill:none;}.cls-2{fill:#77f;}.cls-3{fill:#372b7b;}.cls-4{clip-path:url(#clip-path);}.cls-5{fill:#e1e1ff;}.cls-6{fill:#fff;}</style><clipPath id="clip-path" transform="translate(-6.62 -3.74)"><circle class="cls-1" cx="64.5" cy="64.5" r="64.5" transform="translate(-9.68 117.6) rotate(-80.59)"/></clipPath></defs><title>Asset 5</title><g id="Layer_2" data-name="Layer 2"><g id="OBJECTS"><path class="cls-2" d="M90.65,6.53l4.52.09c.63,0,1.38,0,1.7-.58a1.23,1.23,0,0,0-.57-1.58,3.53,3.53,0,0,0-1.82-.33H87.35a17.77,17.77,0,0,0-4.55.39,2,2,0,0,0-1,.51.79.79,0,0,0-.06,1,1.12,1.12,0,0,0,.61.26,27.67,27.67,0,0,0,5.89.56c0,.33,0,.68-.09,1H90.8A5.22,5.22,0,0,1,90.65,6.53Z" transform="translate(-6.62 -3.74)"/><path class="cls-3" d="M88.92,7.42a.47.47,0,0,0-.17-.33l1.6,0c0,.13-.08.27-.11.4a2.52,2.52,0,0,0-.06.47H91a2.52,2.52,0,0,0-.06-.47c0-.14-.07-.28-.11-.42a45.55,45.55,0,0,0,5.33-.51.44.44,0,0,0,.16,0l.28,0a.41.41,0,0,0,.34-.38,1.23,1.23,0,0,0,.36-1.62c-.5-.78-1.57-.72-2.37-.7-2.82.06-5.65.16-8.46.31-1.32.07-2.66.08-4,.25-.78.1-1.42.62-1.25,1.48s1.16,1.28,2,1.33c1.36.08,2.72,0,4.08,0l.85,0a.42.42,0,0,0-.15.32c0,.16,0,.33,0,.49h.88ZM85.43,6.19c-.64,0-1.28,0-1.91,0a2.62,2.62,0,0,1-.84-.1c-.33-.13-.76-.51-.18-.73a6.14,6.14,0,0,1,1.72-.1L86,5.13C87.29,5.07,88.57,5,89.86,5l3.56-.08,1.78,0c.48,0,1.63,0,.7.65h0c-2.26.19-4.51.45-6.78.57C87.89,6.17,86.66,6.19,85.43,6.19Z" transform="translate(-6.62 -3.74)"/><g class="cls-4"><path class="cls-2" d="M88.1,9.12c0,.11,0,.22,0,.33A.19.19,0,0,0,88.1,9.12Z" transform="translate(-6.62 -3.74)"/><path class="cls-2" d="M103.36,16.82a6.7,6.7,0,0,0-.18-2.05,2.45,2.45,0,0,0-1.25-1.57A50.1,50.1,0,0,1,96,14c.15-.45-.24-.82-.3-1.29a6.27,6.27,0,0,0-1.29-.13l0-.27c-.06-.77-.42-1.35-.47-2.12a1.32,1.32,0,0,0-.3-.93A1.14,1.14,0,0,0,93,9.06a5.09,5.09,0,0,0-2,0,7.32,7.32,0,0,0-.19-1.17H88.15c0,.41-.06.81-.05,1.21a.19.19,0,0,1,0,.33c0-.11,0-.22,0-.33s0,0,0,0a17.57,17.57,0,0,0-2.94.58,1,1,0,0,0-.64.32,1.11,1.11,0,0,0-.11.72l.12,1.55a14.09,14.09,0,0,0-2.43,0c-.07,0-.15,0-.19.06a.25.25,0,0,0,0,.19,2.18,2.18,0,0,0,.37,1.14h0l.26,0c0,.11-.18.06-.26,0-3-.32-6.32-.56-8.89.94a11.7,11.7,0,0,0-2.67,2.3,7.64,7.64,0,0,0-1.87,3,8.57,8.57,0,0,0,0,3.31l-.69.81a2.25,2.25,0,0,0-.83,1.29A1.48,1.48,0,0,0,68,26.62a4.07,4.07,0,0,0,1.48.51A12.23,12.23,0,0,0,76,26.86,2.07,2.07,0,0,0,77.16,26a1.2,1.2,0,0,0-.07-1.16,1.15,1.15,0,0,0-1-.54,2.75,2.75,0,0,1,.48-2,3.65,3.65,0,0,1,1.53-1.06,10.53,10.53,0,0,1,4.68-.32c-.15.12.16.42.29.57a1,1,0,0,0,.53.26,8.88,8.88,0,0,0,3.32-.18,29.51,29.51,0,0,1,7.45-.28,2.66,2.66,0,0,0,1.51-.15c.45-.24.7-.91.34-1.27,2-.23,3.58-.5,5.52-.73a4.2,4.2,0,0,1,1.37,0l.07,0C103.63,18.45,103.34,17.67,103.36,16.82Z" transform="translate(-6.62 -3.74)"/><path class="cls-2" d="M82.45,13.69l-.26,0C82.27,13.75,82.46,13.8,82.45,13.69Z" transform="translate(-6.62 -3.74)"/><path class="cls-5" d="M69.89,27.26a1.39,1.39,0,0,1,1.19-2.45c-.06-2-.07-4.19,1.07-5.85a6.86,6.86,0,0,1,2.59-2.12,11.57,11.57,0,0,1,7.3-1l.24-1q6.93-.1,13.84-.58a4.61,4.61,0,0,1-.14,2.6L82,17l-.24,1.49a16.57,16.57,0,0,0-4.5-.16,5.66,5.66,0,0,0-3.85,2.1,7.8,7.8,0,0,0-1.12,4.12,1,1,0,0,1,.92-.14A11.58,11.58,0,0,1,73.1,27Z" transform="translate(-6.62 -3.74)"/><path class="cls-2" d="M62.71,63.91c.06-2.83-.88-3.33-2-3.46-2.33-2.08-2.77-3.4-.95-4.47s4.1.88,4,.63-2.58-2.52-1.64-4,7.56,2.84,7.56,2.84-.76-19.52-1-22.54-.69-6.17-.69-6.17a49.4,49.4,0,0,0,5.1.57,13.13,13.13,0,0,0,2.9-.13l1.38,24.43s2.58-5.23,5.41-4.85,1.26,3.27,1.26,3.27,1.58-2.89,4.41-1.63-.5,6.1-.5,6.1-2.65-2.26-5-.44c-1-2.45-5.28-3.34-7.24-.82a5.48,5.48,0,0,0-.94,5.1s-2.39-.06-2.58,1.32c-2.27-.31-4.28-.12-5.42,4.47A4.23,4.23,0,0,0,62.71,63.91Z" transform="translate(-6.62 -3.74)"/><path class="cls-5" d="M78.37,50.88a5.84,5.84,0,0,1,1.74-1.76,1.37,1.37,0,0,1,1.26-.26c.54.26.57,1,.7,1.58a2,2,0,0,0,.6,1.15,1.21,1.21,0,0,0,1.24.24c.48-.21.7-.75.93-1.23a7.22,7.22,0,0,1,1.66-2.18,2,2,0,0,1,1.42-.63c.85.08,1.32,1.06,1.33,1.91a7.59,7.59,0,0,1-1.6,4,3,3,0,0,1,0-1.33c0-.45-.17-1-.61-1.07a1.1,1.1,0,0,0-.87.4,8.26,8.26,0,0,1-2.85,2.2,1.58,1.58,0,0,1-.91,0,2.25,2.25,0,0,1-1-.86A4.27,4.27,0,0,0,80,51.89a2.14,2.14,0,0,0-1.78-.1,6.61,6.61,0,0,1-.76.22Z" transform="translate(-6.62 -3.74)"/><path class="cls-5" d="M72.75,27.46c0,.28.19,15.87.76,13.79S74.26,27,74.26,27Z" transform="translate(-6.62 -3.74)"/><path class="cls-5" d="M70.12,27.72s1.12,18.06,1.31,22.78,1.42-2.74,1.6-5.85.76,13.79.76,13.79a2.21,2.21,0,0,0-1.89,1.69l-1.7-.28L68.1,27.34Z" transform="translate(-6.62 -3.74)"/><path class="cls-6" d="M47,79.84a90,90,0,0,0,11.71-5.16c4-2.4,19.14-13.35,21.66-15s5-3.14,6.67-1.51.13,3.4-1.63,5S72.09,75.31,72.09,75.31s6.17-3.65,10-5.8,10.2-6.54,11.58-7.3,1.26-.56,1.26-.56.13-2.14-1.76-1.83l-3,.5s.32-8.81-7-6.23c-2-3.65-6-2.2-7.17-.57a12.09,12.09,0,0,0-1.39,4.79,3.37,3.37,0,0,0-2.2,1.38c-1.26-.12-4.22,1.07-4.79,2.4a4.2,4.2,0,0,0-.5,1.76s-3.34-.76-4.28.06c-.57,3.15-4.66,6.93-8.5,8.56S47,79.15,47,79.84Z" transform="translate(-6.62 -3.74)"/><path class="cls-5" d="M74.42,85.51l14.92-8.88c7.26-4.33,8-5.29,8.06-5.48s.12-3.21-1.83-3.27C89,73.23,73.1,85.63,73.1,85.63Z" transform="translate(-6.62 -3.74)"/><path class="cls-5" d="M86.7,61.9c.12-.19,4.78-2.08,6.42-2.08a1.58,1.58,0,0,1,1.76,1.32s-12,7.75-13.22,8.69a81.9,81.9,0,0,1-8.75,4.85C73,74.43,86.7,61.9,86.7,61.9Z" transform="translate(-6.62 -3.74)"/><path class="cls-5" d="M62,65.55a5.52,5.52,0,0,1,5,.94c.31-2.58,5.22-3.71,5.22-3.71-.06-2.14,4.22-2.33,4.22-2.33.5-5.23,4.85-6.3,6-4.85-2,2.14-2,2.58-2,2.58s2.64-3,5.47-2.26,4.54,3.08,4.41,3.9-.38.82-.38.82l-2.45.75s1.26-2.64-1.07-3.58-3.09.56-6.36,2.58S63,71.72,61.7,72.54s-7.11,5.1-9.13,5.79-5.79,2.14-5.79,2.14a9.69,9.69,0,0,1,3.78-5.23c2.9-1.82,8.94-4.53,9.82-6A19.67,19.67,0,0,0,62,65.55Z" transform="translate(-6.62 -3.74)"/><path class="cls-6" d="M9.08,101.21c17.31-10.16,23.73-21.62,27.13-25.9S52.7,66.24,55,64.35a20.89,20.89,0,0,1,6.54-3.65c.88-.12,2.4.63,1.51,3.4s-5.28,7.43-9.31,9.44-6.42,3.78-6.93,6.93a85.47,85.47,0,0,0,16.75-9.32C67.18,68.38,78,62.21,79.77,60.07s6.8-3.9,7.81-2-.76,5.16-5.67,8.43a61.66,61.66,0,0,0-9.82,8.82s8.18-4,11-6.17S94.27,60,97.9,61.71c1.64.75-.75,5.29-2.77,6.67S79.27,80.85,78.39,81.73s-5.92,4.4-5.92,4.4a61.94,61.94,0,0,0,11-5.28c4.91-3.15,10.33-7.94,12-8.82s5.54-1.38,4.41,2.14-6.8,9.45-10,11.71-11,7.81-13,9.19A14,14,0,0,0,74,97.59s5.79-2.39,8.69-4.78,8.94-5.54,11-5,1.89,1.76-.5,3.9-7.31,6.43-10.45,8.19-16.37,10.57-24.93,12-23.93,3.4-27.07,5.29-6.3,3.65-6.3,3.65Z" transform="translate(-6.62 -3.74)"/><path class="cls-5" d="M86.07,57.81C87.32,60.7,74.73,69.14,72,70.9s-9.82,7.93-8.68,8.81,3.52-.88,3.52-.88S83,66,85.06,64,90.22,58.56,86.07,57.81Z" transform="translate(-6.62 -3.74)"/><path class="cls-5" d="M95.89,61.08c1,1.26-1,3.78-4.66,6.92S71.46,82.48,69.57,84s-1.89,4.79,2.9,2.14S93,71,95.13,68.38,101.3,63.22,95.89,61.08Z" transform="translate(-6.62 -3.74)"/><path class="cls-5" d="M98.4,71.28c.13,2.26-8.68,11.71-14.1,14.48S70.7,95,69.7,96.59s2.64,1,6.29-1.14,14.48-9.82,16.37-12S102.18,74.05,98.4,71.28Z" transform="translate(-6.62 -3.74)"/><path class="cls-5" d="M93.62,87.77C93.49,89.16,79.27,100,70.2,103.64s-27.32,3.52-35.38,4.78-23,11-23,11l6,4s16.25-9.19,24.56-9.57,19.26-.88,32.35-9.06S94.38,91.42,95,89.79,93.62,87.77,93.62,87.77Z" transform="translate(-6.62 -3.74)"/><path class="cls-5" d="M49.55,79.21S41,83.74,41,83.36a17.74,17.74,0,0,1,6.3-10.07c4.91-3.65,14.22-7.93,15.23-11.71.25,4.54-3.65,8.31-7.05,10.2S45.78,77.82,49.55,79.21Z" transform="translate(-6.62 -3.74)"/><path class="cls-5" d="M6.62,95.58C16.56,89.41,26,82.86,29,77.7s3.9-6.8,8.06-8.94S57.32,57.39,58,57.72s-.36,4.74-.74,4.74S43.51,67.75,40,72.28a146,146,0,0,1-11.2,12.85c-4.41,4.53-18.13,15.74-18.13,15.74Z" transform="translate(-6.62 -3.74)"/><path class="cls-3" d="M98,70.38h-.17a3.42,3.42,0,0,0-.32-1.12,3.22,3.22,0,0,0-1-1.24,11.34,11.34,0,0,0,1.13-1.29,5.25,5.25,0,0,0,1.26-4c-.36-1.66-2.17-2.22-3.68-2h-.06a.41.41,0,0,0,0-.19c-.15-.79-1-1.06-1.71-1.07a11.34,11.34,0,0,0-2.77.43l-.15,0a7.57,7.57,0,0,0-1.84-5.69,2.86,2.86,0,0,0,.77-.82,6.75,6.75,0,0,0,.91-1.77,3.62,3.62,0,0,0-.45-3.21,2.89,2.89,0,0,0-3.15-.92,4.57,4.57,0,0,0-1.83,1.07,3.64,3.64,0,0,0-.16-1,2.15,2.15,0,0,0-2.34-1.45,5.58,5.58,0,0,0-3,1.73,7.29,7.29,0,0,0-1.63,2.69c-.21-3.44-.41-6.88-.62-10.32-.12-2-.21-4-.38-6.06a27.75,27.75,0,0,0-.69-5.91c-.09-.29-.58-.34-.65,0a27,27,0,0,0,0,5.68c.07,2.1.22,4.2.34,6.29q.33,6,.67,12h0a6.16,6.16,0,0,0-2.31,5.64,2.87,2.87,0,0,0-2.46,1.52,2.49,2.49,0,0,0-1.24-.07.41.41,0,0,0,0-.16,63,63,0,0,1-.28-7.41q-.06-4.06-.27-8.13c-.13-2.63-.29-5.26-.5-7.88-.2-2.44-.16-5.34-1-7.66,0-.13-.28-.17-.3,0a18.61,18.61,0,0,0,0,3.73c.08,1.47.21,2.95.3,4.42q.26,4.3.38,8.62c.08,2.79.11,5.59.1,8.38,0,.54,0,1.07,0,1.61a16.52,16.52,0,0,0-2.66-1.87,6.83,6.83,0,0,0-3.32-1.18,1.62,1.62,0,0,0-1.57,2,3.34,3.34,0,0,0,.82,1.45,3.27,3.27,0,0,0,.32.33,4.62,4.62,0,0,0-1.68-.27,3,3,0,0,0-2.43,1.28,1.68,1.68,0,0,0-.23.49,2.4,2.4,0,0,0-1.56.13C53.3,58.31,50.24,60.3,47.28,62q-5.13,3-10.12,6.26c-.89.59-1.79,1.16-2.62,1.83-2.74,2.2-4.75,5.21-6.94,7.92a55.26,55.26,0,0,1-8.83,8.6c-1.71,1.34-3.48,2.6-5.25,3.86C12,91.58,10,92.54,8.83,94a.21.21,0,0,0,.2.34,15.54,15.54,0,0,0,3.88-2.24c1.49-1,3-2,4.41-3a69.44,69.44,0,0,0,7.31-5.94,82.15,82.15,0,0,0,6.54-7.4A27.77,27.77,0,0,1,36,70.88,154.31,154.31,0,0,1,53.18,60.36a24.52,24.52,0,0,1,3.88-1.83l.46-.14a.93.93,0,0,0,.14.38,4.31,4.31,0,0,1-2,3.43.58.58,0,0,0-.3.64c-3.31,1.83-6.89,3.13-10.14,5.09a53.08,53.08,0,0,0-8.94,6.7,62.87,62.87,0,0,0-7.45,8.9A55.54,55.54,0,0,1,20,93.14c-3.44,2.92-7.18,5.47-10.87,8.07-.57.4-.05,1.33.56,1,6-3.79,12.06-7.75,16.83-13.07,2.52-2.81,4.54-6,6.89-9a44.61,44.61,0,0,1,7.76-7.53A51.83,51.83,0,0,1,50.45,67a62.27,62.27,0,0,0,9.07-5c.81-.56,2-1.23,2.43.08a3.59,3.59,0,0,1-.08,2A8.21,8.21,0,0,1,60.51,67a16.77,16.77,0,0,1-5.11,4.16c-4,2.39-8.55,4.72-9.51,9.71a.76.76,0,0,0,1.47.41c-.1.27.09,0,.28-.14l.66-.39c.73-.42,1.49-.78,2.25-1.14,1.32-.64,2.68-1.21,4-1.87a53.32,53.32,0,0,0,6-3.82c2.37-1.59,4.76-3.12,7.18-4.61s4.93-3,7.31-4.68c2.16-1.49,4.14-3.18,6.25-4.73A9.07,9.07,0,0,1,84.6,58.2c1.62-.35,3.4.48,2.39,2.36a13.41,13.41,0,0,1-2.77,3q-1.57,1.49-3.2,2.91c-4.82,4.2-10,8-14.89,12.06-.68.56.29,1.5,1,1,3.54-2.84,7.77-4.69,11.66-7C83,70,86.91,66.88,91.09,64.22a17.92,17.92,0,0,1,3.44-1.93c.82-.28,2.44-.49,2.92.52s-.58,2.72-1.29,3.49A52.64,52.64,0,0,1,90.76,71c-1.93,1.6-3.9,3.18-5.88,4.72-4.67,3.65-9.47,7.15-14.27,10.63a.72.72,0,0,0,.55,1.32c8.74-2.35,15.72-8.41,22.89-13.61A29.72,29.72,0,0,1,96.6,72.3c.8-.46,2.06-.5,2.15.67a3.85,3.85,0,0,1-.7,2.14A28.52,28.52,0,0,1,94,80.54a73.25,73.25,0,0,1-10.52,8.8c-3.64,2.65-8.13,4.46-11,8.06-.49.63.14,1.72.93,1.2a11.92,11.92,0,0,1,1.87-.79c1-.4,2-.8,3-1.25a27.35,27.35,0,0,0,3.54-2.18l5.09-3.28a13.55,13.55,0,0,1,5.23-2.37,2.92,2.92,0,0,1,1.44,0c.71.28.45.94,0,1.44a16.7,16.7,0,0,1-2,1.65c-2.9,2.29-5.83,4.55-8.85,6.69A84.94,84.94,0,0,1,63.76,109a54.12,54.12,0,0,1-10.47,2.8c-3.88.61-7.82.63-11.7,1.28C33,114.57,24.51,118.4,17,122.83a.83.83,0,0,0,.84,1.44c7.34-4.32,15.53-8,24-9.49,4.3-.76,8.69-.73,13-1.51A55.25,55.25,0,0,0,66,109.92,94.9,94.9,0,0,0,85.91,98.15c1.53-1.14,3-2.31,4.56-3.49a34.47,34.47,0,0,0,4.29-3.5c.88-1,1.24-2.57.12-3.5s-3.21-.57-4.53-.13a25.89,25.89,0,0,0-5.69,3.14c-2.11,1.37-4.19,2.8-6.34,4.1a13.47,13.47,0,0,1-1.87.91c2.65-2.05,5.78-3.59,8.42-5.53A65,65,0,0,0,96,80.52a21,21,0,0,0,4-5.93C100.57,73,100.1,70.56,98,70.38ZM78.49,51A6.8,6.8,0,0,1,82,47.37c.79-.31,1.58-.15,1.76.75a4.59,4.59,0,0,1-.22,2.11c-.16.54.6,1,1,.58a6.61,6.61,0,0,1,2.14-1.94,1.8,1.8,0,0,1,2.4.52A2.66,2.66,0,0,1,89,51.8a14.39,14.39,0,0,0-1.07,1.81,4.47,4.47,0,0,0-4.8-.2,4.78,4.78,0,0,0-5.27-1.87v-.27A.46.46,0,0,0,78.49,51ZM59,59.83a3.75,3.75,0,0,0,.51.38c-.25.12-.5.25-.74.39A5.23,5.23,0,0,0,59,59.83Zm2.27-.08a.24.24,0,0,0-.11-.09,4.62,4.62,0,0,1-1.62-1,1.2,1.2,0,0,1-.07-1.56c1-1.21,2.83-.42,4,.09a.55.55,0,0,0,.8-.62,4.5,4.5,0,0,0-1.42-2.16c-.27-.31-.65-.87-.42-1.29s.72-.33,1.08-.25A9.8,9.8,0,0,1,66.21,54a28.82,28.82,0,0,1,2.66,1.73c0,.62,0,1.25,0,1.87a2.37,2.37,0,0,0,.55,1.91,5,5,0,0,0-1.88,1.25,4.39,4.39,0,0,0-1.14,2.32A3.74,3.74,0,0,0,65,63a2.38,2.38,0,0,0-1.4.52A4.12,4.12,0,0,0,63.15,61,2.08,2.08,0,0,0,61.25,59.75Zm24.51-3c-2.52-.18-4.73,1.57-6.58,3.06a92.76,92.76,0,0,1-8.27,5.92c-2.72,1.74-5.5,3.38-8.23,5.11s-5.42,3.7-8.28,5.26c-1.57.85-3.26,1.5-4.87,2.27L48.16,79C49.92,75.68,53.81,74,57,72a16.5,16.5,0,0,0,4.94-4.32,10,10,0,0,0,1.58-3.6c.5,0,1-.19,1.5-.17a2.44,2.44,0,0,1,1.52.59.61.61,0,0,0,1-.43,3.5,3.5,0,0,1,2.38-3.34,4.27,4.27,0,0,1,1.42-.14,2.67,2.67,0,0,0,.52,1.66,3.87,3.87,0,0,0-.43.27,2.19,2.19,0,0,0-.67,2.69.39.39,0,0,0,.68-.39,1,1,0,0,1,0-.9,1.78,1.78,0,0,1,.61-.77,4.37,4.37,0,0,1,2.67-.41.49.49,0,0,0,.47-.36c.1-.71-.81-.63-1.23-.62a5.88,5.88,0,0,0-.94.1,2.84,2.84,0,0,0-.31.06A1.84,1.84,0,0,1,74.61,59a.56.56,0,0,0,.68-.69c-.4-2,.35-4.51,2.34-5.44a3.62,3.62,0,0,1,4.82,1.7.58.58,0,0,0,.91.12c1.3-1.28,3.49-.81,4.66.44s1.5,3.35,1.42,5.16c-.37.14-.72.31-1.07.47l0,0C89.23,58.68,87.85,56.94,85.76,56.79Zm2.3,7.77c-2.39,1.63-4.71,3.35-7.11,5-1.7,1.14-3.48,2.14-5.28,3.13,2.25-1.8,4.48-3.62,6.64-5.52,1.13-1,2.25-2,3.34-3.08a23.06,23.06,0,0,0,1.76-1.8c.21-.12.42-.24.64-.34a12.23,12.23,0,0,1,1.45-.59.56.56,0,0,0,1-.3,16.36,16.36,0,0,1,2.19-.45c.33,0,1.42-.26,1.51.24a.84.84,0,0,0,.06.14A11.68,11.68,0,0,0,92,62.05C90.64,62.84,89.34,63.69,88.06,64.56Zm7.07,6.93C94.07,72.23,93,73,92,73.77c-2,1.5-4,3-6.06,4.51a60,60,0,0,1-10.46,6.31c3.38-2.48,6.76-5,10.07-7.56,2.29-1.79,4.56-3.61,6.78-5.48,1.13-1,2.42-1.89,3.56-2.93a2,2,0,0,1,.41.37l.07.08,0,0,.12.18.12.21,0,.08,0,.05a2.83,2.83,0,0,1,.14.41l0,.21v.29A7,7,0,0,0,95.13,71.49Z" transform="translate(-6.62 -3.74)"/><path class="cls-3" d="M103.13,18.94a3.77,3.77,0,0,0-1.74-.13l-1.66,0-1.61,0c-.45,0-.89.06-1.33.11,0-1.58.06-3.15,0-4.73a6.37,6.37,0,0,0,.76,0l1.55-.08c1-.05,2.08-.05,3.1-.17a.54.54,0,0,0,0-1.07c-1,0-2.11.16-3.16.26l-1.55.13a5.85,5.85,0,0,0-.73.12l0-.9A.79.79,0,0,0,96,11.8H94.5c0-.15,0-.31,0-.46a5.67,5.67,0,0,0-.06-.71c-.06-.4-.11-.81-.17-1.21a.34.34,0,0,0-.32-.25.38.38,0,0,0-.25.13,4.45,4.45,0,0,0-2-.51l-.68,0c0-.25,0-.49,0-.73a.5.5,0,0,0,0-.12h-.8a.5.5,0,0,0,0,.12c0,.23,0,.47,0,.7-.29,0-.57,0-.86,0l-.35.05c0-.3,0-.59,0-.89H88c0,.33,0,.67,0,1-.36.05-.72.12-1.07.2s-.76.18-1.13.29a1.74,1.74,0,0,0-.82.46l0,0a.63.63,0,0,0-.68.12,1.2,1.2,0,0,0-.25.74,1.61,1.61,0,0,0,0,.38,2.51,2.51,0,0,0,.23.75c-.7,0-1.4.09-2.11.19a.38.38,0,0,0-.32.5c-.08.34-.16.69-.22,1a.23.23,0,0,0-.17-.11c-3.43-.6-7.41-.21-10.2,2.05a9.85,9.85,0,0,0-2.89,3.81,6,6,0,0,0-.29,4.48l-.44-.05c-.67-.11-1,.76-.55,1.08a1.85,1.85,0,0,0,1,2.52,6.29,6.29,0,0,0,2,.38l1,.08a124,124,0,0,0,.55,15.29c0,.45.73.46.71,0-.24-5.06-.18-10.13.07-15.2h0c1.32.08,3,.38,4.13-.43,1-.68,1.54-2.27.48-3.15a.75.75,0,0,0-.37-.15,1.87,1.87,0,0,1,.68-2.33,3.41,3.41,0,0,1,1.87-.5,10,10,0,0,1,1.09.06l.51.07c.1,0,.23.05.33.05a1.68,1.68,0,0,0,.39-.07.46.46,0,0,0,.34-.29l0,.07-.06,0a.51.51,0,0,0,0,.7c.73.69,2.17.34,3.09.31l3.7-.12,7.26-.23a.8.8,0,0,0,.77-.77c0-.33,0-.65,0-1a11.73,11.73,0,0,0,1.33.12l1.67,0,1.6,0a3.76,3.76,0,0,0,1.8-.14A.76.76,0,0,0,103.13,18.94ZM75.37,26.35a8,8,0,0,1-2.84.07c-1,0-2.07,0-3.1-.06a2.07,2.07,0,0,1-1.22-.29c-.23-.18-.42-.59-.2-.84a1,1,0,0,0,.1-.17,21.2,21.2,0,0,0,7.82,0,.26.26,0,0,1,0,.08C76.28,25.63,75.86,26.18,75.37,26.35Zm6.31-5.92a2.21,2.21,0,0,0-.35-.16,2,2,0,0,0-.42-.05l-.67-.06a8.54,8.54,0,0,0-1.34,0,4,4,0,0,0-2.32,1,3.06,3.06,0,0,0-.92,2.44,25.77,25.77,0,0,1-6.5.3.48.48,0,0,0,.09-.32,11,11,0,0,1-.12-2,6,6,0,0,1,.54-2,8.76,8.76,0,0,1,2.61-3.27c2.6-2,5.93-2.2,9.09-2.31a.34.34,0,0,0,.2-.09,17,17,0,0,0-.2,3,20.69,20.69,0,0,0,.2,2.35c0,.36.09.73.16,1.1Zm3.62-9.77a.55.55,0,0,0,.06-.26h0a2,2,0,0,0,.59,0c.36-.07.72-.13,1.09-.18a17,17,0,0,1,2.25-.12c.73,0,1.46,0,2.19.08a7.7,7.7,0,0,0,2,.12c0,.12,0,.24,0,.36s-.06.47-.07.71,0,.31,0,.47c-1.45,0-2.91,0-4.36,0-1.24,0-2.47,0-3.7,0,0-.06,0-.11,0-.15a1.54,1.54,0,0,1-.1-.35,1.41,1.41,0,0,1,0-.29A2.14,2.14,0,0,1,85.3,10.66Zm9.88,9.75-6.53.23-3.56.12-1.74.06c-.09-.55-.25-1.1-.35-1.65a20.77,20.77,0,0,1-.28-2.24,32.7,32.7,0,0,1,0-4c2.14.15,4.28.21,6.42.29s4.05.15,6.08.11C95.31,15.72,95.3,18.06,95.18,20.41Z" transform="translate(-6.62 -3.74)"/><path class="cls-5" d="M62.35,59.81a1.78,1.78,0,0,1-1.57-1.44,1.34,1.34,0,0,1,1.33-1.49,3.36,3.36,0,0,1,1,.39,3.72,3.72,0,0,0,1.92.31A3.23,3.23,0,0,0,64,55.89c-.45-.5-.84-1.26-.47-1.83a1.21,1.21,0,0,1,1.28-.44,3.53,3.53,0,0,1,1.28.65l2.35,1.65c-.48.26-1.08-.13-1.62-.05a1.4,1.4,0,0,0-1,1.54,8.29,8.29,0,0,0,.57,1.92,1,1,0,0,1,0,.74c-.14.26-.47.35-.74.46s-.58.34-.52.63a.7.7,0,0,0,.32.4,2.7,2.7,0,0,1,.76.82.93.93,0,0,1-.08,1,1.2,1.2,0,0,1-.51.27,3.48,3.48,0,0,1-2.76-.39,3.76,3.76,0,0,0-.45-2.48Z" transform="translate(-6.62 -3.74)"/></g></g></g></svg>