<svg xmlns="http://www.w3.org/2000/svg" viewBox="0 0 143.98 84.47"><defs><style>.cls-1,.cls-5{fill:#fff;}.cls-2{fill:#77f;}.cls-3{fill:#6363eb;}.cls-4{fill:#e1e1ff;}.cls-5{opacity:0.36;}.cls-6{fill:#372b7b;}</style></defs><title>preventn06</title><g id="Layer_2" data-name="Layer 2"><g id="OBJECTS"><path class="cls-1" d="M62.78,35.58C62,34,60.51,32.77,61.18,30.7c.38-1.14,1.74-1.56,1.28-3.05-.55-1.82-3.39-2-4.08-3.78-.22-.53-.22-1.2-.66-1.57L57,21.81c-1.44.68-3.05,1.57-3.36,3.13a4.44,4.44,0,0,0,.12,1.88,20.22,20.22,0,0,0,1.14,3.56,4,4,0,0,0-1,5.33,7.72,7.72,0,0,0,3,2.19L59.06,39a5.76,5.76,0,0,0,1.85.69,2,2,0,0,0,1.8-.6,3,3,0,0,0,.46-1.68A3.71,3.71,0,0,0,62.78,35.58Z"/><path class="cls-1" d="M74.22,14.06c-2.29,1.08-6.43,2.77-7.49,5.22-.93,2.14.19,5.57,2.64,6,2,.38,3.79-1.17,5.65-2a17.27,17.27,0,0,1,5.29-1.15l7.57-.82a2,2,0,0,1,1,.05c.74.28.9,1.22,1.23,1.95,1,2.21,3.87,2.58,6.21,3.25,6,1.71,10.27,6.92,15.38,10.53a4.25,4.25,0,0,0,1.69.83,4.65,4.65,0,0,0,1.53-.07,165,165,0,0,0,16.79-3.32c4.42-1.21,8.67-3.65,10.34-8.16a14.74,14.74,0,0,0-.29-10.3,11,11,0,0,0-3.3-4.8,10.78,10.78,0,0,0-8.63-1.69c-3.06.57-5.68,2.25-8.62,3s-5.93,1.44-8.94,1.95c-3.63.61-6.42,1.72-9.89.3C96.77,12.6,91.59,9.07,85.62,8.21a1.78,1.78,0,0,0-.69,0,1.64,1.64,0,0,0-.61.36c-3.67,2.82-7.38,6.08-11.8,7.66"/><path class="cls-1" d="M74.44,23.93a8.26,8.26,0,0,1-2,3.31c-1.09,1.07-2.47,1.83-3.49,3a6.73,6.73,0,0,0-1.61,5.32,1.82,1.82,0,0,0,.21.71,2.28,2.28,0,0,0,1,.79,82.93,82.93,0,0,0,8.88,4.1L76.85,41a2.59,2.59,0,0,0,2-2.92,6.69,6.69,0,0,0-2.09-3l-2.13-2.08a5.27,5.27,0,0,0,2.68-1.61,1.06,1.06,0,0,0,.29-.5,1.17,1.17,0,0,0-.15-.63q-1.17-2.52-2.33-5Z"/><path class="cls-1" d="M73.23,40.28a4.46,4.46,0,0,0,.82,5,13.16,13.16,0,0,0,4.49,2.92,2.26,2.26,0,0,0,2.09.23c.66-.41.69-1.36.54-2.13a15.3,15.3,0,0,0-1.3-3.55c-.45-1-1.1-2-2.16-2.13s-2,.67-2.73.08Z"/><path class="cls-1" d="M76.44,35.58c-.73-1.06,0-2.6,1-3.3a9.83,9.83,0,0,1,3.68-1.05,18.1,18.1,0,0,0,6-2.28c1-.59,4.05-4.05,4.67-3.87a4.45,4.45,0,0,1,1.34.92c1.61,1.21,3.88.72,5.83,1.23a8.62,8.62,0,0,1,2.56,1.43c7.34,5.13,13.42,11.8,19.42,18.4l4.87,5.36c2.26,2.48,4.49,5.19,3.46,8.65-1.43,4.78-5,8.62-8.76,11.9-6.44,5.58-13.56,9.81-22.08,10.48-2.14.17-4.58.18-6.09-1.36A7.75,7.75,0,0,1,91,80a113.76,113.76,0,0,1-5.89-13.85c-1-3.13-1.76-6.34-2.75-9.48a61.9,61.9,0,0,0-5.75-12.81Z"/><path class="cls-2" d="M74,23.3c.91,2.36,1.92,4.7,3,7,.4.83.91,1.74,1.81,2a3.75,3.75,0,0,0,2.42-.66c1.72-.86,3.62-1.29,5.41-2A7.87,7.87,0,0,0,91,26a1.65,1.65,0,0,0,.21-1,2,2,0,0,0-.35-.76L89.55,22.2a1.57,1.57,0,0,0-.34-.42,1.42,1.42,0,0,0-.69-.23,16.87,16.87,0,0,0-7.91.8Z"/><path class="cls-2" d="M53.23,9l-4.87,1.75a1.55,1.55,0,0,0-.91.61,1.58,1.58,0,0,0,0,1.17l1.08,3.58a19.66,19.66,0,0,0,5.83.33,2.11,2.11,0,0,0,2.46,1.75,28.25,28.25,0,0,0,1.37,5,2.88,2.88,0,0,0,.78,1.3,4.68,4.68,0,0,0,1.24.58,3.6,3.6,0,0,1,2.28,3,2.58,2.58,0,0,1-2.3,2.7,27.6,27.6,0,0,1,3.22,8.29l1.08,4c.26,1,.88,2.24,1.91,2.07s1.18-1.29,1.25-2.2a41.32,41.32,0,0,0-1.19-13.06c-.34-1.3-.73-2.72-.2-4,.16-.37.4-.71.54-1.09.46-1.24-.19-2.61-.11-3.92a4.94,4.94,0,0,1,2.37-3.62,22.07,22.07,0,0,1,4.07-1.87A30.11,30.11,0,0,0,84.93,6.88C86.58,4.9,88,2.57,88.17,0c-2.68.82-5.55.6-8.36.59A56.7,56.7,0,0,0,52.86,7.28Z"/><path class="cls-3" d="M74.35,23.65l.82,2a2.23,2.23,0,0,0,1,1.28,2.19,2.19,0,0,0,1,.11,15.82,15.82,0,0,1,4.61.08A4.35,4.35,0,0,1,85.09,30a.59.59,0,0,0,.18.36c.15.1.35,0,.51-.07a37.1,37.1,0,0,0,4.46-2.75A3.41,3.41,0,0,0,92,25.06a3.49,3.49,0,0,0-.6-1.71L90.6,21.9a1.76,1.76,0,0,0-.8-.88,2,2,0,0,0-.61-.08c-4.09,0-8.3-.05-12.12,1.43Z"/><path class="cls-3" d="M66.14,45.33A28.83,28.83,0,0,0,63.83,32,33.84,33.84,0,0,1,62,27.48c-.42-1.53-.48-3.14-.9-4.67a5.26,5.26,0,0,0-2.78-3.65c-.77-.31-1.75-.43-2.1-1.18a49.1,49.1,0,0,0,12.16-.82,8.2,8.2,0,0,0-2.24,2.19,2.83,2.83,0,0,0-.1,3c.58.82,1.54,1.21,2.1,2.07C64.93,25.33,65.57,30.6,66,33c.7,4,1.76,7.91.94,12Z"/><path class="cls-3" d="M48.38,13.72l3.82-.93a4.66,4.66,0,0,0,2.08-.88,1.61,1.61,0,0,0,.39-2l2.45-.46a9.52,9.52,0,0,1,2.39,5.29c-.27-2.42,3.69-6.5,5.58-7.46A58.94,58.94,0,0,1,75.81,3.41a23.66,23.66,0,0,1,11-.55c-.11,1.94-2.56,3.62-3.72,5.07a25.84,25.84,0,0,1-5.6,5.4c-5.88,4-13.43,4.55-20.57,4.55a3,3,0,0,1-1.49-.25c-.35-.2-.61-.54-1-.76A3.71,3.71,0,0,0,53,16.4l-4.53-.84Z"/><path class="cls-4" d="M83.36,8.27c.78,1.42,2.77,2.05,3.08,3.63a2.62,2.62,0,0,1-.92,2.34,6.21,6.21,0,0,1-2.33,1.19c-4,1.27-8.17,1.38-12.32,1.42Q74,15.53,77,14.05c2.22-1.08,4.62-2.48,5.29-4.85Z"/><path class="cls-4" d="M67.68,25a3.19,3.19,0,0,0,3.53-2.57c.17-1.13-.07-2.69,1-3.06a2.29,2.29,0,0,1,1.16,0c6.91,1.23,13.78-4,20.67-2.69,5.11,1,9,5.34,14.14,6.37a20.6,20.6,0,0,0,7.42-.21,131.54,131.54,0,0,0,19.9-5,5.13,5.13,0,0,1,2.77-.39c1.59.36,2.43,2.07,3,3.6A64.28,64.28,0,0,1,144,30.8,173.43,173.43,0,0,1,112.31,38c-.82.17-5.77-5.18-6.64-5.91-2-1.66-4-2.91-5.59-4.95a1.64,1.64,0,0,0-.46-.45,1.69,1.69,0,0,0-.84-.12,25.17,25.17,0,0,1-4.15-.28A7.12,7.12,0,0,1,91,24.83,4.17,4.17,0,0,1,89.67,21c-4.2.61-8.39,1.17-12.61,1.65a8.42,8.42,0,0,0-4.21,1.28c-1.2.92-2.48,2.6-3.81,1.85Z"/><path class="cls-4" d="M74.14,25.69c-.35,2-2.06,3.34-3.16,5a2.72,2.72,0,0,0-.47,1,2.2,2.2,0,0,0,.69,1.88A5.6,5.6,0,0,0,73,34.7a4.9,4.9,0,0,1,1.37.79,1.44,1.44,0,0,1,.47,1.44c-.28.83-1.36,1-2.23,1H71.09a8.42,8.42,0,0,0,3.79,2.49,3,3,0,0,0,2.92-.29A2.29,2.29,0,0,0,78.45,39a4.07,4.07,0,0,0-1-3.72,6.11,6.11,0,0,0-3.53-1.78,6.1,6.1,0,0,1,2.54-1.77c.5-.19,1.12-.4,1.21-.93a1.28,1.28,0,0,0-.14-.69,37,37,0,0,0-3.23-6.37Z"/><path class="cls-4" d="M73.45,43.32a5.09,5.09,0,0,0,2.76,3.22.54.54,0,0,0,.52,0,.44.44,0,0,0,.19-.29,3.28,3.28,0,0,0-.83-2.76,5.06,5.06,0,0,1-1.3-2.65h1.82a1.12,1.12,0,0,1,.55.09,1,1,0,0,1,.3.28,20.71,20.71,0,0,1,2.18,3.3,5.11,5.11,0,0,1,.73,2.23,2.07,2.07,0,0,1-1.08,1.95,1.32,1.32,0,0,1-1.82-.9Z"/><path class="cls-4" d="M54.27,26.63a1.61,1.61,0,0,0,.85,1.51,3.15,3.15,0,0,0,1.77.33A2.8,2.8,0,0,0,59,27.54a1.36,1.36,0,0,0-.44-2c0-.37.55-.33.87-.14a7.88,7.88,0,0,1,2,1.59A2.64,2.64,0,0,1,62,29.34a2.63,2.63,0,0,1-1.77,1.55,7.86,7.86,0,0,1-2.42.21c-.68,0-1.58-.23-1.6-.91Z"/><path class="cls-4" d="M54.49,30.9c-.84.78-.33,2.27.59,3A24,24,0,0,0,58.2,35.3c1,.54,1.89,1.71,1.47,2.77-.18.44-.57.86-.45,1.32a2.12,2.12,0,0,0,2.24-.17A6.21,6.21,0,0,0,63,37.45a1.72,1.72,0,0,0,.42-1,1.66,1.66,0,0,0-.38-.88,16.57,16.57,0,0,0-5.41-4.16L57,31.07l-2.4-1.37Z"/><path class="cls-4" d="M85.1,30.18l2.3,2.56C90.35,36,93.3,39.32,96,42.83a82.39,82.39,0,0,1,11.56,20.89c1.69,4.51,2.93,9.79.54,14-.88,1.54-2.21,2.82-2.93,4.44,6.94-1.8,12.38-7,17.47-12.09a23.38,23.38,0,0,0,5.1-6.39,2.68,2.68,0,0,0,.32-1.26,2.93,2.93,0,0,0-1-1.67c-8.2-9-16.45-18-23.71-27.77a9.47,9.47,0,0,1-1.55-2.7,9.16,9.16,0,0,0-.46-1.57c-.78-1.62-2.93-1.89-4.73-2s-4-.38-4.69-2a11.93,11.93,0,0,1-5.5,4.82Z"/><path class="cls-4" d="M83,31.45a4,4,0,0,0-1.44,3.79,12.22,12.22,0,0,0,1.46,4A305.4,305.4,0,0,1,98.13,74.69c1.17,3.32,2.7,7.08,6.05,8.17l-8.3-.11a2.48,2.48,0,0,1-1.29-.26,2.15,2.15,0,0,1-.76-1c-1-2.2-1.26-4.65-1.76-7a67.46,67.46,0,0,0-3-9.39q-3.72-9.91-7.43-19.81a5.25,5.25,0,0,0-1-1.9c-.49-.49-1.19-.8-1.52-1.41a3.47,3.47,0,0,1-.28-1.51,9.28,9.28,0,0,0-1.46-4.35A7.06,7.06,0,0,1,76,33.65c-.17-.91.44-2,1.37-2a8.28,8.28,0,0,0,.87.12c.29,0,.59-.32.46-.58s-.63.11-.37.24Z"/><path class="cls-5" d="M45,12.05c-13.9,2.69-28.54-.27-42.26,3.21C-.71,24-1.44,34.54,3.74,42.4c1.38,2.09,3.14,4,4.19,6.22L44.71,21.86a14.94,14.94,0,0,0,3.78-3.48,5.1,5.1,0,0,0,.69-4.89C48.45,11.92,46.31,11,44.87,12Z"/><path class="cls-6" d="M135.46,32.31a99.48,99.48,0,0,1-11.7,3.37c-2,.41-4,.73-6,1-1.11.16-2.22.3-3.33.4a9.93,9.93,0,0,0-1.56.22,57.23,57.23,0,0,0-12.19-9.56,1.8,1.8,0,0,0,.94-.5.39.39,0,0,0-.18-.65,3.65,3.65,0,0,0-1.61,0,9.53,9.53,0,0,1-1.51.05,10.12,10.12,0,0,1-3.08-.63,9.16,9.16,0,0,1-4.3-3.48.52.52,0,0,0,0-.25c-.37-1.67-2.11-2-3.57-1.79-2.26.27-4.51.69-6.76,1s-4.55.41-6.53,1.26c-1.6.69-3.22,2.55-5.09,2.2s-2.65-2.83-2-4.51c.76-1.95,2.66-3.16,4.49-3.95s4-1.38,5.8-2.39A25.66,25.66,0,0,0,82,10.81a.27.27,0,0,0,.08-.24l.19-.16a14.93,14.93,0,0,0,1.15-1.23c.4-.46.8-.92,1.19-1.39,3.12,1.4,6.46,2.37,9.63,3.66a80.34,80.34,0,0,1,10.17,5,.48.48,0,0,0,.56,0,6.49,6.49,0,0,0,3.16-.08c1.63-.25,3.25-.57,4.88-.88s3.12-.6,4.66-1A18.25,18.25,0,0,0,122.16,13c.36-.2.23-.9-.23-.84a35,35,0,0,0-4.23,1.09q-2.15.51-4.32.9c-1.51.28-3,.53-4.54.85-.73.16-1.46.36-2.2.46-.53.08-1.12,0-1.65,0l0,0A80.91,80.91,0,0,0,95,10.68,52.7,52.7,0,0,0,85,7.38l.8-1a12.67,12.67,0,0,0,1.74-2.83A6.52,6.52,0,0,0,88,1.94a3.3,3.3,0,0,0,0-1.29A.31.31,0,0,0,87.8.34a.51.51,0,0,0-.72-.15A52.75,52.75,0,0,0,77.93.3a87.7,87.7,0,0,0-9.28,1.13,76.24,76.24,0,0,0-9,2.08,17.43,17.43,0,0,0-6.88,3.6.19.19,0,0,0-.24.2,12.81,12.81,0,0,0,.08,1.39,6.59,6.59,0,0,0-1.31.47l-1.58.7c-.55.26-1.1.52-1.63.8a1.31,1.31,0,0,0-.81,1.14,8.51,8.51,0,0,0,.35,1.65c.15.61.29,1.22.44,1.83a1.33,1.33,0,0,0,1,1.13h0c-7.71,6.88-15.69,13.42-23.64,20-.1.08,0,.25.13.17C33.92,30.49,41.86,23.79,49.64,17a.32.32,0,0,0,.09-.41c.35.06.7.1,1,.14a12.49,12.49,0,0,0,2,.05,7.31,7.31,0,0,0,1.66-.17c.08.32.16.64.26,1A1.43,1.43,0,0,0,56,18.67a16.91,16.91,0,0,1,1,2.69c-1.31.89-2.84,1.71-3.45,3.26a5.18,5.18,0,0,0,.75,4.72,5.07,5.07,0,0,0-1.37,4.55,5,5,0,0,0,1.06,2.34A7.1,7.1,0,0,0,56.4,38c.49.23,1,.45,1.44.72s.87.61,1.32.9a2.63,2.63,0,0,0,2.67.31,3,3,0,0,0,1-.73,26.56,26.56,0,0,0,.93,3.21,8.35,8.35,0,0,0,1.06,2.83,1.58,1.58,0,0,0,2.13.38,2.84,2.84,0,0,0,1-2.59c0-2.07-.07-4.16-.22-6.24a1,1,0,0,0,.1.17A5,5,0,0,0,69.11,38c.63.4,1.27.8,1.91,1.18s1,.56,1.51.83a2.11,2.11,0,0,1,0,.26c0,.43-.06.86-.09,1.29a5.31,5.31,0,0,0,.39,2.39,8.65,8.65,0,0,0,3.29,3.77,6.89,6.89,0,0,0,3.53,1.49c2,6.68,4.18,13.3,6.32,19.92,1,3,1.82,6.15,3.09,9.07,1,2.39,2.66,4.72,5.18,5.71s5.64.58,8.27-.05a35.72,35.72,0,0,0,8.53-3.47A50.75,50.75,0,0,0,125,69.27c3.4-3.87,7-9.55,3.44-14.27a.88.88,0,0,0-.09-.21c-.93-1.32-2.13-2.49-3.18-3.72L122,47.32c-2.17-2.54-4.37-5.07-6.66-7.51-.56-.6-1.13-1.2-1.71-1.78.35,0,.71,0,1.07-.05,1.08-.06,2.17-.14,3.25-.25,1.92-.19,3.83-.5,5.73-.87a64.4,64.4,0,0,0,12.11-3.53C136.35,33.07,136.12,32.08,135.46,32.31ZM93.9,26.83a4.22,4.22,0,0,0-1.11.92A22.27,22.27,0,0,1,91,29.29,24.79,24.79,0,0,1,86.61,32a18.11,18.11,0,0,1-4.75,1.55,15,15,0,0,1-2.41.23,5,5,0,0,1-1.34-.08,1.56,1.56,0,0,1-1-.74.31.31,0,0,0,0-.31l.14-.06.44-.21a.74.74,0,0,0,.17-.12A.55.55,0,0,0,78.4,32a5.57,5.57,0,0,0,1,.18,9.48,9.48,0,0,0,2.32,0,13.54,13.54,0,0,0,4.49-1.51A19.71,19.71,0,0,0,90,28.22c.72-.62,1.91-1.78,1.91-2.87A9.15,9.15,0,0,0,93.9,26.83Zm-17.74,7c-.25-.13-.5-.25-.76-.36l.24-.11.58-.28a1.38,1.38,0,0,0-.09.53A1.46,1.46,0,0,0,76.16,33.82Zm6.93-11.37,3.34-.5a4.73,4.73,0,0,1,2.84.06c0,.13,0,.26.06.39a4.31,4.31,0,0,0,.22.49l.41.86c.13.28.27.57.4.86s.2.42.31.62c-.14.25-.25.51-.41.75A6.71,6.71,0,0,1,89,27.37a18.68,18.68,0,0,1-3.42,2.21,15.93,15.93,0,0,1-3.89,1.48,8.27,8.27,0,0,1-2.11.22c-.36,0-.83-.11-1.24-.1-.59-1.28-1.15-2.57-1.72-3.86-.29-.67-.57-1.35-.9-2-.24-.46-.47-1-.75-1.43a7.07,7.07,0,0,1,1.52-.44C78.68,23.07,80.89,22.78,83.09,22.45ZM86.8,1c0,.31,0,.63,0,.92a5.47,5.47,0,0,1-.43,1.48A13,13,0,0,1,84.73,6L82.8,8.58c-.53.73-1.12,1.39-1.67,2.1a38.33,38.33,0,0,1-8.9,4.37,18.08,18.08,0,0,0-2.26,1c-3.32.3-6.59.9-9.91,1.21a20.87,20.87,0,0,0-.57-2.46c1.19-4.05,4.63-7.32,8.19-9.38a31,31,0,0,1,6.68-2.78c2-.62,4.18-1,6.24-1.62C82.66,1,84.73,1,86.8,1ZM57.28,17.45c-.06-.21-.13-.42-.19-.62-.13-.49-.27-1-.41-1.48-.29-1-.57-2-.9-3s-.65-2-1-2.91c-.16-.45-.3-.9-.49-1.33a3.16,3.16,0,0,0-.46-.87A15.19,15.19,0,0,1,55.74,6c.59,2,1.27,4,1.95,6a40.9,40.9,0,0,1,1.53,5.32c-.39,0-.77.06-1.16.07ZM60.71,4.14a82.39,82.39,0,0,1,8.64-2c2.39-.42,4.8-.72,7.22-.93-.95.25-1.89.51-2.81.79a31,31,0,0,0-7.07,3.07,20,20,0,0,0-5,4.26,12.2,12.2,0,0,0-2.5,4.34c-.2-.65-.42-1.29-.63-1.93-.69-2-1.38-4-2.16-6A27.94,27.94,0,0,1,60.71,4.14ZM53.59,15.5l-.93.09a14.25,14.25,0,0,1-2,0c-.31,0-.62-.06-.92-.11l-.29,0a6.34,6.34,0,0,0-.15-1.74,5.31,5.31,0,0,0-1-2,2.76,2.76,0,0,1,.61-.37l.83-.44q.82-.43,1.68-.84a13.17,13.17,0,0,0,1.28-.59A43.13,43.13,0,0,0,53.8,14c.12.45.23.91.34,1.36Zm1.15-2.08a43,43,0,0,1-1.66-5.68l.09,0,.28-.22c0,.18.07.36.1.55.09.5.24,1,.38,1.48.3,1,.57,2,.86,3.06s.59,2,.88,2.95L56.09,17c0,.12.07.24.1.37-.34-.16-.39-.49-.54-1C55.35,15.4,55,14.41,54.74,13.42Zm-.18,11.67c.43-1.22,1.71-1.91,2.76-2.59a9.63,9.63,0,0,0,.53,1.24,7.45,7.45,0,0,0,.43.71,11.74,11.74,0,0,0-1.67.13c-.45.07-.34.81.11.8,1.64-.05,3.63.16,4.73,1.53a2,2,0,0,1-.94,3.4,14.26,14.26,0,0,1-2.69.18,3.28,3.28,0,0,1-1.21,0c-.33-.15-.64-.71-.86-1C54.79,28.24,54,26.69,54.56,25.09Zm6,6.41c.1.34.22.68.34,1,.06.16.12.31.17.47a16.51,16.51,0,0,0-2.45-1.33A11.37,11.37,0,0,0,60.58,31.5Zm1.27,7.11a1.58,1.58,0,0,1-2.09.08,23,23,0,0,0-2.15-1.37c-1.42-.71-2.93-1.35-3.47-3a4.14,4.14,0,0,1,.75-4.05,4.72,4.72,0,0,0,1,1.13,2.18,2.18,0,0,0,1.37.27c1.32,1,2.92,1.54,4.09,2.72S63.2,37.37,61.85,38.61Zm3.74,6.11c-.4-.26-.54-1.08-.67-1.49-.18-.62-.37-1.24-.55-1.85a14.15,14.15,0,0,0-1.06-3,3.76,3.76,0,0,0-.21-3.28A5.56,5.56,0,0,0,62,33.72s0-.06,0-.09c-.1-.44-.21-.89-.32-1.33s-.17-.71-.28-1.06a3.2,3.2,0,0,0,1.42-4.3,4.49,4.49,0,0,0-2.38-2.12,5.16,5.16,0,0,0-1.26-.31c-.08-.13-.18-.26-.26-.39a8,8,0,0,1-.43-.82A13.12,13.12,0,0,1,58,21.55a21.65,21.65,0,0,0-.87-2.84,50,50,0,0,0,6.12-.48c1.5-.18,3-.39,4.48-.65a6.62,6.62,0,0,0-1.82,2.63,5,5,0,0,0,.7,4.6c-1.27,1.06-1.26,2.84-1,4.42a71.44,71.44,0,0,1,1.1,7.86c.09,1.25.15,2.5.19,3.75C66.92,41.5,67.32,45.83,65.59,44.72Zm3.75-8.15c-.75-.51-.75-1.16-.78-2A6,6,0,0,1,69.28,31c1.23-1.88,3.65-2.67,4.69-4.68.17-.33-.2-.82-.56-.56-.88.65-1.73,1.35-2.6,2A12.46,12.46,0,0,0,68.41,30a5.77,5.77,0,0,0-1.12,3c-.15-1.09-.33-2.17-.56-3.25-.3-1.38-.75-3.24.51-4.24a3.45,3.45,0,0,0,1.08.6,4.39,4.39,0,0,0,3.54-.55c.91-.5,1.71-1,2.57-1.42.08.18.16.36.22.54.14.37.27.74.41,1.1.27.68.56,1.36.83,2,.48,1.18,1,2.36,1.45,3.53a4,4,0,0,0-.57.32l-.79.47-.79.47a1.28,1.28,0,0,0-.45.35,2.43,2.43,0,0,1-.14.2l-1.11-.37c-.22-.07-.37.27-.16.37a10.51,10.51,0,0,1,3.53,2.26,3.53,3.53,0,0,1,.75,3.85,3.57,3.57,0,0,1-.45,1.06l0,.08-.46-.11a15.49,15.49,0,0,1-1.74-.59,26,26,0,0,1-3.8-2C70.51,37.32,69.92,37,69.34,36.57Zm7.28,9.83a7.13,7.13,0,0,1-2.81-3A6,6,0,0,1,73.44,41c0-.16,0-.37,0-.58.38.18.75.36,1.14.52.75.3,2.23,1,3.11.63a1.34,1.34,0,0,0,.11.14c.24.29.47.6.68.91a17.08,17.08,0,0,1,1.17,1.93c.33.64,1.52,2.68.46,3.2a2,2,0,0,1-1.6-.24A15.31,15.31,0,0,1,76.62,46.4ZM121,48l3.19,3.77a45.33,45.33,0,0,0,3,3.46c3.77,4.46-.19,10-3.34,13.54a49.94,49.94,0,0,1-12.33,10,39.87,39.87,0,0,1-7.85,3.55c-2.59.8-5.74,1.46-8.42.7-2.84-.8-4.5-3.38-5.57-6s-1.88-5.46-2.78-8.19c-2.18-6.59-4.29-13.21-6.65-19.74l.26-.07c1.77-.7,1.37-2.76.78-4.14a17.56,17.56,0,0,0-1.39-2.6c-.27-.42-.56-.82-.87-1.22a3.52,3.52,0,0,0-.57-.63l.23-.6a5.06,5.06,0,0,0,.38-1.92,4.19,4.19,0,0,0-1.81-3.37.36.36,0,0,0,0-.27,3.38,3.38,0,0,0,1.12.34,13.78,13.78,0,0,0,6.1-.75,23.49,23.49,0,0,0,5.88-2.95,26.73,26.73,0,0,0,2.39-1.85c.55-.47,1.59-1.17,1.69-1.95l.21.1a9.53,9.53,0,0,0,3.49.78,11.4,11.4,0,0,0,1.65-.08,84.71,84.71,0,0,1,14.84,12.81C116.85,43.08,118.94,45.52,121,48Z"/><path class="cls-6" d="M37.31,12.62a57.63,57.63,0,0,0,7-.35c.22,0,.14-.34-.05-.36a59,59,0,0,0-7.4.1c-2.47.06-4.93.11-7.39.21a119.72,119.72,0,0,0-14.31,1v.12c4.89.26,9.9-.17,14.79-.37C32.38,12.88,34.85,12.73,37.31,12.62Z"/></g></g></svg>