<svg xmlns="http://www.w3.org/2000/svg" viewBox="0 0 96.88 120.65"><defs><style>.cls-1{fill:#77f;}.cls-2{fill:#372b7b;}.cls-3{fill:#e1e1ff;}.cls-4{fill:#fff;}</style></defs><title>preventn02</title><g id="Layer_2" data-name="Layer 2"><g id="OBJECTS"><path class="cls-1" d="M84,2.79l4.53.09c.62,0,1.37,0,1.69-.58A1.23,1.23,0,0,0,89.68.72,3.53,3.53,0,0,0,87.86.39H80.73a17.36,17.36,0,0,0-4.55.38,2,2,0,0,0-1,.51.79.79,0,0,0-.05,1,1.12,1.12,0,0,0,.6.25,27.1,27.1,0,0,0,5.89.56c0,.33-.05.69-.08,1h2.65A4.79,4.79,0,0,1,84,2.79Z"/><path class="cls-2" d="M82.3,3.68a.43.43,0,0,0-.17-.33l1.6-.05c0,.14-.07.27-.11.4a3.78,3.78,0,0,0-.06.47h.81a2.54,2.54,0,0,0-.07-.47c0-.14-.07-.28-.11-.42a45.14,45.14,0,0,0,5.33-.51.35.35,0,0,0,.17,0l.27,0a.41.41,0,0,0,.34-.38A1.2,1.2,0,0,0,90.66.72C90.17-.07,89.09,0,88.29,0Q84.06.1,79.83.32c-1.31.07-2.66.08-4,.25-.79.1-1.42.62-1.26,1.48s1.16,1.28,2,1.33c1.36.08,2.72,0,4.08,0l.85,0a.42.42,0,0,0-.15.32v.49h.87ZM78.81,2.45c-.63,0-1.27,0-1.91,0a2.65,2.65,0,0,1-.84-.1c-.33-.13-.76-.51-.18-.73a6.56,6.56,0,0,1,1.72-.1l1.78-.09,3.86-.15,3.56-.08,1.79,0c.47,0,1.62,0,.69.65h0c-2.26.19-4.51.45-6.78.57C81.27,2.43,80,2.46,78.81,2.45Z"/><path class="cls-1" d="M81.48,5.38c0,.11,0,.22,0,.33C81.63,5.66,81.6,5.44,81.48,5.38Z"/><path class="cls-1" d="M96.74,13.08A6.41,6.41,0,0,0,96.56,11a2.45,2.45,0,0,0-1.25-1.57,49.94,49.94,0,0,1-5.94.84c.14-.45-.25-.82-.31-1.29a6.21,6.21,0,0,0-1.29-.13l0-.27c0-.77-.42-1.35-.46-2.12a1.37,1.37,0,0,0-.3-.93,1.23,1.23,0,0,0-.6-.24,5.09,5.09,0,0,0-2,0,7.32,7.32,0,0,0-.18-1.17H81.54a9.9,9.9,0,0,0-.06,1.21c.12.06.15.28,0,.33,0-.11,0-.22,0-.33s0,0,0,0a18.64,18.64,0,0,0-2.94.58,1.06,1.06,0,0,0-.64.32,1.14,1.14,0,0,0-.11.73l.12,1.54a14.09,14.09,0,0,0-2.43,0,.31.31,0,0,0-.19.06.26.26,0,0,0,0,.19,2.19,2.19,0,0,0,.38,1.14h0l.25,0c0,.12-.18.07-.25,0-3-.32-6.33-.56-8.89.94A11.74,11.74,0,0,0,64,13.16a7.42,7.42,0,0,0-1.87,3,8.38,8.38,0,0,0,0,3.31l-.69.82a2.32,2.32,0,0,0-.83,1.29,1.5,1.5,0,0,0,.72,1.31,4.07,4.07,0,0,0,1.48.51,12.13,12.13,0,0,0,6.55-.27,2.07,2.07,0,0,0,1.18-.88,1.17,1.17,0,0,0-1.1-1.7,2.75,2.75,0,0,1,.48-2,3.62,3.62,0,0,1,1.54-1.06,10.67,10.67,0,0,1,4.68-.32c-.16.12.15.42.29.57A.92.92,0,0,0,77,18a8.88,8.88,0,0,0,3.32-.18,30,30,0,0,1,7.46-.28,2.54,2.54,0,0,0,1.5-.15.87.87,0,0,0,.35-1.27c1.94-.23,3.57-.5,5.52-.73a3.94,3.94,0,0,1,1.37,0l.07,0C97,14.71,96.72,13.93,96.74,13.08Z"/><path class="cls-1" d="M75.83,10l-.25,0C75.65,10,75.84,10.07,75.83,10Z"/><path class="cls-3" d="M63.27,23.52a1.44,1.44,0,0,1-.42-1.72,1.46,1.46,0,0,1,1.62-.73c-.06-2-.08-4.19,1.06-5.85a6.74,6.74,0,0,1,2.59-2.11,11.53,11.53,0,0,1,7.3-1l.24-.95q6.93-.11,13.84-.57a4.61,4.61,0,0,1-.13,2.6l-14,.11-.24,1.49a16.92,16.92,0,0,0-4.49-.16,5.68,5.68,0,0,0-3.86,2.1,7.8,7.8,0,0,0-1.12,4.12,1,1,0,0,1,.92-.14,11.58,11.58,0,0,1-.13,2.56Z"/><path class="cls-1" d="M56.09,60.17c.06-2.83-.88-3.33-2-3.46-2.33-2.08-2.77-3.4-.94-4.47s4.09.88,4,.63-2.58-2.52-1.63-4,7.55,2.84,7.55,2.84-.76-19.52-.94-22.54-.7-6.17-.7-6.17a49.4,49.4,0,0,0,5.1.57,13.13,13.13,0,0,0,2.9-.13L70.82,47.9s2.58-5.23,5.42-4.85,1.26,3.27,1.26,3.27,1.57-2.89,4.4-1.63-.5,6.1-.5,6.1-2.64-2.26-5-.44c-1-2.45-5.29-3.33-7.24-.82a5.47,5.47,0,0,0-1,5.1s-2.39-.06-2.58,1.33c-2.27-.32-4.28-.13-5.41,4.47A4.23,4.23,0,0,0,56.09,60.17Z"/><path class="cls-3" d="M71.75,47.14a5.87,5.87,0,0,1,1.75-1.76,1.37,1.37,0,0,1,1.25-.26c.54.26.58,1,.7,1.58a2,2,0,0,0,.61,1.15,1.19,1.19,0,0,0,1.23.24c.48-.21.7-.75.94-1.23a7,7,0,0,1,1.65-2.18,2,2,0,0,1,1.42-.63c.85.08,1.32,1.06,1.33,1.91A7.59,7.59,0,0,1,81,50a3,3,0,0,1,0-1.33c0-.45-.17-1-.61-1.07a1.1,1.1,0,0,0-.87.4,8.26,8.26,0,0,1-2.85,2.2,1.49,1.49,0,0,1-.91.05,2.17,2.17,0,0,1-1-.86,4.41,4.41,0,0,0-1.39-1.19,2.14,2.14,0,0,0-1.78-.1,6.08,6.08,0,0,1-.76.22Z"/><path class="cls-3" d="M66.13,23.72c0,.29.19,15.87.76,13.79s.75-14.26.75-14.26Z"/><path class="cls-3" d="M63.51,24S64.62,42,64.81,46.76s1.42-2.73,1.61-5.85.75,13.79.75,13.79a2.24,2.24,0,0,0-1.89,1.7l-1.7-.29L61.48,23.6Z"/><path class="cls-4" d="M40.42,76.1a90,90,0,0,0,11.71-5.16c4-2.39,19.13-13.35,21.65-15s5-3.15,6.68-1.52.12,3.4-1.64,5S65.47,71.57,65.47,71.57s6.17-3.65,10-5.79S85.62,59.23,87,58.47s1.26-.56,1.26-.56.13-2.14-1.76-1.83l-3,.5s.31-8.81-7-6.23c-2-3.65-6.05-2.2-7.18-.56a12.2,12.2,0,0,0-1.39,4.78A3.35,3.35,0,0,0,65.66,56c-1.26-.13-4.22,1.07-4.78,2.39a4.16,4.16,0,0,0-.51,1.76s-3.33-.76-4.28.06c-.56,3.15-4.66,6.93-8.5,8.56S40.35,75.41,40.42,76.1Z"/><path class="cls-3" d="M67.8,81.77l14.92-8.88c7.26-4.33,8-5.29,8.06-5.48s.13-3.21-1.83-3.27c-6.54,5.35-22.47,17.75-22.47,17.75Z"/><path class="cls-3" d="M80.08,58.16c.12-.19,4.78-2.08,6.42-2.08a1.57,1.57,0,0,1,1.76,1.32S76.3,65.15,75,66.09a80.14,80.14,0,0,1-8.75,4.85C66.35,70.69,80.08,58.16,80.08,58.16Z"/><path class="cls-3" d="M55.34,61.81a5.51,5.51,0,0,1,5,.94c.31-2.58,5.22-3.71,5.22-3.71-.06-2.14,4.22-2.33,4.22-2.33.51-5.22,4.85-6.29,6-4.85-2,2.14-2,2.58-2,2.58s2.64-2.95,5.48-2.26,4.53,3.08,4.4,3.9-.37.82-.37.82l-2.46.76S82,55,79.7,54.07s-3.09.56-6.36,2.58S56.34,68,55.08,68.8,48,73.9,46,74.59s-5.8,2.14-5.8,2.14a9.75,9.75,0,0,1,3.78-5.23c2.9-1.82,8.94-4.53,9.82-6A20,20,0,0,0,55.34,61.81Z"/><path class="cls-4" d="M2.46,97.47c17.31-10.16,23.73-21.62,27.13-25.9s16.49-9.07,18.76-11A21,21,0,0,1,54.9,57c.88-.12,2.39.63,1.51,3.4s-5.29,7.43-9.32,9.45-6.42,3.77-6.93,6.92a85.47,85.47,0,0,0,16.75-9.32c3.65-2.77,14.48-8.94,16.24-11.08s6.8-3.9,7.81-2-.76,5.16-5.67,8.43a61.66,61.66,0,0,0-9.82,8.82s8.19-4,11-6.17S87.65,56.29,91.28,58c1.64.76-.75,5.29-2.77,6.67S72.65,77.11,71.77,78s-5.92,4.41-5.92,4.41a61.56,61.56,0,0,0,11-5.29c4.91-3.15,10.33-7.93,12-8.82s5.53-1.38,4.4,2.14-6.8,9.45-9.94,11.71-11,7.81-13,9.2a13.71,13.71,0,0,0-2.9,2.51s5.79-2.39,8.69-4.78S85,83.53,87,84s1.89,1.77-.5,3.91-7.3,6.42-10.45,8.18-16.37,10.58-24.93,12-23.92,3.4-27.07,5.29-6.3,3.65-6.3,3.65Z"/><path class="cls-3" d="M79.45,54.07C80.71,57,68.12,65.4,65.35,67.16S55.53,75.09,56.66,76s3.52-.88,3.52-.88S76.43,62.25,78.44,60.24,83.6,54.82,79.45,54.07Z"/><path class="cls-3" d="M89.27,57.34c1,1.26-1,3.78-4.66,6.93S64.84,78.74,63,80.26,61.07,85,65.85,82.4,86.37,67.29,88.51,64.64,94.68,59.48,89.27,57.34Z"/><path class="cls-3" d="M91.79,67.54c.12,2.27-8.69,11.71-14.1,14.48s-13.6,9.19-14.61,10.83,2.64,1,6.3-1.14,14.47-9.82,16.36-12S95.56,70.31,91.79,67.54Z"/><path class="cls-3" d="M87,84c-.12,1.39-14.35,12.22-23.42,15.87s-27.32,3.52-35.38,4.78-23,11-23,11l6.05,4s16.24-9.19,24.55-9.56S55,109.21,68.12,101s19.64-13.35,20.27-15S87,84,87,84Z"/><path class="cls-3" d="M42.93,75.47S34.37,80,34.37,79.63a17.72,17.72,0,0,1,6.3-10.08C45.58,65.9,54.9,61.62,55.9,57.84c.25,4.54-3.65,8.31-7,10.2S39.16,74.09,42.93,75.47Z"/><path class="cls-3" d="M0,91.84C10,85.67,19.39,79.12,22.41,74s3.9-6.8,8.06-8.94S50.7,53.65,51.35,54s-.36,4.75-.74,4.75S36.89,64,33.37,68.55A146.12,146.12,0,0,1,22.16,81.39C17.75,85.92,4,97.13,4,97.13Z"/><path class="cls-2" d="M91.39,66.64h-.16a3.92,3.92,0,0,0-.32-1.11,3.36,3.36,0,0,0-1-1.25A12.42,12.42,0,0,0,91,63a5.29,5.29,0,0,0,1.25-4c-.36-1.66-2.17-2.22-3.68-2h0a1.2,1.2,0,0,0,0-.19c-.16-.79-1-1.06-1.72-1.07a11.41,11.41,0,0,0-2.77.43l-.15,0a7.57,7.57,0,0,0-1.84-5.69,3,3,0,0,0,.78-.82,6.43,6.43,0,0,0,.9-1.77,3.62,3.62,0,0,0-.45-3.21,2.89,2.89,0,0,0-3.15-.92,4.57,4.57,0,0,0-1.83,1.07,3.32,3.32,0,0,0-.16-1,2.14,2.14,0,0,0-2.33-1.45,5.47,5.47,0,0,0-3,1.74,7.27,7.27,0,0,0-1.64,2.68q-.3-5.16-.62-10.31c-.12-2-.21-4-.38-6.06a27.22,27.22,0,0,0-.69-5.92c-.09-.29-.58-.34-.64,0a25.68,25.68,0,0,0,0,5.68c.06,2.1.21,4.2.33,6.3q.33,6,.67,12h0a6.14,6.14,0,0,0-2.3,5.65,2.81,2.81,0,0,0-2.46,1.51,2.66,2.66,0,0,0-1.25-.07.41.41,0,0,0,0-.16A60.82,60.82,0,0,1,63.55,48q-.07-4.06-.27-8.13T62.77,32c-.19-2.44-.15-5.34-1-7.66,0-.12-.27-.17-.3,0a18.61,18.61,0,0,0,0,3.73c.08,1.47.21,2.95.3,4.42.18,2.87.3,5.75.39,8.62s.11,5.59.09,8.38c0,.54,0,1.07,0,1.61A16.52,16.52,0,0,0,59.6,49.2,6.83,6.83,0,0,0,56.28,48a1.62,1.62,0,0,0-1.57,2,3.3,3.3,0,0,0,.82,1.44l.32.33a4.62,4.62,0,0,0-1.68-.27,3,3,0,0,0-2.43,1.28,2,2,0,0,0-.23.49,2.4,2.4,0,0,0-1.56.13c-3.26,1.12-6.33,3.11-9.29,4.84q-5.13,3-10.12,6.26c-.88.59-1.79,1.16-2.62,1.83-2.73,2.2-4.75,5.21-6.94,7.93a55.63,55.63,0,0,1-8.83,8.59c-1.71,1.35-3.48,2.61-5.25,3.86-1.51,1.08-3.51,2-4.69,3.49a.21.21,0,0,0,.2.34,15.24,15.24,0,0,0,3.88-2.24c1.49-1,3-1.95,4.41-3a69.53,69.53,0,0,0,7.31-6A79.16,79.16,0,0,0,24.55,72a28.48,28.48,0,0,1,4.8-4.88A155.22,155.22,0,0,1,46.56,56.62a25.43,25.43,0,0,1,3.88-1.83l.46-.14A1,1,0,0,0,51,55a4.3,4.3,0,0,1-2,3.43.57.57,0,0,0-.31.64c-3.31,1.83-6.89,3.13-10.14,5.09a52.6,52.6,0,0,0-8.93,6.7,62.18,62.18,0,0,0-7.45,8.91,55.93,55.93,0,0,1-8.91,9.6c-3.44,2.92-7.18,5.47-10.87,8.07-.57.4,0,1.33.56,1,6-3.78,12.06-7.75,16.83-13.07,2.52-2.81,4.54-6,6.9-8.95a43.91,43.91,0,0,1,7.76-7.53,52.06,52.06,0,0,1,9.33-5.64,62.27,62.27,0,0,0,9.07-5c.8-.55,2-1.23,2.43.08a3.68,3.68,0,0,1-.09,2,8.21,8.21,0,0,1-1.36,2.9,16.77,16.77,0,0,1-5.11,4.16c-4,2.39-8.55,4.72-9.5,9.71a.76.76,0,0,0,1.46.41c-.09.28.1,0,.29-.14s.43-.27.66-.39c.73-.41,1.48-.78,2.24-1.14,1.33-.63,2.68-1.21,4-1.87a53.44,53.44,0,0,0,6-3.82c2.36-1.59,4.75-3.12,7.17-4.61s4.93-3,7.32-4.68c2.15-1.49,4.13-3.18,6.24-4.73A9.07,9.07,0,0,1,78,54.46c1.62-.35,3.41.49,2.39,2.36a13.41,13.41,0,0,1-2.77,3c-1,1-2.11,2-3.2,2.91-4.82,4.2-9.94,8-14.89,12.06-.68.56.29,1.5,1,1,3.54-2.84,7.77-4.69,11.66-7,4.29-2.51,8.16-5.65,12.35-8.31a17.07,17.07,0,0,1,3.44-1.92c.81-.29,2.44-.5,2.91.51s-.58,2.72-1.28,3.49a53.84,53.84,0,0,1-5.41,4.71c-1.93,1.6-3.89,3.18-5.87,4.72C73.59,75.64,68.79,79.14,64,82.62a.73.73,0,0,0,.56,1.32c8.73-2.35,15.71-8.41,22.88-13.61A29.72,29.72,0,0,1,90,68.56c.8-.46,2.06-.5,2.15.67a3.83,3.83,0,0,1-.7,2.15,28.77,28.77,0,0,1-4.09,5.42,72.71,72.71,0,0,1-10.52,8.8c-3.64,2.65-8.13,4.47-11,8.07-.49.62.14,1.71.93,1.2a10.59,10.59,0,0,1,1.87-.79c1-.41,2-.81,3-1.25a29.21,29.21,0,0,0,3.53-2.19l5.09-3.28A13.55,13.55,0,0,1,85.45,85a3,3,0,0,1,1.44,0c.71.29.45.94,0,1.44a15.94,15.94,0,0,1-2,1.65c-2.9,2.3-5.83,4.55-8.85,6.69a84.72,84.72,0,0,1-18.91,10.5,53.5,53.5,0,0,1-10.46,2.8c-3.88.61-7.83.63-11.7,1.28-8.65,1.47-17.09,5.31-24.6,9.73a.83.83,0,0,0,.84,1.44c7.35-4.32,15.53-8,24-9.49,4.3-.76,8.69-.73,13-1.51a54.87,54.87,0,0,0,11.17-3.35A94.4,94.4,0,0,0,79.29,94.41c1.54-1.14,3.06-2.31,4.57-3.49a34.37,34.37,0,0,0,4.28-3.5c.89-1,1.25-2.57.12-3.5s-3.2-.56-4.52-.13A25.74,25.74,0,0,0,78,86.93c-2.11,1.37-4.19,2.8-6.34,4.1a12.8,12.8,0,0,1-1.86.91c2.64-2,5.77-3.59,8.42-5.53a65.72,65.72,0,0,0,11.1-9.62,21,21,0,0,0,4-5.94C94,69.21,93.49,66.82,91.39,66.64ZM71.87,47.31a6.78,6.78,0,0,1,3.48-3.68c.79-.31,1.59-.15,1.77.75a4.73,4.73,0,0,1-.23,2.11c-.15.54.6,1,1,.58A6.72,6.72,0,0,1,80,45.13a1.8,1.8,0,0,1,2.4.52,2.66,2.66,0,0,1-.06,2.41,14.39,14.39,0,0,0-1.07,1.81,4.43,4.43,0,0,0-4.79-.19,4.79,4.79,0,0,0-5.28-1.88v-.27A.46.46,0,0,0,71.87,47.31ZM52.36,56.09a3.75,3.75,0,0,0,.51.38c-.25.12-.49.25-.74.4A4.6,4.6,0,0,0,52.36,56.09ZM54.64,56a.34.34,0,0,0-.12-.09,4.72,4.72,0,0,1-1.62-1.05,1.2,1.2,0,0,1-.07-1.56c1-1.21,2.83-.42,4,.09a.56.56,0,0,0,.81-.62,4.6,4.6,0,0,0-1.43-2.16c-.26-.31-.65-.87-.42-1.29s.72-.33,1.08-.25a9.55,9.55,0,0,1,2.75,1.23A28.72,28.72,0,0,1,62.25,52c0,.63,0,1.25,0,1.87a2.33,2.33,0,0,0,.54,1.91,5.08,5.08,0,0,0-1.88,1.25,4.49,4.49,0,0,0-1.14,2.33,3.36,3.36,0,0,0-1.37-.16,2.31,2.31,0,0,0-1.4.51,4.11,4.11,0,0,0-.44-2.53A2.1,2.1,0,0,0,54.64,56Zm24.51-3c-2.53-.18-4.74,1.58-6.59,3.07A94.72,94.72,0,0,1,64.29,62c-2.72,1.74-5.5,3.38-8.23,5.11s-5.42,3.7-8.28,5.26c-1.56.85-3.26,1.5-4.86,2.27-.37.18-.87.38-1.38.61,1.76-3.34,5.65-5.06,8.82-7a16.61,16.61,0,0,0,4.94-4.31,10.14,10.14,0,0,0,1.58-3.61c.51,0,1-.18,1.5-.17a2.42,2.42,0,0,1,1.52.59.61.61,0,0,0,1-.43A3.3,3.3,0,0,1,62,57.73,3.37,3.37,0,0,1,63.3,57a4.27,4.27,0,0,1,1.42-.14,2.71,2.71,0,0,0,.52,1.66,3,3,0,0,0-.42.27,2.18,2.18,0,0,0-.68,2.69.39.39,0,0,0,.68-.39,1,1,0,0,1,0-.9,1.73,1.73,0,0,1,.62-.77A4.33,4.33,0,0,1,68.09,59a.49.49,0,0,0,.47-.36c.1-.71-.81-.63-1.23-.61a7.3,7.3,0,0,0-.94.09l-.31.06A1.84,1.84,0,0,1,68,55.25a.57.57,0,0,0,.69-.68c-.41-2,.34-4.52,2.33-5.45a3.61,3.61,0,0,1,4.82,1.71.58.58,0,0,0,.91.11c1.3-1.28,3.5-.8,4.66.44a6.9,6.9,0,0,1,1.42,5.16c-.36.14-.72.31-1.07.48,0,0,0,0,0-.05C82.61,54.94,81.23,53.2,79.15,53.05Zm2.29,7.77c-2.38,1.63-4.71,3.35-7.11,5-1.7,1.13-3.48,2.13-5.28,3.12,2.25-1.8,4.48-3.61,6.64-5.52,1.13-1,2.25-2,3.34-3.08a23.06,23.06,0,0,0,1.76-1.8c.21-.12.42-.24.64-.34a13,13,0,0,1,1.45-.59.56.56,0,0,0,1-.3A16.36,16.36,0,0,1,86,56.82c.33,0,1.42-.26,1.52.24a.46.46,0,0,0,0,.14,12.62,12.62,0,0,0-2.24,1.11C84,59.1,82.72,60,81.44,60.82Zm7.08,6.93c-1.07.74-2.12,1.51-3.16,2.28-2,1.5-4,3-6.07,4.51a59.28,59.28,0,0,1-10.46,6.32c3.39-2.49,6.76-5,10.07-7.57,2.29-1.79,4.56-3.61,6.78-5.48,1.14-1,2.42-1.89,3.57-2.93a2.65,2.65,0,0,1,.4.37l.08.08,0,0,.12.18.12.21,0,.08,0,0a2.83,2.83,0,0,1,.14.41l0,.21v.3A6.79,6.79,0,0,0,88.52,67.75Z"/><path class="cls-2" d="M96.51,15.21a3.6,3.6,0,0,0-1.73-.14l-1.67,0-1.61,0c-.45,0-.89.06-1.33.11.06-1.58.06-3.15,0-4.73a6.37,6.37,0,0,0,.76,0l1.55-.08c1-.05,2.08-.05,3.1-.17a.54.54,0,1,0,0-1.07c-1,0-2.11.17-3.16.26l-1.55.13c-.25,0-.49.07-.73.12,0-.3,0-.6,0-.9a.79.79,0,0,0-.78-.78H87.89c0-.15,0-.31,0-.46s0-.47-.07-.71c-.06-.4-.11-.81-.17-1.21a.32.32,0,0,0-.56-.12,4.66,4.66,0,0,0-2-.51l-.67,0,0-.73s0-.08,0-.12h-.81s0,.08,0,.12c0,.23,0,.47,0,.7-.28,0-.57,0-.86,0l-.35,0c0-.3,0-.59,0-.89h-.87c0,.33,0,.67,0,1-.35.06-.71.12-1.07.2s-.76.18-1.13.29a1.79,1.79,0,0,0-.82.46l0,0a.6.6,0,0,0-.67.13,1.11,1.11,0,0,0-.26.73,1.61,1.61,0,0,0,0,.38,2.41,2.41,0,0,0,.22.75c-.7,0-1.4.09-2.1.19a.38.38,0,0,0-.33.5c-.08.34-.16.69-.22,1a.24.24,0,0,0-.17-.11c-3.43-.59-7.41-.21-10.2,2a9.85,9.85,0,0,0-2.89,3.81,6,6,0,0,0-.29,4.48L61,20c-.67-.11-1,.76-.55,1.08a1.85,1.85,0,0,0,1,2.52,6.31,6.31,0,0,0,2,.39l1,.07A123.91,123.91,0,0,0,65,39.35c0,.45.73.46.71,0-.24-5.06-.18-10.13.07-15.2h0c1.32.07,3,.37,4.13-.44,1-.68,1.54-2.27.48-3.15a.65.65,0,0,0-.37-.14,1.9,1.9,0,0,1,.68-2.34,3.32,3.32,0,0,1,1.87-.49,7.88,7.88,0,0,1,1.09,0l.51.07c.1,0,.23.05.33.05a1.87,1.87,0,0,0,.4-.07.48.48,0,0,0,.34-.28.14.14,0,0,0,0,.06s0,0,0,0a.5.5,0,0,0,0,.7c.73.69,2.16.34,3.08.31l3.7-.12,7.26-.23a.79.79,0,0,0,.77-.77c0-.33,0-.65,0-1a11.73,11.73,0,0,0,1.33.12l1.67,0,1.6,0a3.88,3.88,0,0,0,1.8-.13A.75.75,0,0,0,96.51,15.21Zm-27.75,7.4a8,8,0,0,1-2.85.07c-1,0-2.07,0-3.1-.06a2.07,2.07,0,0,1-1.22-.29c-.22-.18-.42-.59-.2-.84a.42.42,0,0,0,.1-.17,21.25,21.25,0,0,0,7.83,0,.26.26,0,0,0,0,.08C69.66,21.89,69.24,22.44,68.76,22.61Zm6.31-5.92a2.83,2.83,0,0,0-.36-.16,2,2,0,0,0-.42-.05l-.67-.05a7.5,7.5,0,0,0-1.34,0,4,4,0,0,0-2.32,1A3.1,3.1,0,0,0,69,19.87a25.77,25.77,0,0,1-6.5.3.48.48,0,0,0,.09-.32,11,11,0,0,1-.12-2,6.1,6.1,0,0,1,.54-1.95,8.72,8.72,0,0,1,2.61-3.26c2.6-2,5.94-2.21,9.1-2.32a.31.31,0,0,0,.19-.09,18.06,18.06,0,0,0-.2,3,23,23,0,0,0,.2,2.35c0,.36.09.73.16,1.1Zm3.62-9.77a.71.71,0,0,0,0-.26h0a1.9,1.9,0,0,0,.58,0c.36-.07.72-.13,1.09-.18a17,17,0,0,1,2.25-.12c.73,0,1.46,0,2.19.08a7.71,7.71,0,0,0,2,.13c0,.12,0,.23,0,.35s-.06.47-.07.71,0,.31,0,.47c-1.45,0-2.91,0-4.36,0-1.24,0-2.47,0-3.7,0,0-.06,0-.11,0-.15a2.3,2.3,0,0,1-.1-.35V7.27A1.4,1.4,0,0,1,78.69,6.92Zm9.87,9.75L82,16.9,78.47,17l-1.74.06c-.08-.55-.25-1.09-.35-1.65a20.75,20.75,0,0,1-.27-2.24,30.78,30.78,0,0,1,0-4c2.13.16,4.27.21,6.41.29s4.06.15,6.09.11C88.69,12,88.68,14.32,88.56,16.67Z"/><path class="cls-3" d="M55.73,56.07a1.75,1.75,0,0,1-1.57-1.43,1.35,1.35,0,0,1,1.33-1.5,3.52,3.52,0,0,1,1,.39,3.73,3.73,0,0,0,1.92.31c0-.68-.63-1.18-1.08-1.69s-.84-1.26-.48-1.83a1.22,1.22,0,0,1,1.29-.44,3.65,3.65,0,0,1,1.27.65l2.36,1.65c-.49.26-1.08-.13-1.63,0a1.41,1.41,0,0,0-1,1.53,8.37,8.37,0,0,0,.57,1.93.93.93,0,0,1,0,.73c-.14.26-.47.35-.74.46s-.57.34-.52.63a.76.76,0,0,0,.32.41,2.56,2.56,0,0,1,.76.81.92.92,0,0,1-.08,1A1.05,1.05,0,0,1,59,60a3.41,3.41,0,0,1-2.75-.39,3.88,3.88,0,0,0-.45-2.48Z"/></g></g></svg>