<svg xmlns="http://www.w3.org/2000/svg" viewBox="0 0 94.06 123.53"><defs><style>.cls-1{fill:#fff;}.cls-2{fill:#e1e1ff;}.cls-3{fill:#b7b7ff;}.cls-4{fill:#77f;}.cls-5{fill:#6363eb;}.cls-6{fill:#372b7b;}</style></defs><title>preventn05</title><g id="Layer_2" data-name="Layer 2"><g id="OBJECTS"><path class="cls-1" d="M35.47,34.3c-.5-2-3.28-2.71-5-1.62a5.71,5.71,0,0,0-2.25,5.38,5.79,5.79,0,0,0,.81,2.6c1.14,1.76,3.43,2.43,5.53,2.41q.84,12.41.76,24.84a12.89,12.89,0,0,0,13,2.32A6.72,6.72,0,0,0,51.49,68c1.8-2.6-.23-8.12,2.79-9.54,1.28-.61,3.35-.12,4.76-.47a8.57,8.57,0,0,0,5-3.16c4.42-6.21,3.6-15.1,3.43-22.22a74.47,74.47,0,0,1,.47-10.23c.34-2.93.79-6.14-.79-8.63-2-3.16-6.3-3.74-10-3.94-6.18-.34-13-.34-17.76,3.53a13.33,13.33,0,0,0-4.89,10.85c.05,1,.16,2.14-.55,2.83Z"/><path class="cls-2" d="M44.85,18.18C50,21.66,56,25.17,62,23.73q-.84,8.76-1.69,17.54c-5.44-.26-11.13-.48-16.08,1.79A2.39,2.39,0,0,0,43,44a2.53,2.53,0,0,0-.13,1.37q.49,5.69,1.34,11.34a28.41,28.41,0,0,1-5.53-.36,9.36,9.36,0,0,0,5.26,4.31,2.12,2.12,0,0,1,1.29.75,1.87,1.87,0,0,1,.12,1.15q-.44,4.42-.89,8.85c2.8,1.17,6.09-.94,7.31-3.71s.94-5.95.63-9c3-.19,6.14-.56,8.73-2.11,3.2-1.91,3.46-3.51,4.34-7.12s2.52-9.28,2.43-13q-.28-11.46-.56-22.94l-1.64.21Z"/><path class="cls-3" d="M45.69,58c-.74-.19-.67-4.7-.34-5.36,1.26-2.55,4.68-1.06,7-1.4A7.19,7.19,0,0,0,56,49.81,7.58,7.58,0,0,0,58,46.87a19.85,19.85,0,0,0,1.4-5.3,7.3,7.3,0,0,0,4,.91,3.7,3.7,0,0,1,2,.14c1,.49,1.06,1.78,1,2.85a20.07,20.07,0,0,1-.8,5.93,11.07,11.07,0,0,1-8.25,7.2c-2.91.56-5.92-.09-8.88.12Z"/><path class="cls-4" d="M0,104.29c2.21-8.62,4.75-17.78,11.47-23.62,7-6,17.28-7.42,23.61-14.14a10.54,10.54,0,0,0,9.79,5.15c4-.33,7.14-3.05,8.83-6.58,2.56,3.51,7,4.13,11,5a21.54,21.54,0,0,1,11,7c6.53,7.4,7.23,17.15,13.33,24.79A42.33,42.33,0,0,1,93.71,108a1.85,1.85,0,0,1,.31,1.35,2,2,0,0,1-.71.89c-3.64,2.94-8.22,4.42-12.68,5.82-15.48,4.82-32,9.32-47.7,5.23-6.93-1.81-13.32-5.22-19.63-8.6Z"/><path class="cls-5" d="M8.46,114.44q2.64-6.94,5.27-13.9a20.63,20.63,0,0,1,3.17-6.17A1.52,1.52,0,0,1,18,93.7c.61,0,1,.65,1.24,1.22a56.49,56.49,0,0,1,4.1,17.74c.18,2.3.15,4.91-1.47,6.55-1.37,1.37-3.5,1.65-5.44,1.5a42,42,0,0,0-5.79-.54Z"/><path class="cls-5" d="M45.79,71.46c.34,3.1,4.31,4.27,6,6.87a10.08,10.08,0,0,1,1.3,4.33c1.47,11.24.58,22.64,1.14,34A13.78,13.78,0,0,0,55.66,123c4.14,1.14,8.58.43,12.68-.84s8-3.09,12.15-4.23c.81-.22,1.75-.54,2-1.35a2.48,2.48,0,0,0-.29-1.58c-2.1-5.17-2.24-10.89-2.82-16.44S77.56,87.17,73.82,83c-3-3.32-7.25-5.17-11.24-7.21s-8-4.55-10-8.57A6.84,6.84,0,0,1,47,71.4Z"/><path class="cls-6" d="M28.26,23.77a23.36,23.36,0,0,0,1.27,4.65c.29.74.61,1.47,1,2.18.25.49,1,1.3.84,1.88-1.81-.09-3.12,2.8-3.32,4.22a6.33,6.33,0,0,0,2.31,5.91,4.27,4.27,0,0,0,2.26.82,21.61,21.61,0,0,1,2.09,9.45c0,1.42-.06,2.84,0,4.27,0,1.68.06,3.36.14,5A16.56,16.56,0,0,1,35,65.1c-.15,1.16-1.09,1.66-2,2.32a2,2,0,0,0-.32.26c-.09.1-.17.21-.25.31a.36.36,0,0,0,0,.47.36.36,0,0,0,.46.09l.32-.18a1.64,1.64,0,0,0,.32-.27l.54-.52.75-.74a10.5,10.5,0,0,0,9.78,5.75,10.92,10.92,0,0,0,9.33-6.68c.25-.61-.81-1.06-1.07-.45a4.59,4.59,0,0,1-.26.49,18.9,18.9,0,0,0-.06-3.76c0-1-.13-1.93-.24-2.89,3.4.05,6.86-.37,9.71-2.39s4.32-5.38,4.91-8.8a54.09,54.09,0,0,0,.63-7.19c.07-1.8.11-3.61.2-5.41.07-1.41.13-2.82.16-4.23a10,10,0,0,1,0-1.9c.12-.51.59-.86.83-1.32a7,7,0,0,0,.53-1.92c.17-.82.31-1.66.41-2.49a20.34,20.34,0,0,0,.17-2.46,4,4,0,0,0-.48-2.53A3.78,3.78,0,0,0,70.84,17a10.81,10.81,0,0,0,.59-4.63,7.64,7.64,0,0,0-.38-2.08,13.09,13.09,0,0,0-5.76-7.8l-.44-.26-.09,0-.9-.48-.08,0,0,0C58.6-.8,52.34-.19,47,1.33c-4.87,1.38-9.81,4.36-11.56,9.09-.07.11-.13.22-.19.33-.22,0-.44,0-.66.05a8.41,8.41,0,0,0-7.15,5.42c-.78,2.19-.26,4.59.51,6.7Zm38.53,8.4c-.15,3.51-.31,7-.52,10.54-1.75-.37-3.37-1.25-5.09-1.76a18.49,18.49,0,0,0-6.41-.66,30.51,30.51,0,0,0-6.27,1.16c-1.08.31-2.14.65-3.21,1a6.41,6.41,0,0,0-2.36,1c-1.33-1.68-2.65-3.37-3.92-5.09-.69-.92-1.36-1.86-2-2.8l-.65-1a.58.58,0,0,0,0-.19,63.25,63.25,0,0,0-.52-11.83A7,7,0,0,0,39.52,21,6.74,6.74,0,0,0,41,19.37a4.06,4.06,0,0,0,.43-1,25.06,25.06,0,0,0,5.38,1.71,47.74,47.74,0,0,0,9.32,1c3.05.07,6.52.41,9.49-.45a7.66,7.66,0,0,0,1.15-.46A99.6,99.6,0,0,1,66.79,32.17Zm.64-12.35Zm-38.37,17a4,4,0,0,1,2.64-3.37,3.3,3.3,0,0,1,3.12.67c.1.18.24.37.38.58.32.5.65,1,1,1.48.68,1,1.37,2,2.08,3,1.39,1.95,2.83,3.83,4.37,5.66a.54.54,0,0,0,.23.15,31.73,31.73,0,0,0,0,6.75,23.44,23.44,0,0,0,.69,3.59A57.41,57.41,0,0,1,39,50.84c-1.11-1.28-2.12-2.67-3.12-4a1,1,0,0,1-.12-.59c0-1.43.08-2.83.06-4.25a.49.49,0,0,0-.83-.34,2.87,2.87,0,0,1-1.78.82.47.47,0,0,0-.33,0,3.55,3.55,0,0,1-2.42-1.06A5.46,5.46,0,0,1,29.06,36.84Zm22.3,29.64a.6.6,0,0,0,.72.41,9.68,9.68,0,0,1-7.61,4.48,10.06,10.06,0,0,1-8.7-4.7l.06-.06a3.4,3.4,0,0,0,.18-2.1c0-.77-.06-1.55-.08-2.32,0-1.11-.07-2.21-.1-3.31.05-1.93,0-3.86,0-5.77,0-1.57,0-3.14,0-4.71a36.6,36.6,0,0,0,7,8c-.34-.16-.68-.33-1-.52a.6.6,0,0,0-.61,1c3,1.83,6.78,2.27,10.24,2.38h.11c-.12,1-.2,1.91-.25,2.9A15,15,0,0,0,51.36,66.48ZM63,54.45a6.16,6.16,0,0,1-2.36,1.9C56.53,58,52,57.88,47.6,57.51a3.54,3.54,0,0,1-2.24-.68,4.73,4.73,0,0,1-.74-2,33.66,33.66,0,0,1-.8-3.55,26.28,26.28,0,0,1-.35-3.76,15.74,15.74,0,0,1,.19-3.37,12.16,12.16,0,0,0,1.93-.57c1-.29,2-.58,3-.83a33.48,33.48,0,0,1,6.59-1,16.78,16.78,0,0,1,6.4.89,35.21,35.21,0,0,0,4.58,1.54,1.48,1.48,0,0,1,0,.21C65.94,47.85,65.37,51.71,63,54.45Z"/><path class="cls-6" d="M50.35,34.4l-.19.1h0l-.1,0a1.27,1.27,0,0,0-.34.2c.19-.14,0,0,0,0l-.18.1h0l-.1,0-.23.05h-.35l-.13,0h0l-.25-.06-.1,0h0l-.21-.1L48,34.59l0,0-.08-.08-.07-.07,0,0-.12-.22a.49.49,0,0,0-.6-.2.5.5,0,0,0-.28.57,2.25,2.25,0,0,0,1.88,1.66,2.69,2.69,0,0,0,1.38-.09,1.52,1.52,0,0,0,.81-.52,1.85,1.85,0,0,0,.23-.62.52.52,0,0,0-.18-.52A.48.48,0,0,0,50.35,34.4Z"/><path class="cls-6" d="M48.75,34.91Z"/><path class="cls-6" d="M60.77,35.31s0,0,0,0v0Z"/><path class="cls-6" d="M61.5,35.62h0Z"/><path class="cls-6" d="M62.94,34.38l-.41.42c-.12.12-.23.26-.35.39l-.21.2h0l-.12.08-.12.07,0,0-.07,0-.1,0h0c-.07,0-.05,0,0,0H61.3l-.2-.06-.08,0-.07,0-.15-.15,0,0h0l0,0h0l0,0h0l0-.07a.51.51,0,0,0-1,0,1.42,1.42,0,0,0,0,.71,1.27,1.27,0,0,0,.52.67,2,2,0,0,0,1.25.38A2.44,2.44,0,0,0,63,36.28a2.51,2.51,0,0,0,.54-.59c.12-.19.22-.4.32-.6a.59.59,0,0,0-.15-.75A.58.58,0,0,0,62.94,34.38Z"/><path class="cls-6" d="M48.76,29l.52-.14a1.11,1.11,0,0,0,.68-.29c.21-.25.26-.75-.12-.91a.77.77,0,0,0-.56-.08l-.26.08-.54.19a9.89,9.89,0,0,0-1.16.5,10.56,10.56,0,0,0-2,1.3c-.42.34.13,1.06.58.75A9.62,9.62,0,0,1,48.76,29Z"/><path class="cls-6" d="M64.58,30.26a5.12,5.12,0,0,0-3-.71.39.39,0,0,0-.38.38.38.38,0,0,0,.38.37,4.2,4.2,0,0,1,.61.13l.35.11.13.05h0l.08,0a4.36,4.36,0,0,1,.6.33l.27.19c-.13-.12,0,0,0,0l.13.12a.67.67,0,1,0,.81-1Z"/><path class="cls-6" d="M70.39,46.07A25.72,25.72,0,0,1,74.15,45a4.18,4.18,0,0,0,0,1.72c.21.94,1,1.1,1.83.91,2.15-.48,4.3-1,6.45-1.5.73-.17.42-1.28-.31-1.12l-4.77,1-1.14.25-.57.13s-.22,0-.26,0a2.64,2.64,0,0,1,0-1,7.86,7.86,0,0,1,.25-1.17.64.64,0,0,0-.78-.78A26.47,26.47,0,0,0,70.09,45C69.44,45.26,69.7,46.33,70.39,46.07Z"/><path class="cls-6" d="M74,55.71a1.36,1.36,0,0,0,1.13,1.34A3.52,3.52,0,0,0,76.27,57l1.34-.17,2.53-.32A.73.73,0,1,0,80,55.06c-1.42.19-2.84.42-4.27.58-.13,0-.3,0-.24.07a1.63,1.63,0,0,1,0-.62,2.66,2.66,0,0,0-.19-1.5.68.68,0,0,0-.77-.32l-1.8.39-.81.17-.11,0a.55.55,0,0,0-.39-.14.69.69,0,0,0-.47,1.11c.4.58,1.24.29,1.81.18l1.37-.26q0,.13,0,.24A4.48,4.48,0,0,0,74,55.71Z"/><path class="cls-6" d="M90.94,107.1c-3.8-6.8-5.78-14.44-9.13-21.45-3-6.23-7.71-13.23-14.9-14.94-1.92-.46-3.91-.59-5.84-1a12.59,12.59,0,0,1-2.82-.86,4.54,4.54,0,0,1-2.1-2.16.29.29,0,0,0-.54,0l-.15-.09-.09-.06h0l0,0-.19-.19-.1-.1h0l0,0L54.84,66l-.06-.13v0l0-.06a.35.35,0,1,0-.68.18A2.71,2.71,0,0,0,55.3,67.5a.35.35,0,0,0-.19.19C50.55,78,38.09,78,32.49,68.85a.16.16,0,0,0-.05-.08l-.22-.35c-.12-.22-.5-.07-.41.17s.1.23.14.34A109.92,109.92,0,0,1,21.23,74.5c-3.62,1.71-7.49,3.35-10.68,5.8a21.37,21.37,0,0,0-6.22,8.19A41.71,41.71,0,0,0,1,100.05c-.09.7,1,.78,1.19.16,1.22-3.82,1.79-7.76,3.5-11.43a19.33,19.33,0,0,1,6.74-8.22c6.38-4.12,13.54-6.79,19.7-11.29C36.69,80,52,78.83,56,68.08a.39.39,0,0,0,0-.3,4.53,4.53,0,0,0,2.51,2.15,25.19,25.19,0,0,0,5.29,1.2,18.29,18.29,0,0,1,4.72,1.2,18.91,18.91,0,0,1,4.9,3.2c5.95,5.33,8.8,13.3,11.61,20.55a86.15,86.15,0,0,0,5.08,11.51A.48.48,0,0,0,90.94,107.1Z"/><path class="cls-6" d="M33,39.58a.7.7,0,0,0,.93-.45,1.56,1.56,0,0,0,.11-.51,2.67,2.67,0,0,1,0-.4,2.78,2.78,0,0,0-.06-.86,2.11,2.11,0,0,0-.8-1.29,1.56,1.56,0,0,0-1.34-.27,1.27,1.27,0,0,0-.81.82,1,1,0,0,0,.26,1.14.21.21,0,0,0,.29-.29.57.57,0,0,1-.07-.61.73.73,0,0,1,.19-.29.54.54,0,0,1,.27-.14.85.85,0,0,1,.73.23l.08.09.05,0L33,37l0,.06h0l0,.12,0,.14v.4h0a2.09,2.09,0,0,1-.08.34l0,.07h0l0,.06h0a1.76,1.76,0,0,0-.24.42A.69.69,0,0,0,33,39.58Z"/><path class="cls-6" d="M72,101.08c-.75-5.26-1.22-10.58-2.14-15.82,0-.14-.25-.1-.25,0A141.53,141.53,0,0,0,71,101.21q.47,3.72,1,7.43c.37,2.57.46,5.58,1.42,8a.44.44,0,0,0,.86-.12c.09-2.41-.68-5-1.07-7.4C72.73,106.44,72.33,103.76,72,101.08Z"/><path class="cls-6" d="M18.86,96a21.62,21.62,0,0,0-.3,4.41c-.09,1.51-.19,3-.29,4.53q-.32,4.71-1,9.38c-.11.77,1.06,1.09,1.16.33.42-3.11.74-6.23.94-9.35.1-1.57.15-3.14.16-4.71A17.59,17.59,0,0,0,19.34,96,.25.25,0,0,0,18.86,96Z"/><path class="cls-6" d="M57.65,46.56c-.69,0-1.38,0-2.07,0-1.4,0-2.81.07-4.21.17-.72.06-.73,1.15,0,1.13,1.38,0,2.76,0,4.13,0l2,.12a6.16,6.16,0,0,0,2.14,0,.62.62,0,0,0,.14-1.11A5.22,5.22,0,0,0,57.65,46.56Z"/><path class="cls-6" d="M58.46,52.18a17.59,17.59,0,0,1-8.59.11.44.44,0,0,0-.23.85,16,16,0,0,0,9.18.33A.67.67,0,0,0,58.46,52.18Z"/><path class="cls-1" d="M42,9.31a23.5,23.5,0,0,1,6.7-3.57c2.55-.81,4.94-.51,7.53-.77a1.16,1.16,0,0,0,.3-2.27C51.29.88,44.49,4.09,41.07,8.05,40.52,8.69,41.27,9.89,42,9.31Z"/><path class="cls-1" d="M61.85,6.35a1.75,1.75,0,0,0,0-3.5A1.75,1.75,0,0,0,61.85,6.35Z"/></g></g></svg>