<svg xmlns="http://www.w3.org/2000/svg" xmlns:xlink="http://www.w3.org/1999/xlink" viewBox="0 0 63.75 96.78"><defs><style>.cls-1{fill:#6c0d0f;}.cls-1,.cls-10,.cls-11,.cls-12,.cls-13,.cls-2,.cls-3,.cls-4,.cls-5,.cls-6,.cls-8,.cls-9{fill-rule:evenodd;}.cls-2{fill:#59080c;}.cls-3{fill:#c62026;}.cls-4,.cls-7{fill:#b21924;}.cls-5{fill:#e6b5a3;}.cls-6{fill:url(#linear-gradient);}.cls-8{fill:#e7baa8;}.cls-9{fill:#d68982;}.cls-10{fill:#f0d3c8;}.cls-11{fill:#8e1a20;}.cls-12,.cls-14{fill:#fff;}.cls-13{fill:#f4dcb1;}</style><linearGradient id="linear-gradient" x1="31.81" y1="31.68" x2="31.81" y2="41.44" gradientUnits="userSpaceOnUse"><stop offset="0" stop-color="#ed1c24"/><stop offset="1" stop-color="#fff" stop-opacity="0"/></linearGradient></defs><title>symptom04</title><g id="Layer_2" data-name="Layer 2"><g id="OBJECTS"><path class="cls-1" d="M14.2,11.58S6.56,22.87,15,38.69c4.44,8.3,3.1-3.15,1.39,1.34s11.43,7,11.43,7H39.36l5-3s16-21.2,3.81-36.18C42.91,1.41,37.05,3,37.05,3,21.18-7,14.2,11.58,14.2,11.58Z"/><path class="cls-2" d="M49.57,22.08c-.82.79.31,5.35-1.64,8.47s-5,5-5.91,2.45,2.23-7.77,3.51-10.48-1.12-5-3.58-6.13S38.16,10,38.16,10c2,2.28,5.94,3.28,4.2,1.75S37.71,6,40.88,7.39s10.38,11.81,8.95,8.08S39.91,0,36,4.93,21.19,10.2,25.64,11.07,35.92,6.41,34,9.74s-9.72,5.83-13.55,7-2.41,5.17-1.28,9.89-2.46,7.45-4.35,4.84-1.07-9-2.35-6.19c-.49,1.09-.43,3.95-.14,7.08A35.6,35.6,0,0,0,15,38.69a17.45,17.45,0,0,0,1.24,2,2.26,2.26,0,0,1,.15-.7c1.53-4,2.76,4.68-.15.7a3.06,3.06,0,0,0,1.41,2.45L24.62,43c1.74,0,19.43-.81,19.93-.81a7,7,0,0,0,1.26-.23,51,51,0,0,0,4.76-9.56C51.56,26.16,50.39,21.29,49.57,22.08Z"/><path class="cls-3" d="M15.17,36.64S-2.14,69.82.22,72.82c0,0,3.35,7.69,11.55,8.69S15.17,36.64,15.17,36.64Z"/><path class="cls-4" d="M6.21,63.42s-4,3.52-4,7a8,8,0,0,0,7.09,7.79c4.45.56,8.28-3.3,7.42-8.9S6.21,63.42,6.21,63.42Z"/><path class="cls-3" d="M48.58,36.64s17.31,33.18,15,36.18c0,0-3.34,7.69-11.55,8.69S48.58,36.64,48.58,36.64Z"/><path class="cls-4" d="M48.81,61.79,47.2,64.47c.15,9.41,1.29,17.47,4.78,17a13.35,13.35,0,0,0,2.65-.59Z"/><path class="cls-3" d="M51.24,79.57c-.13-4.19-2.51-17.39-2.51-17.39,1.35-5.72-.14-25.54-.15-25.54-3.5-.72-6.76-1.21-8.33-1.77s-2.34-.83-2.72-.4a7.42,7.42,0,0,1-5.65,3,7.42,7.42,0,0,1-5.66-3c-.38-.43-1.14-.17-2.71.4s-4.83,1.05-8.34,1.77c0,0-1.5,19.82-.15,25.54,0,0-2.38,13.2-2.51,17.39S8.85,90.51,9.29,91.33c0,0,8.27,5.86,22.59,5.43,14.31.43,22.59-5.43,22.59-5.43C54.91,90.51,51.37,83.76,51.24,79.57Z"/><path class="cls-5" d="M31.81,19.9h0a4.88,4.88,0,0,1,4.87,4.87V34.1A4.88,4.88,0,0,1,31.81,39h0a4.88,4.88,0,0,1-4.87-4.87V24.77A4.88,4.88,0,0,1,31.81,19.9Z"/><path class="cls-6" d="M31.81,19.9h0a4.88,4.88,0,0,1,4.87,4.87V34.1A4.88,4.88,0,0,1,31.81,39h0a4.88,4.88,0,0,1-4.87-4.87V24.77A4.88,4.88,0,0,1,31.81,19.9Z"/><path class="cls-7" d="M17.93,63.39l-3.46-11h0A51,51,0,0,0,15,62.18s-.08.45-.21,1.21Z"/><path class="cls-7" d="M45.82,63.39l3.47-11h0a50,50,0,0,1-.56,9.84s.08.45.21,1.21Z"/><path class="cls-8" d="M31.81,33c-5.47,0-10-6.75-10-12.08V13.84a10.06,10.06,0,0,1,10-10h0a10.06,10.06,0,0,1,10,10v6.93C41.84,26.61,37.86,33,31.81,33Z"/><path class="cls-9" d="M41.84,13.84A9.94,9.94,0,0,0,40,8a8.65,8.65,0,0,0-2,.22c-5.63,1.2-5.42-.24-9.47,2.22s-5.51,3.74-5.7,5-1,4.63-1,4.63,7.71-1.85,11.62-4.87,4.28-3.69,4.28-3.69,1.22,6.79,4.17,9.34v-7Z"/><path class="cls-10" d="M31.54,18.7s-.26,2.86-1.28,3.65,0,1.07,1.28.38S32.87,20,31.54,18.7Z"/><path class="cls-1" d="M44.3,16.75l-.92,2.31s-1.54-.15-1.54,1.75A27.1,27.1,0,0,1,38.16,10,38.91,38.91,0,0,1,21.77,20s-.5-1.65-1.55-1.09c0,0-1.42-8.23.82-11.68S26,.37,30.78.82,44.71,5.46,44.3,16.75Z"/><path class="cls-2" d="M43.38,19.06,44,17.63a10.1,10.1,0,0,0-2-1.24C39.5,15.21,38.16,10,38.16,10a27.1,27.1,0,0,0,3.68,10.83C41.84,18.91,43.38,19.06,43.38,19.06Z"/><path class="cls-2" d="M38.16,10c2,2.28,5.94,3.28,4.2,1.75S37.71,6,40.88,7.39a6.91,6.91,0,0,1,1.64,1.14,14.33,14.33,0,0,0-4.24-4.78A2.83,2.83,0,0,0,36,4.93c-3.89,4.91-14.83,5.27-10.38,6.14S35.92,6.41,34,9.74s-9.72,5.83-13.55,7a5.15,5.15,0,0,0-.52.2c.12,1.2.26,2,.26,2,1.05-.56,1.55,1.09,1.55,1.09A38.91,38.91,0,0,0,38.16,10Z"/><path class="cls-11" d="M24.78,16.64a.42.42,0,0,0,.54.65,2.78,2.78,0,0,1,2.44-.5.42.42,0,0,0,.52-.28A.43.43,0,0,0,28,16,3.69,3.69,0,0,0,24.78,16.64Z"/><path class="cls-12" d="M31.81,21.7a49.7,49.7,0,0,0-9.52,1,.92.92,0,0,0-.75,1.1c2,8.53,9.17,9.59,10.16,9.69h.22c1-.1,8.12-1.16,10.16-9.69a.92.92,0,0,0-.75-1.1A49.7,49.7,0,0,0,31.81,21.7Z"/><path class="cls-13" d="M27.19,21.94a47.32,47.32,0,0,0-4.9.73.92.92,0,0,0-.75,1.1A13,13,0,0,0,25,30.18a30.55,30.55,0,0,1-.89-5.2C24.13,22.91,27.11,22,27.19,21.94Z"/><path class="cls-1" d="M38.83,16.64a.42.42,0,1,1-.54.65,2.76,2.76,0,0,0-2.43-.5.42.42,0,1,1-.25-.81A3.67,3.67,0,0,1,38.83,16.64Z"/><path class="cls-1" d="M36.71,19.71c0,.71,1.32,1.28.79,1.28s-1.76-.57-1.76-1.28S37,18.42,37.5,18.42,36.71,19,36.71,19.71Z"/><path class="cls-1" d="M26.9,19.71c0,.71-1.32,1.28-.79,1.28s1.76-.57,1.76-1.28-1.23-1.29-1.76-1.29S26.9,19,26.9,19.71Z"/><path class="cls-14" d="M52.83,32.24a2.27,2.27,0,0,1-1.59-.63,1.32,1.32,0,0,0-1-.4,1.3,1.3,0,0,0-.95.4,2.29,2.29,0,0,1-1.59.63,2.31,2.31,0,0,1-1.6-.63,1.28,1.28,0,0,0-.94-.4,1.32,1.32,0,0,0-1,.4,2.32,2.32,0,0,1-3.18,0,1.32,1.32,0,0,0-.95-.4v-1a2.27,2.27,0,0,1,1.59.63,1.33,1.33,0,0,0,1.9,0,2.32,2.32,0,0,1,3.18,0,1.3,1.3,0,0,0,1,.4,1.28,1.28,0,0,0,.94-.4,2.31,2.31,0,0,1,1.6-.63,2.29,2.29,0,0,1,1.59.63,1.33,1.33,0,0,0,1.9,0,2.27,2.27,0,0,1,1.59-.63v1a1.32,1.32,0,0,0-.95.4A2.27,2.27,0,0,1,52.83,32.24Z"/><path class="cls-14" d="M52.83,35.06a2.27,2.27,0,0,1-1.59-.63,1.32,1.32,0,0,0-1-.4,1.3,1.3,0,0,0-.95.4,2.29,2.29,0,0,1-1.59.63,2.31,2.31,0,0,1-1.6-.63,1.28,1.28,0,0,0-.94-.4,1.32,1.32,0,0,0-1,.4,2.32,2.32,0,0,1-3.18,0,1.32,1.32,0,0,0-.95-.4V33a2.27,2.27,0,0,1,1.59.63,1.35,1.35,0,0,0,1.9,0,2.32,2.32,0,0,1,3.18,0,1.29,1.29,0,0,0,1,.39,1.27,1.27,0,0,0,.94-.39,2.31,2.31,0,0,1,1.6-.63,2.29,2.29,0,0,1,1.59.63,1.35,1.35,0,0,0,1.9,0A2.27,2.27,0,0,1,55.37,33v1a1.32,1.32,0,0,0-.95.4A2.27,2.27,0,0,1,52.83,35.06Z"/><path class="cls-14" d="M52.83,37.89a2.27,2.27,0,0,1-1.59-.63,1.32,1.32,0,0,0-1-.4,1.3,1.3,0,0,0-.95.4,2.29,2.29,0,0,1-1.59.63,2.31,2.31,0,0,1-1.6-.63,1.28,1.28,0,0,0-.94-.4,1.32,1.32,0,0,0-1,.4,2.32,2.32,0,0,1-3.18,0,1.32,1.32,0,0,0-.95-.4v-1a2.27,2.27,0,0,1,1.59.63,1.33,1.33,0,0,0,1.9,0,2.32,2.32,0,0,1,3.18,0,1.3,1.3,0,0,0,1,.4,1.28,1.28,0,0,0,.94-.4,2.31,2.31,0,0,1,1.6-.63,2.29,2.29,0,0,1,1.59.63,1.33,1.33,0,0,0,1.9,0,2.27,2.27,0,0,1,1.59-.63v1a1.32,1.32,0,0,0-.95.4A2.27,2.27,0,0,1,52.83,37.89Z"/></g></g></svg>