<svg xmlns="http://www.w3.org/2000/svg" viewBox="0 0 63.75 96.78"><defs><style>.cls-1,.cls-16{fill:#6c0d0f;}.cls-1,.cls-10,.cls-11,.cls-12,.cls-13,.cls-14,.cls-2,.cls-3,.cls-4,.cls-5,.cls-7,.cls-8,.cls-9{fill-rule:evenodd;}.cls-2{fill:#59080c;}.cls-3{fill:#c62026;}.cls-4,.cls-6{fill:#b21924;}.cls-5{fill:#e6b5a3;}.cls-7{fill:#ffb001;}.cls-8{fill:#ec6000;}.cls-9{fill:#e7baa8;}.cls-10{fill:#d68982;}.cls-11{fill:#f0d3c8;}.cls-12{fill:#8e1a20;}.cls-13{fill:#fff;}.cls-14{fill:#f4dcb1;}.cls-15{fill:none;stroke:#fff;stroke-miterlimit:10;}</style></defs><title>symptom01</title><g id="Layer_2" data-name="Layer 2"><g id="OBJECTS"><path class="cls-1" d="M14.2,11.58S6.56,22.87,15,38.69c4.44,8.3,3.1-3.15,1.39,1.34s11.43,7,11.43,7H39.36l5-3s16-21.2,3.81-36.18C42.91,1.41,37.05,3,37.05,3,21.18-7,14.2,11.58,14.2,11.58Z"/><path class="cls-2" d="M49.57,22.08c-.82.79.31,5.35-1.64,8.47s-5,5-5.91,2.45,2.23-7.77,3.51-10.48-1.12-5-3.58-6.13S38.16,10,38.16,10c2,2.28,5.94,3.28,4.2,1.75S37.71,6,40.88,7.39s10.38,11.81,8.95,8.08S39.91,0,36,4.93,21.19,10.2,25.64,11.07,35.92,6.41,34,9.74s-9.72,5.83-13.55,7-2.41,5.17-1.28,9.89-2.46,7.45-4.35,4.84-1.07-9-2.35-6.19c-.49,1.09-.43,3.95-.14,7.08A35.6,35.6,0,0,0,15,38.69a17.45,17.45,0,0,0,1.24,2,2.26,2.26,0,0,1,.15-.7c1.53-4,2.76,4.68-.15.7a3.06,3.06,0,0,0,1.41,2.45L24.62,43c1.74,0,19.43-.81,19.93-.81a7,7,0,0,0,1.26-.23,51,51,0,0,0,4.76-9.56C51.56,26.16,50.39,21.29,49.57,22.08Z"/><path class="cls-3" d="M15.17,36.64S-2.14,69.82.22,72.82c0,0,3.35,7.69,11.55,8.69S15.17,36.64,15.17,36.64Z"/><path class="cls-4" d="M6.21,63.42s-4,3.52-4,7a8,8,0,0,0,7.09,7.79c4.45.56,8.28-3.3,7.42-8.9S6.21,63.42,6.21,63.42Z"/><path class="cls-5" d="M31.81,19.9h0a4.88,4.88,0,0,1,4.87,4.87V34.1A4.88,4.88,0,0,1,31.81,39h0a4.88,4.88,0,0,1-4.87-4.87V24.77A4.88,4.88,0,0,1,31.81,19.9Z"/><path class="cls-3" d="M48.58,36.64s17.31,33.18,15,36.18c0,0-3.34,7.69-11.55,8.69S48.58,36.64,48.58,36.64Z"/><path class="cls-4" d="M48.81,61.79,47.2,64.47c.15,9.41,1.29,17.47,4.78,17a13.35,13.35,0,0,0,2.65-.59Z"/><path class="cls-3" d="M51.24,79.57c-.13-4.19-2.51-17.39-2.51-17.39,1.35-5.72-.14-25.54-.15-25.54-3.5-.72-6.76-1.21-8.33-1.77s-2.34-.83-2.72-.4a7.42,7.42,0,0,1-5.65,3,7.42,7.42,0,0,1-5.66-3c-.38-.43-1.14-.17-2.71.4s-4.83,1.05-8.34,1.77c0,0-1.5,19.82-.15,25.54,0,0-2.38,13.2-2.51,17.39S8.85,90.51,9.29,91.33c0,0,8.27,5.86,22.59,5.43,14.31.43,22.59-5.43,22.59-5.43C54.91,90.51,51.37,83.76,51.24,79.57Z"/><path class="cls-6" d="M17.93,63.39l-3.46-11h0A51,51,0,0,0,15,62.18s-.08.45-.21,1.21Z"/><path class="cls-6" d="M45.82,63.39l3.47-11h0a50,50,0,0,1-.56,9.84s.08.45.21,1.21Z"/><path class="cls-4" d="M30.72,35.7a30.94,30.94,0,0,1,4.47,10.53c.92,5.37.27,9.92.67,10.38s7.16-.51,8.79-2.76S39.4,37.18,36.74,34.52,29.54,33.77,30.72,35.7Z"/><path class="cls-4" d="M32.34,41.37C39.7,40.91,39.75,36,39.75,36s-.24-.7-.58-1.55c-.87-.28-1.36-.34-1.64,0a7.42,7.42,0,0,1-5.65,3,7.42,7.42,0,0,1-5.66-3c-.38-.43-1.14-.17-2.71.4a16.3,16.3,0,0,1-1.57.44h0C22.62,38.14,25,41.83,32.34,41.37Z"/><path class="cls-7" d="M31.54,34.47A30.94,30.94,0,0,1,36,45c.92,5.37.27,9.92.67,10.38s7.15-.51,8.79-2.76S40.22,36,37.55,33.29,30.36,32.55,31.54,34.47Z"/><path class="cls-8" d="M37.64,55.38c-.4-.46.25-5-.67-10.38A30.94,30.94,0,0,0,32.5,34.47c-.7-1.14.6-2.28,2.34-2.46-2.17-.22-4.12,1.12-3.3,2.46A30.94,30.94,0,0,1,36,45c.92,5.37.27,9.92.67,10.38a2.21,2.21,0,0,0,1.21.09A.46.46,0,0,1,37.64,55.38Z"/><path class="cls-8" d="M39.7,36.34H35.14l-1.92,1A33.13,33.13,0,0,1,34.9,41l.39-.1C39.48,39.69,39.7,36.35,39.7,36.34Z"/><path class="cls-7" d="M38.77,32.67a3.7,3.7,0,0,0-.85-2.61l-6.11,1.42-6.12-1.42a3.7,3.7,0,0,0-.85,2.61,9.08,9.08,0,0,0-1,3.37c0,1.38,3,4,7.94,4s7.9-2.61,7.94-4A9,9,0,0,0,38.77,32.67Z"/><path class="cls-8" d="M38.08,30.25l-.16-.19-6.11,1.42-6.12-1.42A4,4,0,0,0,25,31.31c1.36,1,4.12,2.69,7,2.42A8.32,8.32,0,0,0,38.08,30.25Z"/><path class="cls-9" d="M31.81,33c-5.47,0-10-6.75-10-12.08V13.84a10.06,10.06,0,0,1,10-10h0a10.06,10.06,0,0,1,10,10v6.93C41.84,26.61,37.86,33,31.81,33Z"/><path class="cls-10" d="M41.84,13.84A9.94,9.94,0,0,0,40,8a8.65,8.65,0,0,0-2,.22c-5.63,1.2-5.42-.24-9.47,2.22s-5.51,3.74-5.7,5-1,4.63-1,4.63,7.71-1.85,11.62-4.87,4.28-3.69,4.28-3.69,1.22,6.79,4.17,9.34v-7Z"/><path class="cls-11" d="M31.54,18.7s-.26,2.86-1.28,3.65,0,1.07,1.28.38S32.87,20,31.54,18.7Z"/><path class="cls-1" d="M44.3,16.75l-.92,2.31s-1.54-.15-1.54,1.75A27.1,27.1,0,0,1,38.16,10,38.91,38.91,0,0,1,21.77,20s-.5-1.65-1.55-1.09c0,0-1.42-8.23.82-11.68S26,.37,30.78.82,44.71,5.46,44.3,16.75Z"/><path class="cls-2" d="M43.38,19.06,44,17.63a10.1,10.1,0,0,0-2-1.24C39.5,15.21,38.16,10,38.16,10a27.1,27.1,0,0,0,3.68,10.83C41.84,18.91,43.38,19.06,43.38,19.06Z"/><path class="cls-2" d="M38.16,10c2,2.28,5.94,3.28,4.2,1.75S37.71,6,40.88,7.39a6.91,6.91,0,0,1,1.64,1.14,14.33,14.33,0,0,0-4.24-4.78A2.83,2.83,0,0,0,36,4.93c-3.89,4.91-14.83,5.27-10.38,6.14S35.92,6.41,34,9.74s-9.72,5.83-13.55,7a5.15,5.15,0,0,0-.52.2c.12,1.2.26,2,.26,2,1.05-.56,1.55,1.09,1.55,1.09A38.91,38.91,0,0,0,38.16,10Z"/><path class="cls-12" d="M24.78,16.64a.42.42,0,0,0,.54.65,2.78,2.78,0,0,1,2.44-.5.42.42,0,0,0,.52-.28A.43.43,0,0,0,28,16,3.69,3.69,0,0,0,24.78,16.64Z"/><path class="cls-8" d="M25,36.64a4.12,4.12,0,0,1,.43-2s.94,1.17,5.92,1.07,7.19-3,5.11-1.84A13.33,13.33,0,0,1,28,34.7a7,7,0,0,1-3.14-2,9.08,9.08,0,0,0-1,3.37c0,1.34,2.84,3.81,7.47,4C29.18,39.81,25.11,37.51,25,36.64Z"/><path class="cls-13" d="M31.81,21.7a49.7,49.7,0,0,0-9.52,1,.92.92,0,0,0-.75,1.1c2,8.53,9.17,9.59,10.16,9.69h.22c1-.1,8.12-1.16,10.16-9.69a.92.92,0,0,0-.75-1.1A49.7,49.7,0,0,0,31.81,21.7Z"/><path class="cls-14" d="M27.19,21.94a47.32,47.32,0,0,0-4.9.73.92.92,0,0,0-.75,1.1A13,13,0,0,0,25,30.18a30.55,30.55,0,0,1-.89-5.2C24.13,22.91,27.11,22,27.19,21.94Z"/><path class="cls-1" d="M38.83,16.64a.42.42,0,1,1-.54.65,2.76,2.76,0,0,0-2.43-.5.42.42,0,1,1-.25-.81A3.67,3.67,0,0,1,38.83,16.64Z"/><path class="cls-15" d="M55.58,36a1.53,1.53,0,0,0,0,2.17,1.91,1.91,0,0,0,2.71,0,2.39,2.39,0,0,0,0-3.39,3,3,0,0,0-4.24,0,3.81,3.81,0,0,0,4.22,6.16,5,5,0,0,0,2.26-7c-1.44-2.26-4-2.94-6.7-1.82a5.18,5.18,0,0,0-2.89,6.13"/><path class="cls-15" d="M6.65,37.41a1.53,1.53,0,0,0,0-2.17,1.93,1.93,0,0,0-2.72,0,2.41,2.41,0,0,0,0,3.39,3,3,0,0,0,4.24,0,3.74,3.74,0,0,0,0-5.3A3.79,3.79,0,0,0,4,32.46a5,5,0,0,0-2.27,7c1.44,2.26,4,2.94,6.7,1.82a5.2,5.2,0,0,0,2.89-6.14"/><path class="cls-16" d="M36.88,20.86a1.64,1.64,0,0,1-1.41-.78,1.6,1.6,0,0,1-.13-1.36,1.51,1.51,0,0,1,.89-1,1.3,1.3,0,0,1,1.44,2.11,1.07,1.07,0,0,1-1.5,0,.87.87,0,0,1-.26-.62.85.85,0,0,1,.26-.62.73.73,0,0,1,1,0,.62.62,0,0,1,0,.87L37,19.26a.3.3,0,0,0,0-.43.42.42,0,0,0-.6,0,.57.57,0,0,0,0,.8.75.75,0,0,0,1.06,0,1,1,0,0,0,0-1.38A1,1,0,0,0,36.34,18a1.33,1.33,0,0,0-.6,1.88,1.38,1.38,0,0,0,1.82.49,1.4,1.4,0,0,0,.78-1.66l.3-.09a1.71,1.71,0,0,1-1,2A2.13,2.13,0,0,1,36.88,20.86Z"/><path class="cls-16" d="M26.82,20.86a1.61,1.61,0,0,1-1.54-2.14,1.52,1.52,0,0,1,.9-1,1.3,1.3,0,0,1,1.43,2.11,1.07,1.07,0,0,1-1.5,0,.9.9,0,0,1-.25-.62.89.89,0,0,1,.25-.62.73.73,0,0,1,1,0,.62.62,0,0,1,0,.87l-.22-.22a.3.3,0,0,0,0-.43.42.42,0,0,0-.6,0,.57.57,0,0,0,0,.8.75.75,0,0,0,1.06,0,1,1,0,0,0,0-1.38A1,1,0,0,0,26.28,18a1.22,1.22,0,0,0-.7.78,1.3,1.3,0,0,0,.1,1.1,1.38,1.38,0,0,0,1.82.49,1.41,1.41,0,0,0,.79-1.66l.29-.09a1.71,1.71,0,0,1-.95,2A2.22,2.22,0,0,1,26.82,20.86Z"/></g></g></svg>