<svg xmlns="http://www.w3.org/2000/svg" viewBox="0 0 63.75 96.78"><defs><style>.cls-1{fill:#6c0d0f;}.cls-1,.cls-10,.cls-11,.cls-12,.cls-13,.cls-15,.cls-2,.cls-3,.cls-4,.cls-5,.cls-7,.cls-8,.cls-9{fill-rule:evenodd;}.cls-2{fill:#59080c;}.cls-3{fill:#c62026;}.cls-4,.cls-6{fill:#b21924;}.cls-5{fill:#e6b5a3;}.cls-7{fill:#ffb001;}.cls-8{fill:#ec6000;}.cls-17,.cls-9{fill:#e7baa8;}.cls-10,.cls-16{fill:#d68982;}.cls-11{fill:#f0d3c8;}.cls-12{fill:#8e1a20;}.cls-13,.cls-18{fill:#fff;}.cls-14,.cls-15{fill:#f4dcb1;}</style></defs><title>symptom02</title><g id="Layer_2" data-name="Layer 2"><g id="OBJECTS"><path class="cls-1" d="M14.2,11.58S6.56,22.87,15,38.69c4.44,8.3,3.1-3.15,1.39,1.34s11.43,7,11.43,7H39.36l5-3s16-21.2,3.81-36.18C42.91,1.41,37.05,3,37.05,3,21.18-7,14.2,11.58,14.2,11.58Z"/><path class="cls-2" d="M49.57,22.08c-.82.79.31,5.35-1.64,8.47s-5,5-5.91,2.45,2.23-7.77,3.51-10.48-1.12-5-3.58-6.13S38.16,10,38.16,10c2,2.28,5.94,3.28,4.2,1.75S37.71,6,40.88,7.39s10.38,11.81,8.95,8.08S39.91,0,36,4.93,21.19,10.2,25.64,11.07,35.92,6.41,34,9.74s-9.72,5.83-13.55,7-2.41,5.17-1.28,9.89-2.46,7.45-4.35,4.84-1.07-9-2.35-6.19c-.49,1.09-.43,3.95-.14,7.08A35.6,35.6,0,0,0,15,38.69a17.45,17.45,0,0,0,1.24,2,2.26,2.26,0,0,1,.15-.7c1.53-4,2.76,4.68-.15.7a3.06,3.06,0,0,0,1.41,2.45L24.62,43c1.74,0,19.43-.81,19.93-.81a7,7,0,0,0,1.26-.23,51,51,0,0,0,4.76-9.56C51.56,26.16,50.39,21.29,49.57,22.08Z"/><path class="cls-3" d="M15.17,36.64S-2.14,69.82.22,72.82c0,0,3.35,7.69,11.55,8.69S15.17,36.64,15.17,36.64Z"/><path class="cls-4" d="M6.21,63.42s-4,3.52-4,7a8,8,0,0,0,7.09,7.79c4.45.56,8.28-3.3,7.42-8.9S6.21,63.42,6.21,63.42Z"/><path class="cls-5" d="M31.81,19.9h0a4.88,4.88,0,0,1,4.87,4.87V34.1A4.88,4.88,0,0,1,31.81,39h0a4.88,4.88,0,0,1-4.87-4.87V24.77A4.88,4.88,0,0,1,31.81,19.9Z"/><path class="cls-3" d="M48.58,36.64s17.31,33.18,15,36.18c0,0-3.34,7.69-11.55,8.69S48.58,36.64,48.58,36.64Z"/><path class="cls-4" d="M48.81,61.79,47.2,64.47c.15,9.41,1.29,17.47,4.78,17a13.35,13.35,0,0,0,2.65-.59Z"/><path class="cls-3" d="M51.24,79.57c-.13-4.19-2.51-17.39-2.51-17.39,1.35-5.72-.14-25.54-.15-25.54-3.5-.72-6.76-1.21-8.33-1.77s-2.34-.83-2.72-.4a7.42,7.42,0,0,1-5.65,3,7.42,7.42,0,0,1-5.66-3c-.38-.43-1.14-.17-2.71.4s-4.83,1.05-8.34,1.77c0,0-1.5,19.82-.15,25.54,0,0-2.38,13.2-2.51,17.39S8.85,90.51,9.29,91.33c0,0,8.27,5.86,22.59,5.43,14.31.43,22.59-5.43,22.59-5.43C54.91,90.51,51.37,83.76,51.24,79.57Z"/><path class="cls-6" d="M45.82,63.39l3.47-11h0a50,50,0,0,1-.56,9.84s.08.45.21,1.21Z"/><path class="cls-4" d="M30.72,35.7a30.94,30.94,0,0,1,4.47,10.53c.92,5.37.27,9.92.67,10.38s7.16-.51,8.79-2.76S39.4,37.18,36.74,34.52,29.54,33.77,30.72,35.7Z"/><path class="cls-4" d="M14.8,87.26c0-1.13,11.22-39,11.67-40.21s1.76-7.81,1.76-7.81l-7.7,5S16,54.94,15.31,56.27c-.09.17-.37.59-.78,1.19A28.06,28.06,0,0,0,15,62.18s-2.38,13.2-2.51,17.39S8.85,90.51,9.29,91.33a31.36,31.36,0,0,0,9.05,3.87C16.77,93.54,14.8,88.38,14.8,87.26Z"/><path class="cls-4" d="M32.34,41.37C39.7,40.91,39.75,36,39.75,36s-.24-.7-.58-1.55c-.87-.28-1.36-.34-1.64,0a7.42,7.42,0,0,1-5.65,3,7.42,7.42,0,0,1-5.66-3c-.38-.43-1.14-.17-2.71.4a16.3,16.3,0,0,1-1.57.44h0C22.62,38.14,25,41.83,32.34,41.37Z"/><path class="cls-7" d="M31.54,34.47A30.94,30.94,0,0,1,36,45c.92,5.37.27,9.92.67,10.38s7.15-.51,8.79-2.76S40.22,36,37.55,33.29,30.36,32.55,31.54,34.47Z"/><path class="cls-8" d="M37.64,55.38c-.4-.46.25-5-.67-10.38A30.94,30.94,0,0,0,32.5,34.47c-.7-1.14.6-2.28,2.34-2.46-2.17-.22-4.12,1.12-3.3,2.46A30.94,30.94,0,0,1,36,45c.92,5.37.27,9.92.67,10.38a2.21,2.21,0,0,0,1.21.09A.46.46,0,0,1,37.64,55.38Z"/><path class="cls-8" d="M39.7,36.34H35.14l-1.92,1A33.13,33.13,0,0,1,34.9,41l.39-.1C39.48,39.69,39.7,36.35,39.7,36.34Z"/><path class="cls-7" d="M38.77,32.67a3.7,3.7,0,0,0-.85-2.61l-6.11,1.42-6.12-1.42a3.7,3.7,0,0,0-.85,2.61,9.08,9.08,0,0,0-1,3.37c0,1.38,3,4,7.94,4s7.9-2.61,7.94-4A9,9,0,0,0,38.77,32.67Z"/><path class="cls-8" d="M38.08,30.25l-.16-.19-6.11,1.42-6.12-1.42A4,4,0,0,0,25,31.31c1.36,1,4.12,2.69,7,2.42A8.32,8.32,0,0,0,38.08,30.25Z"/><path class="cls-9" d="M31.81,33c-5.47,0-10-6.75-10-12.08V13.84a10.06,10.06,0,0,1,10-10h0a10.06,10.06,0,0,1,10,10v6.93C41.84,26.61,37.86,33,31.81,33Z"/><path class="cls-10" d="M41.84,13.84A9.94,9.94,0,0,0,40,8a8.65,8.65,0,0,0-2,.22c-5.63,1.2-5.42-.24-9.47,2.22s-5.51,3.74-5.7,5-1,4.63-1,4.63,7.71-1.85,11.62-4.87,4.28-3.69,4.28-3.69,1.22,6.79,4.17,9.34v-7Z"/><path class="cls-11" d="M31.54,18.7s-.26,2.86-1.28,3.65,0,1.07,1.28.38S32.87,20,31.54,18.7Z"/><path class="cls-1" d="M44.3,16.75l-.92,2.31s-1.54-.15-1.54,1.75A27.1,27.1,0,0,1,38.16,10,38.91,38.91,0,0,1,21.77,20s-.5-1.65-1.55-1.09c0,0-1.42-8.23.82-11.68S26,.37,30.78.82,44.71,5.46,44.3,16.75Z"/><path class="cls-2" d="M43.38,19.06,44,17.63a10.1,10.1,0,0,0-2-1.24C39.5,15.21,38.16,10,38.16,10a27.1,27.1,0,0,0,3.68,10.83C41.84,18.91,43.38,19.06,43.38,19.06Z"/><path class="cls-2" d="M38.16,10c2,2.28,5.94,3.28,4.2,1.75S37.71,6,40.88,7.39a6.91,6.91,0,0,1,1.64,1.14,14.33,14.33,0,0,0-4.24-4.78A2.83,2.83,0,0,0,36,4.93c-3.89,4.91-14.83,5.27-10.38,6.14S35.92,6.41,34,9.74s-9.72,5.83-13.55,7a5.15,5.15,0,0,0-.52.2c.12,1.2.26,2,.26,2,1.05-.56,1.55,1.09,1.55,1.09A38.91,38.91,0,0,0,38.16,10Z"/><path class="cls-12" d="M24.78,16.64a.42.42,0,0,0,.54.65,2.78,2.78,0,0,1,2.44-.5.42.42,0,0,0,.52-.28A.43.43,0,0,0,28,16,3.69,3.69,0,0,0,24.78,16.64Z"/><path class="cls-8" d="M25,36.64a4.12,4.12,0,0,1,.43-2s.94,1.17,5.92,1.07,7.19-3,5.11-1.84A13.33,13.33,0,0,1,28,34.7a7,7,0,0,1-3.14-2,9.08,9.08,0,0,0-1,3.37c0,1.34,2.84,3.81,7.47,4C29.18,39.81,25.11,37.51,25,36.64Z"/><path class="cls-13" d="M31.81,21.7a49.7,49.7,0,0,0-9.52,1,.92.92,0,0,0-.75,1.1c2,8.53,9.17,9.59,10.16,9.69h.22c1-.1,8.12-1.16,10.16-9.69a.92.92,0,0,0-.75-1.1A49.7,49.7,0,0,0,31.81,21.7Z"/><path class="cls-14" d="M31.37,31.82c.11-.32,3-3,2.49-3.73s-3.6,1.59-4.07,2.23A13.1,13.1,0,0,0,29,31.63c.13-.72.32-1.74.36-1.95s2.32-3.37,1.76-4-3.46,3.05-3.74,3.57a16.64,16.64,0,0,0-.7,2.35,12.26,12.26,0,0,0,4.07,1.74C31,32.68,31.32,32,31.37,31.82Z"/><path class="cls-14" d="M30.91,33.33a6.12,6.12,0,0,0,.79.13h.22a11.2,11.2,0,0,0,3-.84C34.45,32.09,32,32.88,30.91,33.33Z"/><path class="cls-14" d="M26.65,31.53c0-.49.11-1.63.17-1.9s1.34-3.37.91-3.84-2.58,2.92-2.9,3.69a2.35,2.35,0,0,1-.18.35A11.37,11.37,0,0,0,26.65,31.53Z"/><path class="cls-15" d="M27.19,21.94a47.32,47.32,0,0,0-4.9.73.92.92,0,0,0-.75,1.1A13,13,0,0,0,25,30.18a30.55,30.55,0,0,1-.89-5.2C24.13,22.91,27.11,22,27.19,21.94Z"/><path class="cls-1" d="M27.75,19.71c0,.71-.43,1.29-1,1.29s-1-.58-1-1.29.43-1.28,1-1.28S27.75,19,27.75,19.71Z"/><path class="cls-10" d="M24.88,19.08H28.7A2.81,2.81,0,0,0,24.88,19.08Z"/><path class="cls-1" d="M38.83,16.64a.42.42,0,1,1-.54.65,2.76,2.76,0,0,0-2.43-.5.42.42,0,1,1-.25-.81A3.67,3.67,0,0,1,38.83,16.64Z"/><path class="cls-1" d="M35.87,19.71c0,.71.42,1.29,1,1.29s1-.58,1-1.29-.43-1.28-1-1.28S35.87,19,35.87,19.71Z"/><path class="cls-10" d="M38.73,19.08H34.92A2.8,2.8,0,0,1,38.73,19.08Z"/><path class="cls-16" d="M24.11,33s-1-4.59-2.46-4.59c-.81,0,.45,3.6,0,5.72-.39,1.85-.19,4.16.85,4.29S24.11,33,24.11,33Z"/><path class="cls-9" d="M21.37,39.52S6.07,62.16,4.61,66.76s.46,10.12,6.91,8.59,15-33.42,15-33.42Z"/><path class="cls-10" d="M26.46,41.93a2.22,2.22,0,0,0,.58-.27,4.73,4.73,0,0,0,1.22-1.23c-1.24,1.56-4,.88-4,.88l1.48.75S16,69.39,11.78,72.15a5.78,5.78,0,0,1-7.42-.62c.66,2.8,2.94,4.82,7.16,3.82,6.44-1.53,15-33.42,15-33.42Z"/><path class="cls-17" d="M21.28,39.12c.37,2.58,4.27,3.59,5.76,2.54,2.35-1.65,2.11-4.35,2.28-4.8a8.54,8.54,0,0,1,1.33-1.76c.15-.11,4-1.61,3.63-2.49s-4.21.56-4.62.84a25,25,0,0,0-1.84,1.89l1.69-1.1s1-2.21,1.1-2.53,3-3,2.49-3.74S29.49,29.56,29,30.21s-1.48,2.59-1.48,2.59l.56-.55s.43-2.34.49-2.69,2.32-3.37,1.76-4-3.46,3-3.73,3.56a19.2,19.2,0,0,0-.76,2.55s.11-1.78.2-2.12,1.33-3.37.9-3.84-2.58,2.92-2.9,3.69S20.65,34.71,21.28,39.12Z"/><path class="cls-18" d="M21.14,26.48s-3.4.13-3.53,2.19S19.66,29.18,21.14,26.48Z"/><path class="cls-18" d="M21,25.8s-3.28-2.84-5.19-1S17.27,27,21,25.8Z"/></g></g></svg>